<svg width="603" height="388" viewBox="0 0 603 388" fill="none" xmlns="http://www.w3.org/2000/svg">
<path d="M79.5498 123.214H85.1587V133.528H79.5498V123.214Z" fill="#A6A9AD"/>
<path d="M123.334 123.034H128.943V133.347H123.334V123.034Z" fill="#A6A9AD"/>
<path d="M166.938 122.854H172.547V133.167H166.938V122.854Z" fill="#A6A9AD"/>
<path d="M453.172 69.8395C453.172 69.8395 467.827 132.442 468.913 133.528C469.998 134.794 491.891 134.794 500.033 133.528C507.813 132.261 514.508 84.676 515.774 68.7539C515.955 67.3065 514.688 66.2209 513.241 66.2209L453.172 69.8395Z" fill="#AF603E"/>
<path d="M507.452 119.235C506.004 123.215 503.833 127.558 500.395 129.548C492.977 133.89 483.749 130.091 488.996 129.548C494.424 129.005 492.434 126.834 492.434 126.834L470.36 126.11C470.36 126.11 462.037 94.9898 461.857 90.1046C461.676 85.2195 485.74 87.5716 492.434 87.0288C499.129 86.486 499.671 82.6864 499.671 82.6864L459.143 81.7817L455.886 69.6593H453.353C453.353 69.6593 468.008 132.262 469.094 133.347C470.179 134.614 492.072 134.614 500.214 133.347C502.747 133.166 505.28 127.377 507.452 119.235Z" fill="#934B32"/>
<path d="M231.53 99.6947L252.337 84.8583H246.909L226.102 99.6947H231.53Z" fill="#A6A8AB"/>
<path d="M220.132 82.8669H225.741V104.036H220.132V82.8669Z" fill="#A6A8AB"/>
<path d="M226.828 87.5715H218.867C218.143 87.5715 217.6 87.0287 217.6 86.305C217.6 85.5812 218.143 85.0385 218.867 85.0385H226.828C227.552 85.0385 228.094 85.5812 228.094 86.305C228.094 86.8478 227.552 87.5715 226.828 87.5715Z" fill="#A6A9AD"/>
<path d="M226.828 92.275H218.867C218.143 92.275 217.6 91.7322 217.6 91.0085C217.6 90.2848 218.143 89.742 218.867 89.742H226.828C227.552 89.742 228.094 90.2848 228.094 91.0085C228.094 91.7322 227.552 92.275 226.828 92.275Z" fill="#A6A9AD"/>
<path d="M226.828 96.9804H218.867C218.143 96.9804 217.6 96.4376 217.6 95.7138C217.6 94.9901 218.143 94.4473 218.867 94.4473H226.828C227.552 94.4473 228.094 94.9901 228.094 95.7138C228.094 96.4376 227.552 96.9804 226.828 96.9804Z" fill="#A6A9AD"/>
<path d="M25.6313 206.083C25.6313 206.083 14.7754 206.083 10.433 206.083C6.09063 206.083 8.80479 233.946 8.80479 233.946L25.6313 206.083Z" fill="#FF5555"/>
<path d="M315.667 287.864C315.486 287.864 315.124 287.864 314.943 287.683C313.676 287.321 313.133 286.055 313.495 284.788L333.941 222.186C334.302 220.919 335.569 220.376 336.835 220.738C338.102 221.1 338.645 222.366 338.283 223.633L317.838 286.236C317.476 287.14 316.571 287.864 315.667 287.864Z" fill="#E6E7E8"/>
<path d="M375.193 282.073C373.383 282.073 371.936 280.625 371.936 278.816C371.936 210.967 427.12 155.782 494.97 155.782C508.539 155.782 521.928 157.953 534.594 162.296C543.459 165.372 551.963 169.352 559.924 174.237C561.372 175.142 561.914 177.132 561.01 178.58C560.105 180.027 558.115 180.57 556.667 179.665C549.068 174.961 541.107 171.162 532.784 168.267C520.662 164.105 507.997 162.115 495.15 162.115C430.739 162.115 378.449 214.404 378.449 278.816C378.268 280.625 376.821 282.073 375.193 282.073Z" fill="#60C6BA"/>
<path d="M243.474 282.073C241.665 282.073 240.217 280.625 240.217 278.816C240.217 228.879 208.374 184.37 161.15 168.267C149.028 164.105 136.362 162.115 123.516 162.115C59.1044 162.115 6.81503 214.404 6.81503 278.816C6.81503 280.625 5.36771 282.073 3.55838 282.073C1.74905 282.073 0.301514 280.625 0.301514 278.816C0.301514 210.967 55.4858 155.782 123.335 155.782C136.905 155.782 150.294 157.953 162.96 162.296C212.897 179.303 246.369 226.165 246.369 278.816C246.731 280.625 245.284 282.073 243.474 282.073Z" fill="#60C6BA"/>
<mask id="mask0" mask-type="alpha" maskUnits="userSpaceOnUse" x="15" y="170" width="216" height="217">
<circle cx="123" cy="278.382" r="108" transform="rotate(-180 123 278.382)" fill="#C4C4C4"/>
</mask>
<g mask="url(#mask0)">
<mask id="mask1" mask-type="alpha" maskUnits="userSpaceOnUse" x="15" y="170" width="216" height="217">
<circle cx="123" cy="278.382" r="108" transform="rotate(-180 123 278.382)" fill="#C4C4C4"/>
</mask>
<g mask="url(#mask1)">
<mask id="mask2" mask-type="alpha" maskUnits="userSpaceOnUse" x="13" y="168" width="220" height="221">
<circle cx="123" cy="278.382" r="108" transform="rotate(1 123 278.382)" fill="#C4C4C4"/>
</mask>
<g mask="url(#mask2)">
<path d="M122.66 278.772L86.5098 188.78L87.3492 188.443L123.5 278.435L122.66 278.772Z" fill="#929497"/>
<path d="M123.344 278.765L122.512 278.41L160.645 189.239L161.477 189.595L123.344 278.765Z" fill="#929497"/>
<path d="M123.184 279.054L122.847 278.214L212.857 242.103L213.194 242.943L123.184 279.054Z" fill="#929497"/>
<path d="M211.971 317.342L122.78 279.266L123.135 278.434L212.326 316.51L211.971 317.342Z" fill="#929497"/>
<path d="M158.858 368.848L122.708 278.857L123.547 278.519L159.698 368.511L158.858 368.848Z" fill="#929497"/>
<path d="M85.2466 368.092L84.4148 367.737L122.548 278.566L123.38 278.922L85.2466 368.092Z" fill="#929497"/>
<path d="M33.165 315.186L32.828 314.346L122.829 278.215L123.166 279.055L33.165 315.186Z" fill="#929497"/>
<path d="M122.71 279.086L33.5186 241.011L33.8737 240.179L123.065 278.254L122.71 279.086Z" fill="#929497"/>
<path d="M117.365 270.448L116.473 270.302L131.613 177.813L132.506 177.96L117.365 270.448Z" fill="#929497"/>
<path d="M128.576 270.566L116.654 177.605L117.551 177.49L129.474 270.451L128.576 270.566Z" fill="#929497"/>
<path d="M124.934 268.892L124.406 268.157L200.537 213.497L201.065 214.232L124.934 268.892Z" fill="#929497"/>
<path d="M133.526 277.43L132.811 276.877L190.141 202.738L190.856 203.291L133.526 277.43Z" fill="#929497"/>
<path d="M223.816 288.247L131.328 273.087L131.474 272.195L223.962 287.354L223.816 288.247Z" fill="#929497"/>
<path d="M131.174 285.325L131.059 284.428L224.029 272.543L224.144 273.44L131.174 285.325Z" fill="#929497"/>
<path d="M187.42 356.835L132.741 280.712L133.476 280.184L188.155 356.307L187.42 356.835Z" fill="#929497"/>
<path d="M198.335 346.634L124.167 289.331L124.72 288.615L198.888 345.918L198.335 346.634Z" fill="#929497"/>
<path d="M114.038 379.797L113.145 379.651L128.286 287.162L129.179 287.308L114.038 379.797Z" fill="#929497"/>
<path d="M128.231 379.873L116.309 286.913L117.206 286.798L129.129 379.758L128.231 379.873Z" fill="#929497"/>
<path d="M45.3775 343.829L44.85 343.094L120.991 288.444L121.518 289.179L45.3775 343.829Z" fill="#929497"/>
<path d="M55.7236 354.338L55.0081 353.785L112.347 279.655L113.063 280.209L55.7236 354.338Z" fill="#929497"/>
<path d="M114.481 284.92L21.993 269.76L22.1394 268.868L114.628 284.027L114.481 284.92Z" fill="#929497"/>
<path d="M21.9154 284.965L21.8007 284.068L114.77 272.183L114.885 273.08L21.9154 284.965Z" fill="#929497"/>
<path d="M112.521 277.259L57.8414 201.137L58.5762 200.609L113.255 276.731L112.521 277.259Z" fill="#929497"/>
<path d="M121.315 268.79L47.1471 211.488L47.7002 210.772L121.868 268.074L121.315 268.79Z" fill="#929497"/>
<path d="M117.365 270.448L116.473 270.302L131.613 177.813L132.506 177.96L117.365 270.448Z" fill="#929497"/>
<path d="M128.576 270.566L116.654 177.605L117.551 177.49L129.474 270.451L128.576 270.566Z" fill="#929497"/>
<path d="M124.934 268.892L124.406 268.157L200.537 213.497L201.065 214.232L124.934 268.892Z" fill="#929497"/>
<path d="M133.526 277.43L132.811 276.877L190.141 202.738L190.856 203.291L133.526 277.43Z" fill="#929497"/>
<path d="M223.816 288.247L131.328 273.087L131.474 272.195L223.962 287.354L223.816 288.247Z" fill="#929497"/>
<path d="M131.174 285.325L131.059 284.428L224.029 272.543L224.144 273.44L131.174 285.325Z" fill="#929497"/>
<path d="M187.42 356.835L132.741 280.712L133.476 280.184L188.155 356.307L187.42 356.835Z" fill="#929497"/>
<path d="M198.335 346.634L124.167 289.331L124.72 288.615L198.888 345.918L198.335 346.634Z" fill="#929497"/>
<path d="M114.038 379.797L113.145 379.651L128.286 287.162L129.179 287.308L114.038 379.797Z" fill="#929497"/>
<path d="M128.231 379.873L116.309 286.913L117.206 286.798L129.129 379.758L128.231 379.873Z" fill="#929497"/>
<path d="M45.3775 343.829L44.85 343.094L120.991 288.444L121.518 289.179L45.3775 343.829Z" fill="#929497"/>
<path d="M55.7236 354.338L55.0081 353.785L112.347 279.655L113.063 280.209L55.7236 354.338Z" fill="#929497"/>
<path d="M114.481 284.92L21.993 269.76L22.1394 268.868L114.628 284.027L114.481 284.92Z" fill="#929497"/>
<path d="M21.9154 284.965L21.8007 284.068L114.77 272.183L114.885 273.08L21.9154 284.965Z" fill="#929497"/>
<path d="M112.521 277.259L57.8414 201.137L58.5762 200.609L113.255 276.731L112.521 277.259Z" fill="#929497"/>
<path d="M121.315 268.79L47.1471 211.488L47.7002 210.772L121.868 268.074L121.315 268.79Z" fill="#929497"/>
<path d="M122.66 278.772L86.5098 188.78L87.3492 188.443L123.5 278.435L122.66 278.772Z" fill="#929497"/>
<path d="M123.344 278.765L122.512 278.41L160.645 189.239L161.477 189.595L123.344 278.765Z" fill="#929497"/>
<path d="M123.184 279.054L122.847 278.214L212.857 242.103L213.194 242.943L123.184 279.054Z" fill="#929497"/>
<path d="M211.971 317.342L122.78 279.266L123.135 278.434L212.326 316.51L211.971 317.342Z" fill="#929497"/>
<path d="M158.858 368.848L122.708 278.857L123.547 278.519L159.698 368.511L158.858 368.848Z" fill="#929497"/>
<path d="M85.2466 368.092L84.4148 367.737L122.548 278.566L123.38 278.922L85.2466 368.092Z" fill="#929497"/>
<path d="M33.165 315.186L32.828 314.346L122.829 278.215L123.166 279.055L33.165 315.186Z" fill="#929497"/>
<path d="M122.71 279.086L33.5186 241.011L33.8737 240.179L123.065 278.254L122.71 279.086Z" fill="#929497"/>
<path d="M117.365 270.448L116.473 270.302L131.613 177.813L132.506 177.96L117.365 270.448Z" fill="#929497"/>
<path d="M128.576 270.566L116.654 177.605L117.551 177.49L129.474 270.451L128.576 270.566Z" fill="#929497"/>
<path d="M124.934 268.892L124.406 268.157L200.537 213.497L201.065 214.232L124.934 268.892Z" fill="#929497"/>
<path d="M133.526 277.43L132.811 276.877L190.141 202.738L190.856 203.291L133.526 277.43Z" fill="#929497"/>
<path d="M223.816 288.247L131.328 273.087L131.474 272.195L223.962 287.354L223.816 288.247Z" fill="#929497"/>
<path d="M131.174 285.325L131.059 284.428L224.029 272.543L224.144 273.44L131.174 285.325Z" fill="#929497"/>
<path d="M187.42 356.835L132.741 280.712L133.476 280.184L188.155 356.307L187.42 356.835Z" fill="#929497"/>
<path d="M198.335 346.634L124.167 289.331L124.72 288.615L198.888 345.918L198.335 346.634Z" fill="#929497"/>
<path d="M114.038 379.797L113.145 379.651L128.286 287.162L129.179 287.308L114.038 379.797Z" fill="#929497"/>
<path d="M128.231 379.873L116.309 286.913L117.206 286.798L129.129 379.758L128.231 379.873Z" fill="#929497"/>
<path d="M45.3775 343.829L44.85 343.094L120.991 288.444L121.518 289.179L45.3775 343.829Z" fill="#929497"/>
<path d="M55.7236 354.338L55.0081 353.785L112.347 279.655L113.063 280.209L55.7236 354.338Z" fill="#929497"/>
<path d="M114.481 284.92L21.993 269.76L22.1394 268.868L114.628 284.027L114.481 284.92Z" fill="#929497"/>
<path d="M21.9154 284.965L21.8007 284.068L114.77 272.183L114.885 273.08L21.9154 284.965Z" fill="#929497"/>
<path d="M112.521 277.259L57.8414 201.137L58.5762 200.609L113.255 276.731L112.521 277.259Z" fill="#929497"/>
<path d="M121.315 268.79L47.1471 211.488L47.7002 210.772L121.868 268.074L121.315 268.79Z" fill="#929497"/>
<path d="M117.365 270.448L116.473 270.302L131.613 177.813L132.506 177.96L117.365 270.448Z" fill="#929497"/>
<path d="M128.576 270.566L116.654 177.605L117.551 177.49L129.474 270.451L128.576 270.566Z" fill="#929497"/>
<path d="M124.934 268.892L124.406 268.157L200.537 213.497L201.065 214.232L124.934 268.892Z" fill="#929497"/>
<path d="M133.526 277.43L132.811 276.877L190.141 202.738L190.856 203.291L133.526 277.43Z" fill="#929497"/>
<path d="M223.816 288.247L131.328 273.087L131.474 272.195L223.962 287.354L223.816 288.247Z" fill="#929497"/>
<path d="M131.174 285.325L131.059 284.428L224.029 272.543L224.144 273.44L131.174 285.325Z" fill="#929497"/>
<path d="M187.42 356.835L132.741 280.712L133.476 280.184L188.155 356.307L187.42 356.835Z" fill="#929497"/>
<path d="M198.335 346.634L124.167 289.331L124.72 288.615L198.888 345.918L198.335 346.634Z" fill="#929497"/>
<path d="M114.038 379.797L113.145 379.651L128.286 287.162L129.179 287.308L114.038 379.797Z" fill="#929497"/>
<path d="M128.231 379.873L116.309 286.913L117.206 286.798L129.129 379.758L128.231 379.873Z" fill="#929497"/>
<path d="M45.3775 343.829L44.85 343.094L120.991 288.444L121.518 289.179L45.3775 343.829Z" fill="#929497"/>
<path d="M55.7236 354.338L55.0081 353.785L112.347 279.655L113.063 280.209L55.7236 354.338Z" fill="#929497"/>
<path d="M114.481 284.92L21.993 269.76L22.1394 268.868L114.628 284.027L114.481 284.92Z" fill="#929497"/>
<path d="M21.9154 284.965L21.8007 284.068L114.77 272.183L114.885 273.08L21.9154 284.965Z" fill="#929497"/>
<path d="M112.521 277.259L57.8414 201.137L58.5762 200.609L113.255 276.731L112.521 277.259Z" fill="#929497"/>
<path d="M121.315 268.79L47.1471 211.488L47.7002 210.772L121.868 268.074L121.315 268.79Z" fill="#929497"/>
<path d="M123.354 278.691L122.465 278.52L140.724 183.28L141.612 183.45L123.354 278.691Z" fill="#929497"/>
<path d="M123.338 278.933L122.83 278.184L203.064 223.706L203.572 224.455L123.338 278.933Z" fill="#929497"/>
<path d="M218.215 297.409L122.965 279.16L123.135 278.272L218.385 296.52L218.215 297.409Z" fill="#929497"/>
<path d="M177.181 359.164L122.732 278.911L123.481 278.403L177.93 358.656L177.181 359.164Z" fill="#929497"/>
<path d="M105.133 373.997L104.244 373.827L122.483 278.576L123.372 278.747L105.133 373.997Z" fill="#929497"/>
<path d="M43.0404 333.553L42.5322 332.805L122.766 278.326L123.275 279.075L43.0404 333.553Z" fill="#929497"/>
<path d="M122.94 279.034L27.6898 260.785L27.86 259.897L123.11 278.145L122.94 279.034Z" fill="#929497"/>
<path d="M122.561 278.865L68.1128 198.612L68.8614 198.104L123.31 278.357L122.561 278.865Z" fill="#929497"/>
<path d="M122.907 268.698L122.235 268.092L184.979 198.472L185.651 199.078L122.907 268.698Z" fill="#929497"/>
<path d="M133.065 275.314L132.248 274.926L172.476 190.271L173.294 190.659L133.065 275.314Z" fill="#929497"/>
<path d="M129.982 271.506L129.936 270.602L223.533 265.738L223.58 266.642L129.982 271.506Z" fill="#929497"/>
<path d="M132.406 283.394L132.102 282.542L220.398 251.116L220.702 251.968L132.406 283.394Z" fill="#929497"/>
<path d="M202.406 341.421L132.805 278.659L133.411 277.987L203.012 340.75L202.406 341.421Z" fill="#929497"/>
<path d="M210.947 328.853L126.301 288.625L126.689 287.808L211.335 328.036L210.947 328.853Z" fill="#929497"/>
<path d="M134.967 379.271L130.128 285.674L131.032 285.627L135.871 379.224L134.967 379.271Z" fill="#929497"/>
<path d="M149.656 376.477L118.249 288.172L119.101 287.869L150.508 376.174L149.656 376.477Z" fill="#929497"/>
<path d="M60.9743 358.805L60.3022 358.199L123.037 288.57L123.709 289.175L60.9743 358.805Z" fill="#929497"/>
<path d="M73.4372 367.017L72.6201 366.629L112.858 281.983L113.675 282.372L73.4372 367.017Z" fill="#929497"/>
<path d="M22.527 291.397L22.4802 290.494L116.077 285.648L116.124 286.552L22.527 291.397Z" fill="#929497"/>
<path d="M25.4121 306.237L25.1088 305.384L113.405 273.958L113.708 274.81L25.4121 306.237Z" fill="#929497"/>
<path d="M112.318 279.459L42.7175 216.696L43.3233 216.025L112.924 278.787L112.318 279.459Z" fill="#929497"/>
<path d="M119.136 269.275L34.491 229.047L34.8793 228.23L119.525 268.458L119.136 269.275Z" fill="#929497"/>
<path d="M115.027 271.646L110.188 178.049L111.092 178.002L115.931 271.599L115.027 271.646Z" fill="#929497"/>
<path d="M126.84 269.525L95.433 181.22L96.2853 180.917L127.693 269.221L126.84 269.525Z" fill="#929497"/>
<path d="M122.907 268.698L122.235 268.092L184.979 198.472L185.651 199.078L122.907 268.698Z" fill="#929497"/>
<path d="M133.065 275.314L132.248 274.926L172.476 190.271L173.294 190.659L133.065 275.314Z" fill="#929497"/>
<path d="M129.982 271.506L129.936 270.602L223.533 265.738L223.58 266.642L129.982 271.506Z" fill="#929497"/>
<path d="M132.406 283.394L132.102 282.542L220.398 251.116L220.702 251.968L132.406 283.394Z" fill="#929497"/>
<path d="M202.406 341.421L132.805 278.659L133.411 277.987L203.012 340.75L202.406 341.421Z" fill="#929497"/>
<path d="M210.947 328.853L126.301 288.625L126.689 287.808L211.335 328.036L210.947 328.853Z" fill="#929497"/>
<path d="M134.967 379.271L130.128 285.674L131.032 285.627L135.871 379.224L134.967 379.271Z" fill="#929497"/>
<path d="M149.656 376.477L118.249 288.172L119.101 287.869L150.508 376.174L149.656 376.477Z" fill="#929497"/>
<path d="M60.9743 358.805L60.3022 358.199L123.037 288.57L123.709 289.175L60.9743 358.805Z" fill="#929497"/>
<path d="M73.4372 367.017L72.6201 366.629L112.858 281.983L113.675 282.372L73.4372 367.017Z" fill="#929497"/>
<path d="M22.527 291.397L22.4802 290.494L116.077 285.648L116.124 286.552L22.527 291.397Z" fill="#929497"/>
<path d="M25.4121 306.237L25.1088 305.384L113.405 273.958L113.708 274.81L25.4121 306.237Z" fill="#929497"/>
<path d="M112.318 279.459L42.7175 216.696L43.3233 216.025L112.924 278.787L112.318 279.459Z" fill="#929497"/>
<path d="M119.136 269.275L34.491 229.047L34.8793 228.23L119.525 268.458L119.136 269.275Z" fill="#929497"/>
<path d="M115.027 271.646L110.188 178.049L111.092 178.002L115.931 271.599L115.027 271.646Z" fill="#929497"/>
<path d="M126.84 269.525L95.433 181.22L96.2853 180.917L127.693 269.221L126.84 269.525Z" fill="#929497"/>
<path d="M123.354 278.691L122.465 278.52L140.724 183.28L141.612 183.45L123.354 278.691Z" fill="#929497"/>
<path d="M123.338 278.933L122.83 278.184L203.064 223.706L203.572 224.455L123.338 278.933Z" fill="#929497"/>
<path d="M218.215 297.409L122.965 279.16L123.135 278.272L218.385 296.52L218.215 297.409Z" fill="#929497"/>
<path d="M177.181 359.164L122.732 278.911L123.481 278.403L177.93 358.656L177.181 359.164Z" fill="#929497"/>
<path d="M105.133 373.997L104.244 373.827L122.483 278.576L123.372 278.747L105.133 373.997Z" fill="#929497"/>
<path d="M43.0404 333.553L42.5322 332.805L122.766 278.326L123.275 279.075L43.0404 333.553Z" fill="#929497"/>
<path d="M122.94 279.034L27.6898 260.785L27.86 259.897L123.11 278.145L122.94 279.034Z" fill="#929497"/>
<path d="M122.561 278.865L68.1128 198.612L68.8614 198.104L123.31 278.357L122.561 278.865Z" fill="#929497"/>
<path d="M122.907 268.698L122.235 268.092L184.979 198.472L185.651 199.078L122.907 268.698Z" fill="#929497"/>
<path d="M133.065 275.314L132.248 274.926L172.476 190.271L173.294 190.659L133.065 275.314Z" fill="#929497"/>
<path d="M129.982 271.506L129.936 270.602L223.533 265.738L223.58 266.642L129.982 271.506Z" fill="#929497"/>
<path d="M132.406 283.394L132.102 282.542L220.398 251.116L220.702 251.968L132.406 283.394Z" fill="#929497"/>
<path d="M202.406 341.421L132.805 278.659L133.411 277.987L203.012 340.75L202.406 341.421Z" fill="#929497"/>
<path d="M210.947 328.853L126.301 288.625L126.689 287.808L211.335 328.036L210.947 328.853Z" fill="#929497"/>
<path d="M134.967 379.271L130.128 285.674L131.032 285.627L135.871 379.224L134.967 379.271Z" fill="#929497"/>
<path d="M149.656 376.477L118.249 288.172L119.101 287.869L150.508 376.174L149.656 376.477Z" fill="#929497"/>
<path d="M60.9743 358.805L60.3022 358.199L123.037 288.57L123.709 289.175L60.9743 358.805Z" fill="#929497"/>
<path d="M73.4372 367.017L72.6201 366.629L112.858 281.983L113.675 282.372L73.4372 367.017Z" fill="#929497"/>
<path d="M22.527 291.397L22.4802 290.494L116.077 285.648L116.124 286.552L22.527 291.397Z" fill="#929497"/>
<path d="M25.4121 306.237L25.1088 305.384L113.405 273.958L113.708 274.81L25.4121 306.237Z" fill="#929497"/>
<path d="M112.318 279.459L42.7175 216.696L43.3233 216.025L112.924 278.787L112.318 279.459Z" fill="#929497"/>
<path d="M119.136 269.275L34.491 229.047L34.8793 228.23L119.525 268.458L119.136 269.275Z" fill="#929497"/>
<path d="M115.027 271.646L110.188 178.049L111.092 178.002L115.931 271.599L115.027 271.646Z" fill="#929497"/>
<path d="M126.84 269.525L95.433 181.22L96.2853 180.917L127.693 269.221L126.84 269.525Z" fill="#929497"/>
<path d="M122.907 268.698L122.235 268.092L184.979 198.472L185.651 199.078L122.907 268.698Z" fill="#929497"/>
<path d="M133.065 275.314L132.248 274.926L172.476 190.271L173.294 190.659L133.065 275.314Z" fill="#929497"/>
<path d="M129.982 271.506L129.936 270.602L223.533 265.738L223.58 266.642L129.982 271.506Z" fill="#929497"/>
<path d="M132.406 283.394L132.102 282.542L220.398 251.116L220.702 251.968L132.406 283.394Z" fill="#929497"/>
<path d="M202.406 341.421L132.805 278.659L133.411 277.987L203.012 340.75L202.406 341.421Z" fill="#929497"/>
<path d="M210.947 328.853L126.301 288.625L126.689 287.808L211.335 328.036L210.947 328.853Z" fill="#929497"/>
<path d="M134.967 379.271L130.128 285.674L131.032 285.627L135.871 379.224L134.967 379.271Z" fill="#929497"/>
<path d="M149.656 376.477L118.249 288.172L119.101 287.869L150.508 376.174L149.656 376.477Z" fill="#929497"/>
<path d="M60.9743 358.805L60.3022 358.199L123.037 288.57L123.709 289.175L60.9743 358.805Z" fill="#929497"/>
<path d="M73.4372 367.017L72.6201 366.629L112.858 281.983L113.675 282.372L73.4372 367.017Z" fill="#929497"/>
<path d="M22.527 291.397L22.4802 290.494L116.077 285.648L116.124 286.552L22.527 291.397Z" fill="#929497"/>
<path d="M25.4121 306.237L25.1088 305.384L113.405 273.958L113.708 274.81L25.4121 306.237Z" fill="#929497"/>
<path d="M112.318 279.459L42.7175 216.696L43.3233 216.025L112.924 278.787L112.318 279.459Z" fill="#929497"/>
<path d="M119.136 269.275L34.491 229.047L34.8793 228.23L119.525 268.458L119.136 269.275Z" fill="#929497"/>
<path d="M115.027 271.646L110.188 178.049L111.092 178.002L115.931 271.599L115.027 271.646Z" fill="#929497"/>
<path d="M126.84 269.525L95.433 181.22L96.2853 180.917L127.693 269.221L126.84 269.525Z" fill="#929497"/>
<path d="M228.98 280.439C230 222.007 183.256 173.417 124.643 172.394C66.2108 171.374 17.6214 218.119 16.5983 276.732C15.5783 335.164 62.3227 383.753 120.936 384.776C179.549 385.799 227.957 339.052 228.98 280.439ZM219.754 280.278C218.82 333.826 174.645 376.485 121.097 375.55C67.5491 374.616 24.8899 330.441 25.8246 276.893C26.7593 223.345 70.9342 180.686 124.482 181.621C178.03 182.555 220.686 226.911 219.754 280.278Z" fill="#292C2D"/>
<path d="M223.914 280.35C222.938 336.25 176.923 380.686 121.023 379.71C65.1235 378.735 20.6868 332.719 21.6625 276.82C22.6382 220.92 68.6538 176.483 124.553 177.459C180.453 178.435 224.89 224.45 223.914 280.35ZM219.753 280.277C220.688 226.73 178.028 182.555 124.481 181.62C70.933 180.685 26.7581 223.345 25.8234 276.892C24.8887 330.44 67.5479 374.615 121.096 375.55C174.643 376.484 218.818 333.825 219.753 280.277Z" fill="#353435"/>
<path d="M122.716 293.651C114.424 293.507 107.818 286.667 107.963 278.374C108.108 270.082 114.948 263.476 123.24 263.621C131.533 263.766 138.138 270.606 137.993 278.898C137.849 287.191 131.009 293.796 122.716 293.651Z" fill="#A6A8AB"/>
<path d="M122.861 285.329C119.165 285.264 116.22 282.215 116.285 278.519C116.349 274.822 119.398 271.877 123.095 271.942C126.792 272.006 129.736 275.056 129.672 278.752C129.607 282.449 126.558 285.393 122.861 285.329Z" fill="#6D6E70"/>
<path d="M122.925 281.711C121.226 281.681 119.873 280.28 119.903 278.582C119.932 276.883 121.333 275.53 123.032 275.56C124.73 275.59 126.083 276.991 126.053 278.689C126.024 280.388 124.623 281.74 122.925 281.711Z" fill="#F1F1F2"/>
</g>
</g>
</g>
<mask id="mask3" mask-type="alpha" maskUnits="userSpaceOnUse" x="387" y="171" width="216" height="217">
<circle cx="495" cy="279.382" r="108" transform="rotate(-180 495 279.382)" fill="#C4C4C4"/>
</mask>
<g mask="url(#mask3)">
<mask id="mask4" mask-type="alpha" maskUnits="userSpaceOnUse" x="387" y="171" width="216" height="217">
<circle cx="495" cy="279.382" r="108" transform="rotate(-180 495 279.382)" fill="#C4C4C4"/>
</mask>
<g mask="url(#mask4)">
<mask id="mask5" mask-type="alpha" maskUnits="userSpaceOnUse" x="385" y="169" width="220" height="221">
<circle cx="495" cy="279.382" r="108" transform="rotate(1 495 279.382)" fill="#C4C4C4"/>
</mask>
<g mask="url(#mask5)">
<path d="M494.552 279.094L458.402 189.102L459.242 188.764L495.392 278.756L494.552 279.094Z" fill="#929497"/>
<path d="M495.279 279.101L494.447 278.745L532.551 189.565L533.383 189.92L495.279 279.101Z" fill="#929497"/>
<path d="M495.138 279.296L494.801 278.457L584.802 242.326L585.139 243.166L495.138 279.296Z" fill="#929497"/>
<path d="M584.02 317.528L494.829 279.452L495.185 278.62L584.376 316.696L584.02 317.528Z" fill="#929497"/>
<path d="M530.762 369.164L494.612 279.172L495.451 278.835L531.602 368.827L530.762 369.164Z" fill="#929497"/>
<path d="M457.25 368.27L456.419 367.915L494.523 278.734L495.355 279.089L457.25 368.27Z" fill="#929497"/>
<path d="M405.173 315.374L404.836 314.535L494.837 278.413L495.174 279.253L405.173 315.374Z" fill="#929497"/>
<path d="M494.69 279.449L405.499 241.374L405.854 240.542L495.045 278.617L494.69 279.449Z" fill="#929497"/>
<path d="M489.526 270.495L488.634 270.349L503.756 177.85L504.649 177.996L489.526 270.495Z" fill="#929497"/>
<path d="M500.682 270.835L488.76 177.874L489.657 177.759L501.58 270.72L500.682 270.835Z" fill="#929497"/>
<path d="M496.957 269.125L496.428 268.39L572.514 213.673L573.042 214.407L496.957 269.125Z" fill="#929497"/>
<path d="M505.507 277.86L504.791 277.307L562.112 203.158L562.828 203.712L505.507 277.86Z" fill="#929497"/>
<path d="M595.805 288.637L503.316 273.478L503.463 272.585L595.951 287.744L595.805 288.637Z" fill="#929497"/>
<path d="M503.264 285.583L503.149 284.686L596.119 272.801L596.234 273.698L503.264 285.583Z" fill="#929497"/>
<path d="M559.49 357.065L504.81 280.943L505.545 280.415L560.225 356.538L559.49 357.065Z" fill="#929497"/>
<path d="M570.387 346.848L496.219 289.546L496.773 288.83L570.94 346.132L570.387 346.848Z" fill="#929497"/>
<path d="M486.192 379.828L485.299 379.682L500.422 287.184L501.314 287.33L486.192 379.828Z" fill="#929497"/>
<path d="M500.154 380.166L488.232 287.205L489.129 287.09L501.051 380.051L500.154 380.166Z" fill="#929497"/>
<path d="M417.361 344.091L416.833 343.357L492.928 288.649L493.456 289.383L417.361 344.091Z" fill="#929497"/>
<path d="M427.734 354.689L427.019 354.136L484.349 279.997L485.065 280.55L427.734 354.689Z" fill="#929497"/>
<path d="M486.472 285.301L393.984 270.141L394.13 269.249L486.618 284.408L486.472 285.301Z" fill="#929497"/>
<path d="M393.926 285.256L393.812 284.358L486.781 272.474L486.896 273.371L393.926 285.256Z" fill="#929497"/>
<path d="M484.574 277.498L429.895 201.376L430.629 200.848L485.309 276.971L484.574 277.498Z" fill="#929497"/>
<path d="M493.248 269.148L419.08 211.845L419.633 211.129L493.801 268.432L493.248 269.148Z" fill="#929497"/>
<path d="M489.526 270.495L488.634 270.349L503.756 177.85L504.649 177.996L489.526 270.495Z" fill="#929497"/>
<path d="M500.682 270.835L488.76 177.874L489.657 177.759L501.58 270.72L500.682 270.835Z" fill="#929497"/>
<path d="M496.957 269.125L496.428 268.39L572.514 213.673L573.042 214.407L496.957 269.125Z" fill="#929497"/>
<path d="M505.507 277.86L504.791 277.307L562.112 203.158L562.828 203.712L505.507 277.86Z" fill="#929497"/>
<path d="M595.805 288.637L503.316 273.478L503.463 272.585L595.951 287.744L595.805 288.637Z" fill="#929497"/>
<path d="M503.264 285.583L503.149 284.686L596.119 272.801L596.234 273.698L503.264 285.583Z" fill="#929497"/>
<path d="M559.49 357.065L504.81 280.943L505.545 280.415L560.225 356.538L559.49 357.065Z" fill="#929497"/>
<path d="M570.387 346.848L496.219 289.546L496.773 288.83L570.94 346.132L570.387 346.848Z" fill="#929497"/>
<path d="M486.192 379.828L485.299 379.682L500.422 287.184L501.314 287.33L486.192 379.828Z" fill="#929497"/>
<path d="M500.154 380.166L488.232 287.205L489.129 287.09L501.051 380.051L500.154 380.166Z" fill="#929497"/>
<path d="M417.361 344.091L416.833 343.357L492.928 288.649L493.456 289.383L417.361 344.091Z" fill="#929497"/>
<path d="M427.734 354.689L427.019 354.136L484.349 279.997L485.065 280.55L427.734 354.689Z" fill="#929497"/>
<path d="M486.472 285.301L393.984 270.141L394.13 269.249L486.618 284.408L486.472 285.301Z" fill="#929497"/>
<path d="M393.926 285.256L393.812 284.358L486.781 272.474L486.896 273.371L393.926 285.256Z" fill="#929497"/>
<path d="M484.574 277.498L429.895 201.376L430.629 200.848L485.309 276.971L484.574 277.498Z" fill="#929497"/>
<path d="M493.248 269.148L419.08 211.845L419.633 211.129L493.801 268.432L493.248 269.148Z" fill="#929497"/>
<path d="M494.552 279.094L458.402 189.102L459.242 188.764L495.392 278.756L494.552 279.094Z" fill="#929497"/>
<path d="M495.279 279.101L494.447 278.745L532.551 189.565L533.383 189.92L495.279 279.101Z" fill="#929497"/>
<path d="M495.138 279.296L494.801 278.457L584.802 242.326L585.139 243.166L495.138 279.296Z" fill="#929497"/>
<path d="M584.02 317.528L494.829 279.452L495.185 278.62L584.376 316.696L584.02 317.528Z" fill="#929497"/>
<path d="M530.762 369.164L494.612 279.172L495.451 278.835L531.602 368.827L530.762 369.164Z" fill="#929497"/>
<path d="M457.25 368.27L456.419 367.915L494.523 278.734L495.355 279.089L457.25 368.27Z" fill="#929497"/>
<path d="M405.173 315.374L404.836 314.535L494.837 278.413L495.174 279.253L405.173 315.374Z" fill="#929497"/>
<path d="M494.69 279.449L405.499 241.374L405.854 240.542L495.045 278.617L494.69 279.449Z" fill="#929497"/>
<path d="M489.526 270.495L488.634 270.349L503.756 177.85L504.649 177.996L489.526 270.495Z" fill="#929497"/>
<path d="M500.682 270.835L488.76 177.874L489.657 177.759L501.58 270.72L500.682 270.835Z" fill="#929497"/>
<path d="M496.957 269.125L496.428 268.39L572.514 213.673L573.042 214.407L496.957 269.125Z" fill="#929497"/>
<path d="M505.507 277.86L504.791 277.307L562.112 203.158L562.828 203.712L505.507 277.86Z" fill="#929497"/>
<path d="M595.805 288.637L503.316 273.478L503.463 272.585L595.951 287.744L595.805 288.637Z" fill="#929497"/>
<path d="M503.264 285.583L503.149 284.686L596.119 272.801L596.234 273.698L503.264 285.583Z" fill="#929497"/>
<path d="M559.49 357.065L504.81 280.943L505.545 280.415L560.225 356.538L559.49 357.065Z" fill="#929497"/>
<path d="M570.387 346.848L496.219 289.546L496.773 288.83L570.94 346.132L570.387 346.848Z" fill="#929497"/>
<path d="M486.192 379.828L485.299 379.682L500.422 287.184L501.314 287.33L486.192 379.828Z" fill="#929497"/>
<path d="M500.154 380.166L488.232 287.205L489.129 287.09L501.051 380.051L500.154 380.166Z" fill="#929497"/>
<path d="M417.361 344.091L416.833 343.357L492.928 288.649L493.456 289.383L417.361 344.091Z" fill="#929497"/>
<path d="M427.734 354.689L427.019 354.136L484.349 279.997L485.065 280.55L427.734 354.689Z" fill="#929497"/>
<path d="M486.472 285.301L393.984 270.141L394.13 269.249L486.618 284.408L486.472 285.301Z" fill="#929497"/>
<path d="M393.926 285.256L393.812 284.358L486.781 272.474L486.896 273.371L393.926 285.256Z" fill="#929497"/>
<path d="M484.574 277.498L429.895 201.376L430.629 200.848L485.309 276.971L484.574 277.498Z" fill="#929497"/>
<path d="M493.248 269.148L419.08 211.845L419.633 211.129L493.801 268.432L493.248 269.148Z" fill="#929497"/>
<path d="M489.526 270.495L488.634 270.349L503.756 177.85L504.649 177.996L489.526 270.495Z" fill="#929497"/>
<path d="M500.682 270.835L488.76 177.874L489.657 177.759L501.58 270.72L500.682 270.835Z" fill="#929497"/>
<path d="M496.957 269.125L496.428 268.39L572.514 213.673L573.042 214.407L496.957 269.125Z" fill="#929497"/>
<path d="M505.507 277.86L504.791 277.307L562.112 203.158L562.828 203.712L505.507 277.86Z" fill="#929497"/>
<path d="M595.805 288.637L503.316 273.478L503.463 272.585L595.951 287.744L595.805 288.637Z" fill="#929497"/>
<path d="M503.264 285.583L503.149 284.686L596.119 272.801L596.234 273.698L503.264 285.583Z" fill="#929497"/>
<path d="M559.49 357.065L504.81 280.943L505.545 280.415L560.225 356.538L559.49 357.065Z" fill="#929497"/>
<path d="M570.387 346.848L496.219 289.546L496.773 288.83L570.94 346.132L570.387 346.848Z" fill="#929497"/>
<path d="M486.192 379.828L485.299 379.682L500.422 287.184L501.314 287.33L486.192 379.828Z" fill="#929497"/>
<path d="M500.154 380.166L488.232 287.205L489.129 287.09L501.051 380.051L500.154 380.166Z" fill="#929497"/>
<path d="M417.361 344.091L416.833 343.357L492.928 288.649L493.456 289.383L417.361 344.091Z" fill="#929497"/>
<path d="M427.734 354.689L427.019 354.136L484.349 279.997L485.065 280.55L427.734 354.689Z" fill="#929497"/>
<path d="M486.472 285.301L393.984 270.141L394.13 269.249L486.618 284.408L486.472 285.301Z" fill="#929497"/>
<path d="M393.926 285.256L393.812 284.358L486.781 272.474L486.896 273.371L393.926 285.256Z" fill="#929497"/>
<path d="M484.574 277.498L429.895 201.376L430.629 200.848L485.309 276.971L484.574 277.498Z" fill="#929497"/>
<path d="M493.248 269.148L419.08 211.845L419.633 211.129L493.801 268.432L493.248 269.148Z" fill="#929497"/>
<path d="M495.594 278.976L494.705 278.805L512.964 183.556L513.852 183.726L495.594 278.976Z" fill="#929497"/>
<path d="M495.174 279.32L494.666 278.571L574.948 224.162L575.455 224.911L495.174 279.32Z" fill="#929497"/>
<path d="M590.228 297.613L494.978 279.364L495.148 278.476L590.398 296.725L590.228 297.613Z" fill="#929497"/>
<path d="M549.097 359.505L494.648 279.252L495.397 278.744L549.846 358.997L549.097 359.505Z" fill="#929497"/>
<path d="M477.08 374.228L476.191 374.058L494.469 278.818L495.357 278.989L477.08 374.228Z" fill="#929497"/>
<path d="M415.029 333.843L414.521 333.094L494.803 278.685L495.31 279.434L415.029 333.843Z" fill="#929497"/>
<path d="M494.92 279.414L399.67 261.166L399.84 260.277L495.09 278.526L494.92 279.414Z" fill="#929497"/>
<path d="M494.629 279.106L440.181 198.853L440.929 198.345L495.378 278.598L494.629 279.106Z" fill="#929497"/>
<path d="M495.002 268.92L494.33 268.314L557.065 198.684L557.737 199.29L495.002 268.92Z" fill="#929497"/>
<path d="M504.987 275.544L504.17 275.155L544.436 190.52L545.253 190.909L504.987 275.544Z" fill="#929497"/>
<path d="M501.893 271.786L501.847 270.882L595.444 266.02L595.491 266.923L501.893 271.786Z" fill="#929497"/>
<path d="M504.508 283.643L504.204 282.791L592.5 251.365L592.804 252.217L504.508 283.643Z" fill="#929497"/>
<path d="M574.491 341.634L504.89 278.872L505.496 278.2L575.097 340.963L574.491 341.634Z" fill="#929497"/>
<path d="M582.927 329.238L498.282 289.01L498.67 288.192L583.316 328.421L582.927 329.238Z" fill="#929497"/>
<path d="M506.88 379.559L502.042 285.962L502.946 285.916L507.784 379.512L506.88 379.559Z" fill="#929497"/>
<path d="M521.736 376.732L490.329 288.427L491.182 288.124L522.589 376.429L521.736 376.732Z" fill="#929497"/>
<path d="M433.012 359.014L432.34 358.408L495.084 288.788L495.756 289.394L433.012 359.014Z" fill="#929497"/>
<path d="M445.487 367.185L444.67 366.797L484.936 282.161L485.753 282.55L445.487 367.185Z" fill="#929497"/>
<path d="M394.438 291.686L394.391 290.782L487.988 285.937L488.035 286.84L394.438 291.686Z" fill="#929497"/>
<path d="M397.576 306.393L397.273 305.541L485.56 274.096L485.863 274.948L397.576 306.393Z" fill="#929497"/>
<path d="M484.277 279.811L414.676 217.048L415.282 216.376L484.882 279.139L484.277 279.811Z" fill="#929497"/>
<path d="M491.113 269.659L406.468 229.43L406.856 228.613L491.501 268.842L491.113 269.659Z" fill="#929497"/>
<path d="M486.934 271.934L482.096 178.337L482.999 178.291L487.838 271.887L486.934 271.934Z" fill="#929497"/>
<path d="M498.921 269.776L467.514 181.471L468.366 181.168L499.773 269.472L498.921 269.776Z" fill="#929497"/>
<path d="M495.002 268.92L494.33 268.314L557.065 198.684L557.737 199.29L495.002 268.92Z" fill="#929497"/>
<path d="M504.987 275.544L504.17 275.155L544.436 190.52L545.253 190.909L504.987 275.544Z" fill="#929497"/>
<path d="M501.893 271.786L501.847 270.882L595.444 266.02L595.491 266.923L501.893 271.786Z" fill="#929497"/>
<path d="M504.508 283.643L504.204 282.791L592.5 251.365L592.804 252.217L504.508 283.643Z" fill="#929497"/>
<path d="M574.491 341.634L504.89 278.872L505.496 278.2L575.097 340.963L574.491 341.634Z" fill="#929497"/>
<path d="M582.927 329.238L498.282 289.01L498.67 288.192L583.316 328.421L582.927 329.238Z" fill="#929497"/>
<path d="M506.88 379.559L502.042 285.962L502.946 285.916L507.784 379.512L506.88 379.559Z" fill="#929497"/>
<path d="M521.736 376.732L490.329 288.427L491.182 288.124L522.589 376.429L521.736 376.732Z" fill="#929497"/>
<path d="M433.012 359.014L432.34 358.408L495.084 288.788L495.756 289.394L433.012 359.014Z" fill="#929497"/>
<path d="M445.487 367.185L444.67 366.797L484.936 282.161L485.753 282.55L445.487 367.185Z" fill="#929497"/>
<path d="M394.438 291.686L394.391 290.782L487.988 285.937L488.035 286.84L394.438 291.686Z" fill="#929497"/>
<path d="M397.576 306.393L397.273 305.541L485.56 274.096L485.863 274.948L397.576 306.393Z" fill="#929497"/>
<path d="M484.277 279.811L414.676 217.048L415.282 216.376L484.882 279.139L484.277 279.811Z" fill="#929497"/>
<path d="M491.113 269.659L406.468 229.43L406.856 228.613L491.501 268.842L491.113 269.659Z" fill="#929497"/>
<path d="M486.934 271.934L482.096 178.337L482.999 178.291L487.838 271.887L486.934 271.934Z" fill="#929497"/>
<path d="M498.921 269.776L467.514 181.471L468.366 181.168L499.773 269.472L498.921 269.776Z" fill="#929497"/>
<path d="M495.594 278.976L494.705 278.805L512.964 183.556L513.852 183.726L495.594 278.976Z" fill="#929497"/>
<path d="M495.174 279.32L494.666 278.571L574.948 224.162L575.455 224.911L495.174 279.32Z" fill="#929497"/>
<path d="M590.228 297.613L494.978 279.364L495.148 278.476L590.398 296.725L590.228 297.613Z" fill="#929497"/>
<path d="M549.097 359.505L494.648 279.252L495.397 278.744L549.846 358.997L549.097 359.505Z" fill="#929497"/>
<path d="M477.08 374.228L476.191 374.058L494.469 278.818L495.357 278.989L477.08 374.228Z" fill="#929497"/>
<path d="M415.029 333.843L414.521 333.094L494.803 278.685L495.31 279.434L415.029 333.843Z" fill="#929497"/>
<path d="M494.92 279.414L399.67 261.166L399.84 260.277L495.09 278.526L494.92 279.414Z" fill="#929497"/>
<path d="M494.629 279.106L440.181 198.853L440.929 198.345L495.378 278.598L494.629 279.106Z" fill="#929497"/>
<path d="M495.002 268.92L494.33 268.314L557.065 198.684L557.737 199.29L495.002 268.92Z" fill="#929497"/>
<path d="M504.987 275.544L504.17 275.155L544.436 190.52L545.253 190.909L504.987 275.544Z" fill="#929497"/>
<path d="M501.893 271.786L501.847 270.882L595.444 266.02L595.491 266.923L501.893 271.786Z" fill="#929497"/>
<path d="M504.508 283.643L504.204 282.791L592.5 251.365L592.804 252.217L504.508 283.643Z" fill="#929497"/>
<path d="M574.491 341.634L504.89 278.872L505.496 278.2L575.097 340.963L574.491 341.634Z" fill="#929497"/>
<path d="M582.927 329.238L498.282 289.01L498.67 288.192L583.316 328.421L582.927 329.238Z" fill="#929497"/>
<path d="M506.88 379.559L502.042 285.962L502.946 285.916L507.784 379.512L506.88 379.559Z" fill="#929497"/>
<path d="M521.736 376.732L490.329 288.427L491.182 288.124L522.589 376.429L521.736 376.732Z" fill="#929497"/>
<path d="M433.012 359.014L432.34 358.408L495.084 288.788L495.756 289.394L433.012 359.014Z" fill="#929497"/>
<path d="M445.487 367.185L444.67 366.797L484.936 282.161L485.753 282.55L445.487 367.185Z" fill="#929497"/>
<path d="M394.438 291.686L394.391 290.782L487.988 285.937L488.035 286.84L394.438 291.686Z" fill="#929497"/>
<path d="M397.576 306.393L397.273 305.541L485.56 274.096L485.863 274.948L397.576 306.393Z" fill="#929497"/>
<path d="M484.277 279.811L414.676 217.048L415.282 216.376L484.882 279.139L484.277 279.811Z" fill="#929497"/>
<path d="M491.113 269.659L406.468 229.43L406.856 228.613L491.501 268.842L491.113 269.659Z" fill="#929497"/>
<path d="M486.934 271.934L482.096 178.337L482.999 178.291L487.838 271.887L486.934 271.934Z" fill="#929497"/>
<path d="M498.921 269.776L467.514 181.471L468.366 181.168L499.773 269.472L498.921 269.776Z" fill="#929497"/>
<path d="M495.002 268.92L494.33 268.314L557.065 198.684L557.737 199.29L495.002 268.92Z" fill="#929497"/>
<path d="M504.987 275.544L504.17 275.155L544.436 190.52L545.253 190.909L504.987 275.544Z" fill="#929497"/>
<path d="M501.893 271.786L501.847 270.882L595.444 266.02L595.491 266.923L501.893 271.786Z" fill="#929497"/>
<path d="M504.508 283.643L504.204 282.791L592.5 251.365L592.804 252.217L504.508 283.643Z" fill="#929497"/>
<path d="M574.491 341.634L504.89 278.872L505.496 278.2L575.097 340.963L574.491 341.634Z" fill="#929497"/>
<path d="M582.927 329.238L498.282 289.01L498.67 288.192L583.316 328.421L582.927 329.238Z" fill="#929497"/>
<path d="M506.88 379.559L502.042 285.962L502.946 285.916L507.784 379.512L506.88 379.559Z" fill="#929497"/>
<path d="M521.736 376.732L490.329 288.427L491.182 288.124L522.589 376.429L521.736 376.732Z" fill="#929497"/>
<path d="M433.012 359.014L432.34 358.408L495.084 288.788L495.756 289.394L433.012 359.014Z" fill="#929497"/>
<path d="M445.487 367.185L444.67 366.797L484.936 282.161L485.753 282.55L445.487 367.185Z" fill="#929497"/>
<path d="M394.438 291.686L394.391 290.782L487.988 285.937L488.035 286.84L394.438 291.686Z" fill="#929497"/>
<path d="M397.576 306.393L397.273 305.541L485.56 274.096L485.863 274.948L397.576 306.393Z" fill="#929497"/>
<path d="M484.277 279.811L414.676 217.048L415.282 216.376L484.882 279.139L484.277 279.811Z" fill="#929497"/>
<path d="M491.113 269.659L406.468 229.43L406.856 228.613L491.501 268.842L491.113 269.659Z" fill="#929497"/>
<path d="M486.934 271.934L482.096 178.337L482.999 178.291L487.838 271.887L486.934 271.934Z" fill="#929497"/>
<path d="M498.921 269.776L467.514 181.471L468.366 181.168L499.773 269.472L498.921 269.776Z" fill="#929497"/>
<path d="M601.166 280.851C602.186 222.419 555.442 173.83 496.829 172.807C438.397 171.787 389.808 218.531 388.784 277.144C387.764 335.576 434.509 384.166 493.122 385.189C551.738 386.031 600.146 339.283 601.166 280.851ZM591.94 280.69C591.005 334.238 546.831 376.897 493.283 375.963C439.735 375.028 397.076 330.853 398.011 277.305C398.945 223.757 443.12 181.098 496.668 182.033C550.216 182.967 592.875 227.142 591.94 280.69Z" fill="#292C2D"/>
<path d="M596.1 280.763C595.124 336.662 549.108 381.099 493.209 380.123C437.309 379.148 392.872 333.132 393.848 277.232C394.824 221.333 440.84 176.896 496.739 177.872C552.642 178.667 597.075 224.863 596.1 280.763ZM591.939 280.69C592.873 227.142 550.214 182.967 496.666 182.033C443.119 181.098 398.944 223.757 398.009 277.305C397.074 330.853 439.734 375.028 493.281 375.962C546.829 376.897 591.007 334.057 591.939 280.69Z" fill="#353435"/>
<path d="M494.712 294.013C486.419 293.869 479.814 287.029 479.959 278.736C480.103 270.444 486.943 263.838 495.236 263.983C503.528 264.128 510.134 270.968 509.989 279.26C509.844 287.553 503.004 294.158 494.712 294.013Z" fill="#A6A8AB"/>
<path d="M494.858 285.691C491.162 285.626 488.217 282.577 488.282 278.881C488.346 275.184 491.395 272.239 495.092 272.304C498.789 272.369 501.733 275.418 501.669 279.114C501.604 282.811 498.555 285.755 494.858 285.691Z" fill="#6D6E70"/>
<path d="M494.922 282.073C493.223 282.043 491.87 280.642 491.9 278.944C491.93 277.245 493.331 275.892 495.029 275.922C496.728 275.952 498.08 277.353 498.051 279.051C498.021 280.75 496.62 282.102 494.922 282.073Z" fill="#F1F1F2"/>
</g>
</g>
</g>
<path d="M494.97 283.521C492.98 283.521 491.171 282.255 490.628 280.265C489.542 276.646 463.488 192.332 461.679 185.094C459.869 177.857 424.588 44.6911 424.226 43.2436C423.502 40.8915 424.949 38.3585 427.482 37.6347C430.015 36.911 432.368 38.3585 433.091 40.8915C434.539 46.3195 468.735 175.505 470.544 182.742C472.354 189.799 498.951 276.646 499.313 277.551C500.036 279.903 498.77 282.436 496.237 283.341C495.875 283.521 495.332 283.521 494.97 283.521Z" fill="#70E5D9"/>
<path d="M313.856 291.482C307.885 291.482 287.982 290.758 217.781 287.501C170.557 285.149 123.334 282.797 122.791 282.797C120.258 282.616 118.268 280.445 118.449 277.912C118.63 275.379 120.801 273.389 123.334 273.57C194.078 277.188 299.562 282.254 313.675 282.254C323.807 270.675 395.094 171.343 442.317 105.122C443.765 103.131 446.66 102.589 448.65 104.036C450.64 105.484 451.183 108.378 449.736 110.369C449.374 110.731 417.71 155.421 385.866 199.568C367.23 225.442 352.213 246.249 341.176 261.085C319.464 290.396 318.741 290.577 316.75 291.12C316.389 291.482 316.027 291.482 313.856 291.482Z" fill="#70E5D9"/>
<path d="M315.665 291.482C314.037 291.482 312.408 290.577 311.504 288.949L221.761 110.007C220.676 107.836 221.58 104.941 223.751 103.855C225.923 102.769 228.818 103.674 229.903 105.845L319.645 284.787C320.731 286.958 319.826 289.853 317.655 290.939C316.932 291.301 316.389 291.482 315.665 291.482Z" fill="#70E5D9"/>
<path d="M298.116 223.632C297.211 223.632 296.307 223.632 295.402 223.632C285.812 222.908 277.852 218.566 272.424 210.786C270.976 208.615 271.519 205.901 273.509 204.453C275.68 203.006 278.394 203.548 279.842 205.539C283.641 210.967 289.069 214.043 295.945 214.404C312.048 215.49 331.95 203.368 343.349 190.702C361.261 170.981 433.453 75.9913 434.177 74.9057C435.624 72.9155 438.519 72.5536 440.51 74.0011C442.5 75.4485 442.862 78.3435 441.414 80.3337C438.519 84.3142 368.318 176.59 350.044 196.673C338.283 210.062 317.295 223.632 298.116 223.632Z" fill="#70E5D9"/>
<path d="M418.434 149.27C417.71 149.27 416.806 148.908 416.263 148.184L399.074 127.196C398.169 126.11 398.35 124.301 399.436 123.396C400.522 122.492 402.331 122.672 403.236 123.758L420.424 144.746C421.329 145.832 421.148 147.641 420.062 148.546C419.7 149.089 419.158 149.27 418.434 149.27Z" fill="#70E5D9"/>
<path d="M381.885 200.111C381.162 200.111 380.438 199.749 379.895 199.206L360.174 177.132C359.088 176.047 359.269 174.237 360.354 173.333C361.44 172.247 363.249 172.428 364.154 173.514L383.876 195.587C384.961 196.673 384.78 198.482 383.695 199.387C383.333 199.93 382.609 200.111 381.885 200.111Z" fill="#70E5D9"/>
<path d="M123.877 267.968L123.589 264.361L315.485 249.044L315.773 252.651L123.877 267.968Z" fill="#4A5254"/>
<path d="M315.418 320.433L123.438 292.813L123.953 289.232L315.934 316.851L315.418 320.433Z" fill="#4A5254"/>
<path d="M351.309 284.968C351.309 304.69 335.387 320.612 315.666 320.612C295.944 320.612 280.022 304.69 280.022 284.968C280.022 265.247 295.944 249.325 315.666 249.325C335.387 249.325 351.309 265.247 351.309 284.968ZM319.103 256.562C319.103 256.743 317.294 265.428 323.265 274.112C333.216 276.645 340.634 272.303 341.177 271.941C337.016 263.799 328.693 257.828 319.103 256.562ZM335.568 277.912C335.206 277.007 334.121 276.464 333.216 276.826C332.311 277.188 331.769 278.274 332.13 279.178C332.492 280.083 333.578 280.626 334.483 280.264C335.387 279.902 335.93 278.817 335.568 277.912ZM326.702 298.538C325.979 299.262 325.798 300.347 326.522 301.071C327.245 301.795 328.331 301.976 329.055 301.252C329.778 300.528 329.959 299.443 329.236 298.719C328.693 297.995 327.607 297.814 326.702 298.538ZM315.666 263.799C314.58 263.799 313.856 264.704 313.856 265.608C313.856 266.694 314.761 267.418 315.666 267.418C316.57 267.418 317.475 266.513 317.475 265.608C317.475 264.704 316.57 263.799 315.666 263.799ZM318.922 256.562C317.837 256.381 316.751 256.381 315.666 256.381L318.922 256.562ZM306.8 284.968C306.8 289.853 310.78 293.834 315.666 293.834C320.551 293.834 324.531 289.853 324.531 284.968C324.531 280.083 320.551 276.103 315.666 276.103C310.78 276.103 306.8 280.083 306.8 284.968ZM290.154 272.122C290.697 272.484 298.115 276.826 308.247 274.112C314.218 265.247 312.409 256.562 312.409 256.562L315.847 256.381C304.448 256.381 294.859 262.895 290.154 272.122ZM304.267 298.538C303.543 297.814 302.277 297.995 301.734 298.719C301.01 299.443 301.191 300.709 301.915 301.252C302.639 301.976 303.905 301.795 304.448 301.071C305.171 300.347 305.172 299.262 304.267 298.538ZM297.934 276.826C297.03 276.464 295.944 277.007 295.582 277.912C295.22 278.817 295.763 279.902 296.668 280.264C297.572 280.626 298.658 280.083 299.02 279.178C299.382 278.093 298.839 277.188 297.934 276.826ZM294.858 304.509C295.401 304.147 301.915 298.719 303 288.406C297.03 280.083 288.526 278.636 287.983 278.455C287.44 280.445 287.259 282.616 287.259 284.968C287.078 292.567 289.973 299.443 294.858 304.509ZM299.02 308.308L298.115 307.585C298.477 307.947 298.839 308.128 299.02 308.308ZM315.666 313.555C321.455 313.555 326.883 311.927 331.226 308.851C331.045 308.489 326.522 300.347 315.666 297.633C304.629 300.167 300.286 308.489 300.106 308.851C304.448 311.927 309.876 313.555 315.666 313.555ZM333.035 307.585L332.13 308.308C332.492 308.128 332.673 307.947 333.035 307.585ZM344.253 284.968C344.253 282.797 344.072 280.626 343.529 278.455C342.806 278.636 334.483 279.902 328.512 288.406C329.597 298.719 336.111 304.147 336.654 304.509C341.358 299.443 344.253 292.567 344.253 284.968Z" fill="#A6A8AB"/>
<path d="M122.972 293.654C114.678 293.654 107.955 286.93 107.955 278.636C107.955 270.342 114.678 263.619 122.972 263.619C131.266 263.619 137.99 270.342 137.99 278.636C137.99 286.93 131.266 293.654 122.972 293.654Z" fill="#292C2D"/>
<path d="M122.972 286.416C118.675 286.416 115.191 282.933 115.191 278.636C115.191 274.339 118.675 270.856 122.972 270.856C127.268 270.856 130.751 274.339 130.751 278.636C130.751 282.933 127.268 286.416 122.972 286.416Z" fill="white"/>
<path d="M122.97 282.254C120.971 282.254 119.351 280.634 119.351 278.636C119.351 276.637 120.971 275.017 122.97 275.017C124.969 275.017 126.589 276.637 126.589 278.636C126.589 280.634 124.969 282.254 122.97 282.254Z" fill="#A6A9AD"/>
<path d="M123.152 280.987C122.609 280.987 122.067 280.806 121.524 280.445C120.257 279.54 120.077 277.911 120.981 276.645L232.435 122.853C233.34 121.586 234.968 121.405 236.235 122.31C237.501 123.214 237.682 124.843 236.778 126.109L125.323 279.902C124.781 280.625 123.876 280.987 123.152 280.987Z" fill="#70E5D9"/>
<path d="M352.213 219.653H341.176C340.091 218.024 338.282 216.939 336.291 216.939C334.301 216.939 332.492 218.024 331.406 219.653H320.369C319.284 219.653 318.379 220.557 318.379 221.643V223.995C318.379 225.081 319.284 225.985 320.369 225.985H331.406C332.492 227.614 334.301 228.699 336.291 228.699C338.282 228.699 340.091 227.614 341.176 225.985H352.213C353.299 225.985 354.203 225.081 354.203 223.995V221.643C354.203 220.557 353.299 219.653 352.213 219.653Z" fill="#60C6BA"/>
<path d="M336.11 225.443C334.612 225.443 333.396 224.228 333.396 222.729C333.396 221.23 334.612 220.015 336.11 220.015C337.609 220.015 338.824 221.23 338.824 222.729C338.824 224.228 337.609 225.443 336.11 225.443Z" fill="white"/>
<path d="M291.6 350.287C291.238 350.287 291.057 350.287 290.696 350.106C289.61 349.563 288.886 348.297 289.429 347.211L313.493 286.056C314.036 284.971 315.303 284.247 316.388 284.79C317.655 285.332 318.197 286.599 317.655 287.685L293.59 348.84C293.41 349.744 292.505 350.287 291.6 350.287Z" fill="#E6E7E8"/>
<path d="M315.664 290.759C312.766 290.759 310.417 288.41 310.417 285.512C310.417 282.614 312.766 280.265 315.664 280.265C318.562 280.265 320.911 282.614 320.911 285.512C320.911 288.41 318.562 290.759 315.664 290.759Z" fill="#E6E7E8"/>
<path d="M315.662 287.502C314.563 287.502 313.672 286.611 313.672 285.512C313.672 284.413 314.563 283.522 315.662 283.522C316.761 283.522 317.652 284.413 317.652 285.512C317.652 286.611 316.761 287.502 315.662 287.502Z" fill="white"/>
<path d="M307.704 344.859H296.667C295.581 343.23 293.772 342.145 291.782 342.145C289.791 342.145 287.982 343.23 286.896 344.859H275.86C274.774 344.859 273.869 345.763 273.869 346.849V349.201C273.869 350.287 274.774 351.191 275.86 351.191H286.896C287.982 352.82 289.791 353.905 291.782 353.905C293.772 353.905 295.581 352.82 296.667 351.191H307.704C308.789 351.191 309.694 350.287 309.694 349.201V346.849C309.694 345.763 308.789 344.859 307.704 344.859Z" fill="#60C6BA"/>
<path d="M291.6 350.649C290.101 350.649 288.886 349.433 288.886 347.935C288.886 346.436 290.101 345.221 291.6 345.221C293.099 345.221 294.314 346.436 294.314 347.935C294.314 349.433 293.099 350.649 291.6 350.649Z" fill="white"/>
<path d="M233.339 111.274H220.493C217.056 111.274 214.161 108.379 214.161 104.941C214.161 101.503 217.056 98.6084 220.493 98.6084H233.339C236.777 98.6084 239.672 101.503 239.672 104.941C239.672 108.379 236.777 111.274 233.339 111.274Z" fill="#A6A9AD"/>
<path d="M434.358 46.6812L433.996 45.2337L428.025 24.2456L420.426 26.0549L426.216 47.7668L434.358 46.6812Z" fill="#70E5D9"/>
<path d="M426.216 30.7579C424.587 30.7579 419.159 30.0342 415.179 20.4448C411.741 12.3029 405.951 9.58887 405.951 9.58887C403.78 8.68421 402.875 6.33209 403.78 4.16091C404.685 1.98972 407.037 1.08507 409.208 1.98973C409.57 2.17066 418.074 5.97022 422.778 17.188C424.406 20.9876 426.034 22.2541 426.577 22.4351C428.568 22.616 430.377 24.2444 430.377 26.2346C430.558 28.5867 428.748 30.3961 426.577 30.577C426.396 30.7579 426.216 30.7579 426.216 30.7579Z" fill="#70E5D9"/>
<path d="M407.4 11.5797C404.203 11.5797 401.611 8.98746 401.611 5.78982C401.611 2.59219 404.203 0 407.4 0C410.598 0 413.19 2.59219 413.19 5.78982C413.19 8.98746 410.598 11.5797 407.4 11.5797Z" fill="#70E5D9"/>
<path d="M405.953 1.26691H387.136V10.4945H405.953C408.486 10.4945 410.476 8.5042 410.476 5.97115C410.476 3.4381 408.486 1.26691 405.953 1.26691Z" fill="#292C2D"/>
<path d="M387.135 10.3133C384.637 10.3133 382.612 8.28818 382.612 5.79003C382.612 3.29188 384.637 1.26672 387.135 1.26672C389.633 1.26672 391.658 3.29188 391.658 5.79003C391.658 8.28818 389.633 10.3133 387.135 10.3133Z" fill="#4A5254"/>
<path d="M387.136 9.22705C385.237 9.22705 383.698 7.68792 383.698 5.78932C383.698 3.89073 385.237 2.35162 387.136 2.35162C389.034 2.35162 390.573 3.89073 390.573 5.78932C390.573 7.68792 389.034 9.22705 387.136 9.22705Z" fill="#4A5254"/>
<path d="M434.898 51.2037L428.385 52.832C425.128 53.5558 421.69 51.5655 420.785 48.1278C420.062 44.871 422.052 41.4333 425.49 40.5287L432.003 38.9003C435.26 38.1765 438.698 40.1668 439.602 43.6045C440.326 47.0422 438.336 50.299 434.898 51.2037Z" fill="#A6A9AD"/>
<path d="M208.555 158.858C207.469 158.858 206.564 158.315 206.022 157.411C203.489 153.43 195.708 142.212 190.823 138.413C186.119 134.794 176.53 134.975 170.921 135.156C169.835 135.156 168.931 135.156 168.207 135.156H35.0408C33.4124 135.156 31.9648 133.708 31.9648 132.08C31.9648 130.452 33.4124 129.004 35.0408 129.004H168.207C168.931 129.004 169.835 129.004 170.74 129.004C177.253 128.823 188.109 128.642 194.623 133.527C201.498 138.775 210.907 153.611 211.269 154.154C212.173 155.601 211.811 157.411 210.364 158.315C209.64 158.858 209.097 158.858 208.555 158.858Z" fill="#70E5D9"/>
<path d="M122.972 281.712C121.887 281.712 120.801 280.988 120.258 279.903L50.2375 133.348C49.5138 131.9 50.2376 129.91 51.685 129.186C53.1325 128.462 55.1228 129.186 55.8466 130.634L125.867 277.189C126.591 278.636 125.867 280.626 124.42 281.35C123.877 281.712 123.515 281.712 122.972 281.712Z" fill="#70E5D9"/>
<path d="M201.679 68.3926C204.935 66.0405 214.706 64.774 222.305 68.3926C229.904 72.0113 265.729 74.9062 272.604 76.7155C279.66 78.5249 282.555 84.8575 277.489 85.7621C272.242 86.6668 250.53 84.8575 237.141 85.7621C223.752 86.6668 200.774 86.8477 199.146 79.7914C197.698 72.735 201.679 68.3926 201.679 68.3926Z" fill="#292C2D"/>
<path d="M497.865 84.4964H442.681C441.776 84.4964 441.052 83.7727 441.052 82.868C441.052 81.9634 441.776 81.2397 442.681 81.2397H497.865C498.77 81.2397 499.493 81.9634 499.493 82.868C499.493 83.7727 498.77 84.4964 497.865 84.4964Z" fill="#A6A9AD"/>
<path d="M490.808 128.463H452.269C451.365 128.463 450.641 127.739 450.641 126.834C450.641 125.93 451.365 125.206 452.269 125.206H490.808C491.713 125.206 492.436 125.93 492.436 126.834C492.436 127.739 491.713 128.463 490.808 128.463Z" fill="#A6A9AD"/>
<path d="M184.85 125.748H67.0629C65.9773 125.748 65.2535 124.843 65.2535 123.939V118.149C65.2535 117.063 66.1582 116.339 67.0629 116.339H184.85C185.935 116.339 186.659 117.244 186.659 118.149V123.939C186.84 124.843 185.935 125.748 184.85 125.748Z" fill="#292C2D"/>
</svg>
