<svg width="624" height="371" viewBox="0 0 624 371" fill="none" xmlns="http://www.w3.org/2000/svg">
<path d="M442.809 151.789L441.811 151.623C452.956 108.207 444.639 74.4392 434.991 52.9809C434.991 64.9576 429.501 77.9324 418.689 91.4062L417.857 90.7408C429.169 76.6016 434.658 63.1278 433.993 50.8184C433.826 50.4857 433.826 50.3193 433.66 49.9866C422.681 27.0312 408.708 14.5555 408.542 14.3892L405.714 11.894L409.041 13.5575C409.208 13.7238 429.668 24.0371 434.159 44.6637C434.658 46.6599 434.824 48.4896 434.991 50.4857C445.138 71.9441 454.453 106.71 442.809 151.789ZM412.202 16.5516C416.859 21.3756 426.008 32.0216 433.826 47.9906C433.66 46.9925 433.494 45.9944 433.327 44.83C430 29.8591 418.19 20.3775 412.202 16.5516Z" fill="#A6A9AD"/>
<mask id="mask0" mask-type="alpha" maskUnits="userSpaceOnUse" x="374" y="121" width="250" height="250">
<circle cx="499" cy="246" r="125" fill="#C4C4C4"/>
</mask>
<g mask="url(#mask0)">
<mask id="mask1" mask-type="alpha" maskUnits="userSpaceOnUse" x="374" y="121" width="250" height="250">
<circle cx="499" cy="246" r="125" fill="#C4C4C4"/>
</mask>
<g mask="url(#mask1)">
<path d="M508.319 249.458L539.132 338.951L539.604 338.789L508.791 249.295L508.319 249.458Z" fill="#A6A9AD"/>
<path d="M489.715 250.952L521.936 344.535L522.408 344.372L490.187 250.789L489.715 250.952Z" fill="#A6A9AD"/>
<path d="M507.801 252.568L506.35 346.874L506.849 346.881L508.3 252.575L507.801 252.568Z" fill="#A6A9AD"/>
<path d="M489.729 247.514L488.206 346.477L488.705 346.485L490.228 247.522L489.729 247.514Z" fill="#A6A9AD"/>
<path d="M472.568 343.563L473.034 343.741L506.714 255.464L506.247 255.286L472.568 343.563Z" fill="#A6A9AD"/>
<path d="M455.388 337.257L455.855 337.435L491.254 244.65L490.787 244.472L455.388 337.257Z" fill="#A6A9AD"/>
<path d="M441.91 329.201L442.288 329.526L504.266 257.556L503.888 257.23L441.91 329.201Z" fill="#A6A9AD"/>
<path d="M427.803 317.693L428.182 318.019L493.307 242.393L492.929 242.068L427.803 317.693Z" fill="#A6A9AD"/>
<path d="M417.421 305.39L417.667 305.824L500.912 258.719L500.666 258.285L417.421 305.39Z" fill="#A6A9AD"/>
<path d="M408.382 289.613L408.628 290.047L496.071 240.567L495.826 240.132L408.382 289.613Z" fill="#A6A9AD"/>
<path d="M402.097 274.401L402.18 274.893L497.633 258.752L497.55 258.26L402.097 274.401Z" fill="#A6A9AD"/>
<path d="M398.681 256.527L398.764 257.02L499.137 240.047L499.054 239.555L398.681 256.527Z" fill="#A6A9AD"/>
<path d="M398.257 240.165L494.659 257.634L494.748 257.143L398.346 239.674L398.257 240.165Z" fill="#A6A9AD"/>
<path d="M401.13 222.168L502.442 240.527L502.531 240.036L401.219 221.677L401.13 222.168Z" fill="#A6A9AD"/>
<path d="M407.035 205.961L492.049 255.338L492.3 254.907L407.285 205.529L407.035 205.961Z" fill="#A6A9AD"/>
<path d="M415.296 189.79L505.201 242.008L505.452 241.577L415.546 189.359L415.296 189.79Z" fill="#A6A9AD"/>
<path d="M426.207 176.126L490.325 252.61L490.707 252.29L426.59 175.806L426.207 176.126Z" fill="#A6A9AD"/>
<path d="M439.942 164.175L507.266 244.483L507.648 244.163L440.325 163.854L439.942 164.175Z" fill="#A6A9AD"/>
<path d="M455.198 154.957L489.716 249.314L490.185 249.143L455.666 154.786L455.198 154.957Z" fill="#A6A9AD"/>
<path d="M472.292 148.646L508.468 247.533L508.936 247.361L472.761 148.474L472.292 148.646Z" fill="#A6A9AD"/>
<path d="M490.034 145.188L490.415 245.994L490.914 245.992L490.533 145.186L490.034 145.188Z" fill="#A6A9AD"/>
<path d="M508.18 145.376L508.578 250.673L509.077 250.671L508.679 145.374L508.18 145.376Z" fill="#A6A9AD"/>
<path d="M491.934 243.326L492.404 243.494L526.287 148.737L525.817 148.569L491.934 243.326Z" fill="#A6A9AD"/>
<path d="M507.367 253.75L507.836 253.918L543.176 155.089L542.706 154.921L507.367 253.75Z" fill="#A6A9AD"/>
<path d="M494.488 241.226L494.874 241.542L558.381 164.12L557.995 163.803L494.488 241.226Z" fill="#A6A9AD"/>
<path d="M505.657 256.339L506.043 256.655L572.082 176.146L571.696 175.83L505.657 256.339Z" fill="#A6A9AD"/>
<path d="M497.558 239.801L497.811 240.23L583.364 189.798L583.11 189.368L497.558 239.801Z" fill="#A6A9AD"/>
<path d="M502.756 257.888L503.009 258.318L592.001 205.858L591.748 205.428L502.756 257.888Z" fill="#A6A9AD"/>
<path d="M500.693 239.795L500.786 240.286L597.374 221.992L597.281 221.502L500.693 239.795Z" fill="#A6A9AD"/>
<path d="M499.592 258.527L499.685 259.017L600.195 239.981L600.102 239.49L499.592 258.527Z" fill="#A6A9AD"/>
<path d="M503.976 241.306L599.874 256.796L599.954 256.303L504.056 240.813L503.976 241.306Z" fill="#A6A9AD"/>
<path d="M496.385 258.501L596.388 274.654L596.467 274.162L496.464 258.009L496.385 258.501Z" fill="#A6A9AD"/>
<path d="M506.207 243.475L590.109 290.076L590.352 289.64L506.45 243.039L506.207 243.475Z" fill="#A6A9AD"/>
<path d="M493.527 257.052L581.064 305.682L581.306 305.246L493.769 256.616L493.527 257.052Z" fill="#A6A9AD"/>
<path d="M507.792 246.08L570.308 317.811L570.685 317.483L508.168 245.752L507.792 246.08Z" fill="#A6A9AD"/>
<path d="M491.07 254.525L556.428 329.516L556.804 329.188L491.446 254.197L491.07 254.525Z" fill="#A6A9AD"/>
<path d="M497.232 368.349C564.757 369.527 620.597 315.767 621.778 248.075C622.957 180.55 569.196 124.71 501.505 123.528C433.98 122.35 378.14 176.11 376.958 243.802C375.777 311.493 429.54 367.167 497.232 368.349ZM501.241 138.663C560.616 139.7 607.843 188.605 606.807 247.98C605.77 307.356 556.865 354.583 497.49 353.546C438.114 352.51 390.887 303.605 391.924 244.229C392.96 184.854 441.865 137.627 501.241 138.663Z" fill="#292C2D"/>
<path d="M497.493 353.38C556.869 354.417 605.774 307.19 606.81 247.814C607.846 188.439 560.619 139.534 501.244 138.497C441.868 137.461 392.963 184.688 391.927 244.063C390.891 303.439 438.117 352.344 497.493 353.38ZM501.131 144.984C557.013 145.959 601.462 191.987 600.487 247.87C599.512 303.753 553.483 348.202 497.6 347.227C441.718 346.251 397.269 300.223 398.244 244.34C399.22 188.457 445.248 144.008 501.131 144.984Z" fill="#A6A9AD"/>
</g>
</g>
<path d="M124.43 353.729C64.8791 353.729 16.6395 305.323 16.6395 245.939C16.6395 186.554 65.0455 138.148 124.43 138.148C183.981 138.148 232.221 186.554 232.221 245.939C232.221 305.323 183.981 353.729 124.43 353.729ZM124.43 138.98C65.5445 138.98 17.4712 186.887 17.4712 245.939C17.4712 304.991 65.3782 352.897 124.43 352.897C183.482 352.897 231.389 304.991 231.389 245.939C231.389 186.887 183.482 138.98 124.43 138.98Z" fill="#A6A9AD"/>
<mask id="mask2" mask-type="alpha" maskUnits="userSpaceOnUse" x="0" y="122" width="248" height="248">
<circle cx="124" cy="246" r="124" fill="#C4C4C4"/>
</mask>
<g mask="url(#mask2)">
<mask id="mask3" mask-type="alpha" maskUnits="userSpaceOnUse" x="0" y="122" width="248" height="248">
<circle cx="124" cy="246" r="124" fill="#C4C4C4"/>
</mask>
<g mask="url(#mask3)">
<path d="M135.702 244.259L167.706 337.213L168.178 337.05L136.174 244.097L135.702 244.259Z" fill="#A6A9AD"/>
<path d="M117.012 246.03L150.641 343.702L151.113 343.539L117.484 245.867L117.012 246.03Z" fill="#A6A9AD"/>
<path d="M135.13 247.515L133.617 345.812L134.116 345.82L135.629 247.523L135.13 247.515Z" fill="#A6A9AD"/>
<path d="M116.971 242.707L115.383 345.994L115.882 346.002L117.47 242.715L116.971 242.707Z" fill="#A6A9AD"/>
<path d="M97.8932 343.546L98.3595 343.724L133.996 250.317L133.529 250.139L97.8932 343.546Z" fill="#A6A9AD"/>
<path d="M80.8752 337.304L81.3415 337.482L118.697 239.568L118.231 239.391L80.8752 337.304Z" fill="#A6A9AD"/>
<path d="M65.5076 328.308L65.8857 328.633L131.337 252.629L130.959 252.304L65.5076 328.308Z" fill="#A6A9AD"/>
<path d="M51.8004 316.445L52.1785 316.771L120.669 237.238L120.291 236.912L51.8004 316.445Z" fill="#A6A9AD"/>
<path d="M40.5091 302.604L40.7548 303.039L128.198 253.558L127.952 253.124L40.5091 302.604Z" fill="#A6A9AD"/>
<path d="M31.6981 286.728L31.9438 287.163L123.296 235.47L123.05 235.036L31.6981 286.728Z" fill="#A6A9AD"/>
<path d="M26.0711 269.786L26.1543 270.278L124.887 253.583L124.804 253.091L26.0711 269.786Z" fill="#A6A9AD"/>
<path d="M23.3367 251.888L23.4199 252.38L126.417 234.964L126.334 234.472L23.3367 251.888Z" fill="#A6A9AD"/>
<path d="M23.7692 234.686L121.809 252.452L121.898 251.961L23.8582 234.195L23.7692 234.686Z" fill="#A6A9AD"/>
<path d="M28.0813 217.026L129.721 235.444L129.81 234.953L28.1703 216.535L28.0813 217.026Z" fill="#A6A9AD"/>
<path d="M34.3046 201.014L119.319 250.391L119.57 249.96L34.5553 200.582L34.3046 201.014Z" fill="#A6A9AD"/>
<path d="M43.5359 185.283L132.434 236.916L132.685 236.484L43.7866 184.851L43.5359 185.283Z" fill="#A6A9AD"/>
<path d="M54.8072 172.625L117.643 247.58L118.025 247.259L55.1896 172.304L54.8072 172.625Z" fill="#A6A9AD"/>
<path d="M69.1741 161.427L134.574 239.441L134.957 239.121L69.5565 161.107L69.1741 161.427Z" fill="#A6A9AD"/>
<path d="M83.8542 153.341L117.115 244.261L117.584 244.089L84.3229 153.169L83.8542 153.341Z" fill="#A6A9AD"/>
<path d="M101.135 147.561L135.824 242.387L136.293 242.215L101.603 147.39L101.135 147.561Z" fill="#A6A9AD"/>
<path d="M117.182 145.214L117.544 241.029L118.043 241.027L117.681 145.212L117.182 145.214Z" fill="#A6A9AD"/>
<path d="M135.526 145.431L135.905 245.571L136.404 245.569L136.025 145.429L135.526 145.431Z" fill="#A6A9AD"/>
<path d="M119.142 238.145L119.612 238.313L151.647 148.725L151.177 148.557L119.142 238.145Z" fill="#A6A9AD"/>
<path d="M134.741 248.631L135.211 248.799L168.702 155.138L168.232 154.97L134.741 248.631Z" fill="#A6A9AD"/>
<path d="M121.884 236.081L122.27 236.398L182.401 163.091L182.015 162.775L121.884 236.081Z" fill="#A6A9AD"/>
<path d="M132.877 251.204L133.263 251.521L196.137 174.87L195.751 174.553L132.877 251.204Z" fill="#A6A9AD"/>
<path d="M124.811 234.831L125.065 235.261L206.605 187.194L206.351 186.764L124.811 234.831Z" fill="#A6A9AD"/>
<path d="M130.084 252.734L130.337 253.164L215.889 202.732L215.636 202.302L130.084 252.734Z" fill="#A6A9AD"/>
<path d="M128.039 234.733L128.132 235.223L221.288 217.58L221.195 217.089L128.039 234.733Z" fill="#A6A9AD"/>
<path d="M126.897 253.441L126.99 253.931L224.886 235.39L224.793 234.9L126.897 253.441Z" fill="#A6A9AD"/>
<path d="M131.261 236.33L225.353 251.528L225.432 251.036L131.341 235.838L131.261 236.33Z" fill="#A6A9AD"/>
<path d="M123.838 253.486L222.856 269.48L222.935 268.987L123.918 252.993L123.838 253.486Z" fill="#A6A9AD"/>
<path d="M133.66 238.298L217.708 284.99L217.95 284.554L133.903 237.862L133.66 238.298Z" fill="#A6A9AD"/>
<path d="M120.719 251.997L209.274 301.193L209.516 300.757L120.961 251.561L120.719 251.997Z" fill="#A6A9AD"/>
<path d="M135.215 240.95L199.044 314.186L199.42 313.858L135.592 240.622L135.215 240.95Z" fill="#A6A9AD"/>
<path d="M118.327 249.258L185.543 326.381L185.92 326.053L118.703 248.93L118.327 249.258Z" fill="#A6A9AD"/>
<path d="M122.292 368.349C189.817 369.527 245.657 315.767 246.839 248.075C248.018 180.55 194.257 124.71 126.565 123.528C59.0403 122.35 3.20022 176.11 2.01866 243.802C0.837104 311.493 54.6006 367.167 122.292 368.349ZM126.301 138.663C185.677 139.7 232.904 188.605 231.867 247.98C230.831 307.356 181.926 354.583 122.55 353.546C63.1749 352.51 15.948 303.605 16.9844 244.229C18.0208 184.854 66.9257 137.627 126.301 138.663Z" fill="#292C2D"/>
<path d="M122.554 353.38C181.929 354.417 230.834 307.19 231.871 247.814C232.907 188.439 185.68 139.534 126.304 138.497C66.9288 137.461 18.0239 184.688 16.9875 244.063C15.9511 303.439 63.178 352.344 122.554 353.38ZM126.191 144.984C182.074 145.959 226.523 191.987 225.548 247.87C224.572 303.753 178.544 348.202 122.661 347.227C66.7781 346.251 22.3292 300.223 23.3047 244.34C24.2801 188.457 70.3083 144.008 126.191 144.984Z" fill="#A6A9AD"/>
</g>
</g>
<path d="M273.307 239.284C256.506 239.284 243.032 252.924 243.032 269.559C243.032 286.359 256.673 299.833 273.307 299.833C290.108 299.833 303.581 286.193 303.581 269.559C303.581 252.924 290.108 239.284 273.307 239.284ZM273.307 295.508C259.001 295.508 247.524 283.864 247.524 269.725C247.524 255.419 259.168 243.942 273.307 243.942C287.612 243.942 299.09 255.586 299.09 269.725C299.09 283.864 287.612 295.508 273.307 295.508Z" fill="#6FE4F7"/>
<path d="M156.368 16.2192L181.652 33.519H207.269C207.269 33.519 216.751 23.8711 230.391 23.8711H252.016C252.016 23.8711 253.845 12.7261 241.37 12.7261C228.894 12.7261 156.368 12.7261 156.368 12.7261V16.2192Z" fill="#292C2D"/>
<path d="M190.468 33.519C190.468 33.519 192.631 44.6641 200.948 44.6641L208.6 42.3352C208.6 42.3352 198.786 38.0103 199.451 33.519H190.468Z" fill="#292C2D"/>
<path d="M294.598 331.107C292.935 331.107 291.438 330.109 290.939 328.446L270.811 272.554C270.146 270.558 271.144 268.229 273.14 267.398C275.136 266.732 277.465 267.73 278.296 269.727L298.424 325.618C299.089 327.614 298.091 329.943 296.095 330.775C295.43 330.941 295.097 331.107 294.598 331.107Z" fill="#6FE4F7"/>
<path d="M311.897 334.933H280.291C279.293 334.933 278.462 334.101 278.462 333.103V327.281C278.462 326.283 279.293 325.452 280.291 325.452H311.897C312.895 325.452 313.726 326.283 313.726 327.281V333.103C313.726 333.935 312.895 334.933 311.897 334.933Z" fill="#292C2D"/>
<path d="M412.702 9.89744L403.22 19.379C402.222 20.3771 400.559 20.3771 399.561 19.379L394.072 13.8897C393.073 12.8917 393.073 11.2282 394.072 10.2301L403.553 0.748546C404.551 -0.249515 406.215 -0.249515 407.213 0.748546L412.702 6.23786C413.7 7.23592 413.7 8.89937 412.702 9.89744Z" fill="#292C2D"/>
<path d="M499.366 246.604C498.035 246.604 496.871 245.939 496.039 244.941L442.477 167.425C442.31 167.092 442.144 166.759 441.978 166.427L394.403 32.6865C393.904 31.3558 394.237 29.8586 395.235 28.6942L410.539 11.3946C412.036 9.73114 414.531 9.56477 416.195 11.0619C417.858 12.559 418.024 15.054 416.527 16.7175L402.721 32.1875L449.297 163.266L502.527 240.449C503.691 242.279 503.358 244.774 501.529 245.939C501.03 246.272 500.198 246.604 499.366 246.604Z" fill="#6FE4F7"/>
<path d="M223.238 104.049C221.242 104.049 219.412 102.385 219.245 100.389C219.079 98.2266 220.743 96.2305 222.905 96.2305L417.693 83.2556C419.856 83.0893 421.852 84.7527 421.852 86.9152C422.018 89.0777 420.355 91.0738 418.192 91.0738L223.404 104.049C223.404 104.049 223.404 104.049 223.238 104.049Z" fill="#6FE4F7"/>
<path d="M274.471 271.224C272.807 271.224 271.144 270.059 270.645 268.396L201.113 44.6639C200.448 42.5015 201.612 40.339 203.775 39.6736C205.937 39.0082 208.1 40.1726 208.765 42.3351L278.13 266.067C278.796 268.23 277.631 270.392 275.469 271.057C275.136 271.224 274.804 271.224 274.471 271.224Z" fill="#6FE4F7"/>
<path d="M274.471 271.224C274.305 271.224 274.139 271.224 273.972 271.224L122.101 254.257C120.77 254.091 119.439 253.259 118.94 251.928C118.441 250.597 118.441 249.1 119.273 248.102L219.911 103.051C221.241 101.221 223.57 100.722 225.4 102.053C227.23 103.384 227.729 105.712 226.398 107.542L129.586 247.104L272.808 263.073L421.02 100.888C422.517 99.2249 425.012 99.2249 426.676 100.556C428.339 102.053 428.339 104.548 427.008 106.211L277.466 269.893C276.634 270.725 275.469 271.224 274.471 271.224Z" fill="#6FE4F7"/>
<path d="M273.306 280.704C279.37 280.704 284.285 275.789 284.285 269.726C284.285 263.662 279.37 258.747 273.306 258.747C267.243 258.747 262.328 263.662 262.328 269.726C262.328 275.789 267.243 280.704 273.306 280.704Z" fill="#292C2D"/>
<path d="M122.265 257.083C127.41 257.083 131.58 252.912 131.58 247.768C131.58 242.623 127.41 238.453 122.265 238.453C117.12 238.453 112.95 242.623 112.95 247.768C112.95 252.912 117.12 257.083 122.265 257.083Z" fill="#BCBDBF"/>
<path d="M122.265 252.757C125.021 252.757 127.255 250.523 127.255 247.767C127.255 245.011 125.021 242.776 122.265 242.776C119.509 242.776 117.275 245.011 117.275 247.767C117.275 250.523 119.509 252.757 122.265 252.757Z" fill="#292C2D"/>
<path d="M499.366 252.26C504.694 252.26 509.014 247.94 509.014 242.612C509.014 237.283 504.694 232.964 499.366 232.964C494.037 232.964 489.718 237.283 489.718 242.612C489.718 247.94 494.037 252.26 499.366 252.26Z" fill="#BCBDBF"/>
<path d="M499.365 247.768C502.213 247.768 504.522 245.46 504.522 242.612C504.522 239.764 502.213 237.455 499.365 237.455C496.517 237.455 494.209 239.764 494.209 242.612C494.209 245.46 496.517 247.768 499.365 247.768Z" fill="#292C2D"/>
<path d="M444.14 45.162C442.976 45.162 441.812 44.663 440.98 43.4986C439.649 41.6688 439.982 39.1737 441.812 38.0093C447.8 33.518 451.127 29.0266 450.96 25.0344C450.96 21.7075 448.632 19.2124 447.467 18.048H412.868C410.705 18.048 408.875 16.2182 408.875 14.0558C408.875 11.8933 410.705 10.0635 412.868 10.0635H448.798C449.63 10.0635 450.461 10.2299 451.127 10.7289C451.459 10.8952 458.779 16.0519 458.945 24.7018C459.111 31.5219 454.953 38.0092 446.635 44.3303C445.804 44.8293 444.972 45.162 444.14 45.162Z" fill="#292C2D"/>
</svg>
