<svg width="680" height="392" viewBox="0 0 680 392" fill="none" xmlns="http://www.w3.org/2000/svg">
<path d="M481.46 96.642L472.474 87.7168L292.057 269.362L301.043 278.287L481.46 96.642Z" fill="#F4753D"/>
<path d="M139.755 119.415C66.4776 119.415 7.13184 178.761 7.13184 252.038C7.13184 325.316 66.4776 384.662 139.755 384.662C213.033 384.662 272.378 325.316 272.378 252.038C272.378 178.761 213.033 119.415 139.755 119.415ZM139.755 357.16C81.6758 357.16 34.6334 310.118 34.6334 252.038C34.6334 193.959 81.6758 146.917 139.755 146.917C197.834 146.917 244.877 193.959 244.877 252.038C244.877 310.118 197.834 357.16 139.755 357.16Z" fill="#A6A9AD"/>
<mask id="mask0" mask-type="alpha" maskUnits="userSpaceOnUse" x="0" y="111" width="280" height="281">
<circle cx="140" cy="252" r="140" fill="#C4C4C4"/>
</mask>
<g mask="url(#mask0)">
<mask id="mask1" mask-type="alpha" maskUnits="userSpaceOnUse" x="-3" y="109" width="286" height="286">
<circle cx="140" cy="252" r="140" transform="rotate(-179 140 252)" fill="#C4C4C4"/>
</mask>
<g mask="url(#mask1)">
<mask id="mask2" mask-type="alpha" maskUnits="userSpaceOnUse" x="-5" y="107" width="290" height="290">
<circle cx="140" cy="252" r="140" transform="rotate(2 140 252)" fill="#C4C4C4"/>
</mask>
<g mask="url(#mask2)">
<path d="M223.311 328.959L215.228 321.547L217.237 319.979L225.082 327.645L223.311 328.959Z" fill="#BCBEC0"/>
<path d="M218.381 324.441L216.598 324.521L215.164 323.379L215.228 321.547L217.089 319.843L218.943 319.908L220.281 320.992L220.229 322.497L218.381 324.441Z" fill="#3B3B3C"/>
<path d="M274.332 253.688C274.265 253.359 274.274 253.019 274.359 252.695C274.444 252.37 274.603 252.07 274.823 251.817C275.043 251.563 275.319 251.364 275.628 251.235C275.938 251.106 276.273 251.049 276.608 251.07L276.416 242.471C276.416 242.471 274.355 242.726 273.885 239.926C273.81 239.558 273.811 239.179 273.887 238.812C273.963 238.445 274.113 238.097 274.328 237.79C274.543 237.483 274.819 237.223 275.138 237.026C275.457 236.828 275.812 236.698 276.183 236.643L275.084 228.416C274.339 228.434 273.608 228.208 273.002 227.773C272.397 227.338 271.95 226.718 271.729 226.006C270.836 223.441 274.029 222.657 274.029 222.657L271.453 214.204C271.15 214.326 270.824 214.381 270.498 214.366C270.171 214.35 269.852 214.265 269.562 214.115C269.272 213.965 269.017 213.754 268.816 213.496C268.615 213.239 268.472 212.941 268.396 212.623C267.391 210.131 268.826 209.69 269.836 208.906L267.253 200.955C267.253 200.955 264.746 202.418 263.689 199.848C263.689 199.848 261.882 197.492 264.827 195.389L261.047 187.963C261.047 187.963 259.296 189.627 257.268 186.74C257.268 186.74 255.771 184.886 258.062 182.76L253.544 176.128C253.544 176.128 251.942 177.306 249.587 174.679C249.587 174.679 248.006 173.074 250.362 171.267L244.614 164.515C244.614 164.515 242.673 166.336 240.973 163.416C240.973 163.416 239.615 162.277 241.494 160.071L235.177 153.977C235.177 153.977 233.569 155.635 231.429 153.431C231.175 153.259 230.961 153.032 230.805 152.768C230.648 152.503 230.553 152.207 230.525 151.901C230.497 151.595 230.537 151.286 230.643 150.998C230.749 150.709 230.918 150.448 231.137 150.232L224.548 144.434C224.548 144.434 223.151 146.918 220.786 144.303C220.786 144.303 218.633 143.408 220.159 141.005L213.207 136.209C213.207 136.209 211.23 138.728 208.818 136.842C206.405 134.956 208.158 133.543 208.158 133.543L200.32 129.426C200.194 129.772 199.988 130.083 199.718 130.334C199.449 130.585 199.124 130.769 198.771 130.87C198.417 130.972 198.044 130.988 197.683 130.918C197.321 130.848 196.982 130.694 196.691 130.468C196.691 130.468 193.623 129.214 195.009 127.046L187.26 123.828C187.13 124.181 186.919 124.499 186.644 124.756C186.369 125.013 186.038 125.203 185.677 125.31C185.317 125.417 184.936 125.439 184.565 125.373C184.194 125.308 183.844 125.156 183.542 124.932C183.197 124.907 182.863 124.801 182.567 124.622C182.271 124.442 182.022 124.196 181.841 123.901C181.659 123.607 181.55 123.274 181.522 122.929C181.495 122.584 181.549 122.238 181.682 121.919L173.165 119.438C173.165 119.438 172.901 122.617 169.904 121.507C169.561 121.459 169.233 121.334 168.945 121.143C168.656 120.951 168.414 120.698 168.236 120.4C168.058 120.103 167.949 119.77 167.916 119.425C167.883 119.08 167.928 118.733 168.047 118.407L159.26 116.79C159.288 117.166 159.221 117.543 159.065 117.887C158.91 118.23 158.67 118.529 158.368 118.756C158.067 118.982 157.713 119.129 157.34 119.183C156.966 119.237 156.585 119.196 156.232 119.065C155.896 119.126 155.549 119.105 155.223 119.002C154.897 118.9 154.6 118.719 154.359 118.476C154.118 118.234 153.94 117.936 153.84 117.609C153.74 117.281 153.721 116.935 153.785 116.599L145.01 115.888C145.01 115.888 145.45 118.273 142.349 117.979C139.247 117.685 139.23 115.687 139.23 115.687L130.615 115.386C130.78 115.732 130.85 116.116 130.82 116.499C130.789 116.881 130.658 117.249 130.44 117.564C130.222 117.88 129.924 118.133 129.577 118.297C129.23 118.461 128.846 118.531 128.464 118.499C125.257 118.715 125.174 116.419 125.174 116.419L116.793 117.524C116.793 117.524 117.52 120.169 114.229 120.622C110.937 121.075 111.008 119.036 111.008 119.036L102.586 121.035C102.693 121.338 102.732 121.662 102.7 121.983C102.667 122.303 102.564 122.613 102.398 122.889C102.232 123.165 102.007 123.401 101.738 123.579C101.47 123.758 101.166 123.875 100.847 123.922C100.15 124.103 99.4143 124.07 98.7356 123.828C98.057 123.587 97.4664 123.147 97.0403 122.566L89.4066 125.739C89.6132 126.387 89.5637 127.09 89.2681 127.703C88.9726 128.316 88.4535 128.793 87.8174 129.035C87.1457 129.281 86.4129 129.305 85.7264 129.104C85.0399 128.904 84.4356 128.488 84.0022 127.919L76.345 131.452C76.5141 131.796 76.6089 132.172 76.6231 132.555C76.6373 132.938 76.5706 133.319 76.4273 133.675C76.2841 134.031 76.0675 134.352 75.7917 134.618C75.5159 134.884 75.1871 135.09 74.8267 135.22C72.0796 136.347 71.0031 134.344 71.0031 134.344L64.2999 138.696C64.2999 138.696 64.936 141.743 62.8542 142.576C62.3141 142.83 61.7123 142.923 61.1207 142.845C60.529 142.766 59.9726 142.518 59.5177 142.132L52.5573 147.599C52.5573 147.599 53.8933 149.36 51.7746 151.252C49.6559 153.143 48.2574 151.293 48.2574 151.293L42.0672 157.213C42.3484 157.436 42.5733 157.722 42.7238 158.047C42.8743 158.373 42.9461 158.73 42.9336 159.088C42.9211 159.447 42.8245 159.798 42.6517 160.112C42.4788 160.426 42.2346 160.696 41.9385 160.899C39.7404 162.875 38.1477 161.585 38.1477 161.585L32.4639 168.014C32.4639 168.014 34.6019 169.323 32.7553 171.551C30.9086 173.78 28.9586 172.401 28.9586 172.401L24.2522 179.607C24.2522 179.607 26.5574 180.506 24.7782 183.305C22.999 186.103 21.5726 184.427 21.5726 184.427L17.4674 191.926C17.8224 192.115 18.1311 192.381 18.3716 192.703C18.6121 193.025 18.7784 193.397 18.8585 193.791C18.9387 194.185 18.9307 194.592 18.8352 194.982C18.7397 195.373 18.559 195.738 18.3061 196.05C16.4886 198.695 14.9092 197.023 14.9092 197.023L11.6707 205.34C11.6707 205.34 14.1157 205.676 13.3502 208.838C12.5846 211.999 10.1057 210.449 10.1057 210.449L7.61651 219.196C7.61651 219.196 10.2193 219.701 9.80949 222.056C9.39969 224.411 6.28864 224.39 6.28864 224.39L5.00252 233.08C5.00252 233.08 7.88202 232.853 7.4349 236.277C6.98778 239.701 4.41433 238.355 4.41433 238.355L3.78249 247.068C3.78249 247.068 6.81394 246.868 6.44911 250.437C6.08429 254.005 3.58827 252.63 3.58827 252.63L3.76485 261.644C3.76485 261.644 7.05624 261.191 6.95646 264.048C6.97819 264.41 6.92661 264.773 6.80483 265.114C6.68305 265.456 6.49357 265.769 6.24774 266.036C6.00191 266.303 5.70481 266.517 5.37418 266.666C5.04356 266.815 4.68622 266.896 4.3236 266.904L5.64005 275.794C5.64005 275.794 9.09806 275.26 9.00971 277.79C8.92136 280.32 8.17622 280.709 6.76321 281.151L8.84046 289.827C8.84046 289.827 12.0564 289.033 12.2979 291.498C12.5394 293.963 11.707 294.349 10.5391 294.963L13.6974 303.012C13.6974 303.012 16.5099 302.204 17.1657 304.683C17.8216 307.163 15.9091 307.838 15.9091 307.838L19.5224 315.99C19.5224 315.99 22.6273 314.624 23.5059 317.603C24.3846 320.582 22.284 321.327 22.284 321.327L27.1918 328.366C27.1918 328.366 29.5474 326.571 31.1006 328.994C31.3246 329.277 31.4851 329.606 31.5713 329.956C31.6574 330.307 31.6672 330.672 31.6 331.027C31.5327 331.382 31.39 331.718 31.1814 332.013C30.9729 332.308 30.7034 332.555 30.3912 332.736L35.8792 339.73C35.8792 339.73 37.6784 337.609 39.6274 340.265C41.5765 342.921 39.4987 343.951 39.4987 343.951L45.3486 349.964C45.5987 349.675 45.9132 349.448 46.2668 349.303C46.6204 349.157 47.0032 349.096 47.3845 349.126C47.7658 349.155 48.1349 349.273 48.4622 349.471C48.7894 349.669 49.0657 349.941 49.2688 350.265C51.236 352.714 50.0795 353.001 49.7181 353.971L56.1494 359.589C56.1494 359.589 58.2858 356.88 60.2446 359.568C62.2034 362.257 60.4545 362.939 60.4545 362.939L67.9904 367.569C67.9904 367.569 69.3817 365.249 71.8462 367.213C74.3107 369.177 72.874 370.611 72.874 370.611L80.4308 374.642C80.4308 374.642 81.7575 371.981 84.0638 373.786C86.3701 375.592 85.4379 377.274 85.4379 377.274L93.6776 380.51C93.6776 380.51 93.941 377.658 97.0033 379.075C100.066 380.492 98.948 382.168 98.948 382.168L107.378 384.646C107.378 384.646 108.121 382.138 110.301 382.87C112.481 383.601 112.875 384.182 112.666 385.496L121.281 387.348C121.298 386.995 121.391 386.65 121.554 386.336C121.717 386.023 121.946 385.749 122.226 385.533C122.506 385.318 122.829 385.166 123.174 385.087C123.518 385.009 123.876 385.007 124.221 385.081C127.084 385.334 126.887 386.266 126.756 387.539L135.48 387.843C135.69 387.299 136.058 386.83 136.536 386.497C137.015 386.163 137.582 385.98 138.166 385.972C140.129 386.04 140.775 386.281 140.714 388.026L149.57 388.336C149.57 388.336 149.768 385.154 152.625 385.254C152.95 385.151 153.294 385.129 153.629 385.19C153.964 385.251 154.279 385.393 154.546 385.604C154.814 385.814 155.025 386.088 155.163 386.399C155.3 386.71 155.359 387.051 155.335 387.39L164.383 386.232C164.383 386.232 163.817 383.679 166.282 383.438C166.613 383.329 166.963 383.294 167.309 383.334C167.655 383.374 167.988 383.489 168.285 383.671C168.582 383.853 168.836 384.097 169.029 384.387C169.222 384.676 169.35 385.005 169.404 385.349L177.931 382.862C177.931 382.862 176.9 381.101 179.574 380.212C180.225 379.915 180.961 379.864 181.646 380.069C182.332 380.273 182.92 380.719 183.302 381.325L191.307 378.46C191.307 378.46 190.137 376.617 192.882 375.566C192.882 375.566 195.085 373.46 196.946 376.44L204.455 372.444C204.267 372.148 204.152 371.811 204.122 371.461C204.091 371.111 204.146 370.759 204.28 370.435C204.415 370.11 204.626 369.823 204.895 369.598C205.164 369.372 205.484 369.215 205.826 369.14C206.054 368.904 206.337 368.729 206.649 368.629C206.962 368.53 207.294 368.509 207.616 368.569C207.938 368.629 208.241 368.768 208.496 368.973C208.752 369.178 208.953 369.443 209.081 369.745L216.529 365.332C216.348 365.061 216.23 364.754 216.183 364.432C216.137 364.11 216.163 363.781 216.26 363.471C216.356 363.16 216.521 362.875 216.742 362.636C216.963 362.398 217.235 362.212 217.537 362.091C219.767 360.783 220.896 362.209 220.896 362.209L228.297 356.331C228.043 356.118 227.841 355.85 227.707 355.547C227.572 355.244 227.508 354.915 227.52 354.584C227.531 354.253 227.618 353.929 227.773 353.636C227.929 353.344 228.149 353.091 228.416 352.896C228.65 352.662 228.93 352.479 229.237 352.358C229.545 352.237 229.874 352.181 230.204 352.192C230.535 352.204 230.859 352.283 231.157 352.425C231.456 352.567 231.722 352.769 231.939 353.019L238.445 347.11C238.445 347.11 236.965 345.093 238.571 343.511C238.571 343.511 240.941 341.301 242.131 342.543L247.911 336.194C247.911 336.194 245.772 334.896 248.047 332.279C248.047 332.279 248.861 330.255 251.19 331.406L256.324 324.456C256.324 324.456 253.847 323.474 255.416 320.744C256.986 318.015 259.224 319.567 259.224 319.567L263.34 311.762C263.34 311.762 260.358 310.566 261.926 307.869C261.926 307.869 262.656 305.711 265.655 306.449L268.639 298.528C268.303 298.424 267.995 298.246 267.736 298.007C267.478 297.768 267.276 297.474 267.146 297.147C267.016 296.82 266.961 296.468 266.985 296.117C267.009 295.766 267.111 295.424 267.284 295.118C267.344 294.796 267.475 294.492 267.668 294.228C267.861 293.963 268.111 293.746 268.4 293.591C268.688 293.437 269.008 293.349 269.335 293.335C269.662 293.32 269.988 293.38 270.289 293.509L273.113 285.167C273.113 285.167 270.741 285.248 270.926 282.143C270.926 282.143 270.777 279.528 273.89 279.473L275.278 271.005C275.278 271.005 272.994 270.761 273.356 267.575C273.384 267.241 273.479 266.917 273.635 266.621C273.791 266.325 274.004 266.063 274.263 265.851C274.522 265.639 274.821 265.481 275.142 265.387C275.463 265.293 275.8 265.264 276.132 265.302L276.433 256.687C276.433 256.687 274.562 256.48 274.332 253.688ZM254.311 255.773C252.082 319.602 198.823 369.572 135.355 367.356C71.8858 365.139 22.2206 311.575 24.4496 247.746C26.6785 183.917 79.9374 133.947 143.406 136.163C206.875 138.379 256.541 191.933 254.311 255.773Z" fill="#2F3536"/>
<path d="M267.634 256.325C270.095 185.855 215.132 126.744 144.88 124.291C74.6277 121.837 15.6637 176.97 13.2029 247.44C10.742 317.91 65.7056 377.021 135.968 379.474C206.231 381.928 265.174 326.784 267.634 256.325ZM261.088 256.183C258.734 323.589 202.299 376.331 135.188 373.988C68.0771 371.644 15.5461 315.097 17.9 247.691C20.2539 180.286 76.569 127.528 143.713 129.873C210.857 132.218 263.441 188.811 261.088 256.183Z" fill="#232729"/>
<path d="M26.2174 191.206C24.8239 193.8 23.5231 196.447 22.3151 199.149L20.0495 196.177L26.2174 191.206Z" fill="#585956"/>
<path d="M32.8483 180.147C31.2508 182.537 29.7277 184.984 28.279 187.489L26.4467 184.618L32.8483 180.147Z" fill="#585956"/>
<path d="M41.2636 168.967C39.3723 171.223 37.5553 173.539 35.8127 175.917L34.0638 173.159L41.2636 168.967Z" fill="#585956"/>
<path d="M50.4748 159.068C48.4333 161.042 46.4551 163.076 44.5404 165.171L42.8906 162.701L50.4748 159.068Z" fill="#585956"/>
<path d="M60.3493 150.503C58.1712 152.218 56.0341 154.01 53.9714 155.86L53.462 151.999L60.3493 150.503Z" fill="#585956"/>
<path d="M70.5161 143.269C68.5394 144.532 66.5931 145.861 64.6889 147.236L64.8119 143.714L70.5161 143.269Z" fill="#585956"/>
<path d="M82.7926 136.307C80.3037 137.541 77.8554 138.864 75.4594 140.255L75.606 136.056L82.7926 136.307Z" fill="#585956"/>
<path d="M95.5295 130.801C92.7324 131.795 89.9943 132.977 87.255 134.191L88.0594 130.54L95.5295 130.801Z" fill="#585956"/>
<path d="M109.201 126.649C106.403 127.344 103.643 128.125 100.919 128.991L101.053 125.152L109.201 126.649Z" fill="#585956"/>
<path d="M122.723 124.031C119.674 124.438 116.665 124.912 113.683 125.594L114.552 121.944L122.723 124.031Z" fill="#585956"/>
<path d="M136.347 122.902C133.331 122.993 130.336 123.187 127.363 123.484L128.269 120.054L136.347 122.902Z" fill="#585956"/>
<path d="M149.463 123.163C147.938 123.055 146.412 122.98 144.875 122.927C143.337 122.873 141.81 122.82 140.281 122.843L142.138 119.992L149.463 123.163Z" fill="#585956"/>
<path d="M162.163 124.677C159.688 124.263 157.196 123.917 154.687 123.641L155.65 120.464L162.163 124.677Z" fill="#585956"/>
<path d="M175.649 127.712C172.989 126.964 170.305 126.292 167.584 125.716L169.542 122.804L175.649 127.712Z" fill="#585956"/>
<path d="M188.857 132.225C186.072 131.101 183.24 130.07 180.361 129.133L183.174 126.436L188.857 132.225Z" fill="#585956"/>
<path d="M200.439 137.587C198.296 136.42 196.018 135.347 193.761 134.329L196.095 131.593L200.439 137.587Z" fill="#585956"/>
<path d="M212.479 144.765C209.997 143.099 207.454 141.514 204.85 140.011L208.809 138.261L212.479 144.765Z" fill="#585956"/>
<path d="M223.621 153.147C221.404 151.29 219.13 149.497 216.798 147.788L220.375 145.729L223.621 153.147Z" fill="#585956"/>
<path d="M232.728 161.534C230.936 159.717 229.097 157.953 227.214 156.242L230.125 154.466L232.728 161.534Z" fill="#585956"/>
<path d="M241.572 171.56C239.992 169.594 238.367 167.66 236.675 165.788L239.277 164.427L241.572 171.56Z" fill="#585956"/>
<path d="M250.414 184.11C248.801 181.498 247.089 178.949 245.297 176.474L248.139 175.765L250.414 184.11Z" fill="#585956"/>
<path d="M256.251 194.598C255.156 192.376 254.002 190.21 252.787 188.1L255.612 186.943L256.251 194.598Z" fill="#585956"/>
<path d="M262.039 208.098C261.044 205.323 259.928 202.565 258.744 199.893L261.855 199.281L262.039 208.098Z" fill="#585956"/>
<path d="M265.875 220.713C265.205 218.025 264.45 215.367 263.61 212.739L266.165 212.414L265.875 220.713Z" fill="#585956"/>
<path d="M268.427 233.565C268.058 230.976 267.614 228.394 267.09 225.876L270.133 225.982L268.427 233.565Z" fill="#585956"/>
<path d="M269.578 247.254C269.48 244.455 269.292 241.686 269.018 238.925L271.886 239.025L269.578 247.254Z" fill="#585956"/>
<path d="M269.351 260.676C269.401 259.225 269.528 257.778 269.579 256.316C269.622 255.084 269.665 253.852 269.708 252.62L273.208 253.713L269.351 260.676Z" fill="#585956"/>
<path d="M267.913 272.974C268.299 270.673 268.61 268.358 268.866 266.02L271.486 266.963L267.913 272.974Z" fill="#585956"/>
<path d="M264.608 287.621C265.363 284.983 266.038 282.317 266.635 279.623L269.271 280.424L264.608 287.621Z" fill="#585956"/>
<path d="M260.488 299.609C261.289 297.511 262.073 295.388 262.839 293.238L265.733 294.169L260.488 299.609Z" fill="#585956"/>
<path d="M254.562 312.35C255.808 310.006 256.984 307.612 258.088 305.169L260.577 306.762L254.562 312.35Z" fill="#585956"/>
<path d="M247.507 324.015C249.11 321.669 250.632 319.258 252.072 316.783L254.093 318.317L247.507 324.015Z" fill="#585956"/>
<path d="M239.804 334.185C241.399 332.275 242.924 330.319 244.376 328.317L246.522 329.408L239.804 334.185Z" fill="#585956"/>
<path d="M230.114 344.645C231.9 342.917 233.639 341.158 235.332 339.368L237.589 340.713L230.114 344.645Z" fill="#585956"/>
<path d="M220.036 353.378C221.854 351.957 223.63 350.501 225.365 348.989L227.493 350.581L220.036 353.378Z" fill="#585956"/>
<path d="M208.663 361.322C210.795 359.988 212.896 358.598 214.944 357.174L216.869 358.639L208.663 361.322Z" fill="#585956"/>
<path d="M198.107 367.222C199.996 366.273 201.865 365.29 203.67 364.25L205.24 365.888L198.107 367.222Z" fill="#585956"/>
<path d="M185.491 372.687C187.747 371.849 189.981 370.948 192.191 369.984L193.474 372.311L185.491 372.687Z" fill="#585956"/>
<path d="M171.561 376.983C174.336 376.293 177.071 375.515 179.787 374.66L179.68 377.725L171.561 376.983Z" fill="#585956"/>
<path d="M159.164 379.412C161.545 379.069 163.896 378.66 166.238 378.185L166.984 380.602L159.164 379.412Z" fill="#585956"/>
<path d="M145.592 380.651C148.033 380.562 150.452 380.399 152.848 380.162L152.759 382.692L145.592 380.651Z" fill="#585956"/>
<path d="M131.109 380.42C132.691 380.475 138.643 380.748 140.019 380.731L139.914 383.741L131.109 380.42Z" fill="#585956"/>
<path d="M118.549 378.911C121.14 379.351 123.755 379.715 126.394 380.004L125.517 383.249L118.549 378.911Z" fill="#585956"/>
<path d="M105.14 375.899C107.919 376.684 110.733 377.383 113.584 377.974L111.826 380.489L105.14 375.899Z" fill="#585956"/>
<path d="M92.9018 371.746C95.5518 372.778 98.2367 373.745 100.969 374.605L98.1259 376.919L92.9018 371.746Z" fill="#585956"/>
<path d="M80.1353 365.919C82.7512 367.299 85.4249 368.589 88.1562 369.791L85.7524 371.716L80.1353 365.919Z" fill="#585956"/>
<path d="M68.6655 359.109C70.9061 360.607 73.2038 362.034 75.5585 363.39L73.3013 365.495L68.6655 359.109Z" fill="#585956"/>
<path d="M58.3216 351.443C60.508 353.244 62.7588 354.972 65.074 356.625L61.5501 358.107L58.3216 351.443Z" fill="#585956"/>
<path d="M47.7505 341.783C49.7604 343.84 51.8346 345.831 53.973 347.754L50.7009 349.529L47.7505 341.783Z" fill="#585956"/>
<path d="M39.1836 332.039C40.9504 334.284 42.7869 336.412 44.6903 338.499L40.5084 338.811L39.1836 332.039Z" fill="#585956"/>
<path d="M32.015 322.148C33.3418 324.174 34.7285 326.155 36.1749 328.091L32.9033 327.977L32.015 322.148Z" fill="#585956"/>
<path d="M24.4235 308.877C25.7911 311.611 27.237 314.293 28.7829 316.924L24.1481 316.762L24.4235 308.877Z" fill="#585956"/>
<path d="M19.2663 297.014C20.2689 299.572 21.2734 302.074 22.3771 304.548L18.3421 304.407L19.2663 297.014Z" fill="#585956"/>
<path d="M14.9867 283.315C15.6955 286.157 16.5041 288.951 17.4127 291.698L13.6212 291.151L14.9867 283.315Z" fill="#585956"/>
<path d="M12.4872 270.813C12.9116 273.667 13.4282 276.487 14.0369 279.274L10.1927 278.048L12.4872 270.813Z" fill="#585956"/>
<path d="M11.1882 257.011C11.3092 259.799 11.5069 262.58 11.793 265.33L7.74658 263.955L11.1882 257.011Z" fill="#585956"/>
<path d="M11.3743 243.139C11.3263 244.513 11.2126 245.895 11.1642 247.28C11.1068 248.923 11.0824 250.56 11.091 252.191L7.35738 249.986L11.3743 243.139Z" fill="#585956"/>
<path d="M13.0979 228.919C12.5806 231.849 12.1495 234.814 11.8263 237.817L8.71434 235.633L13.0979 228.919Z" fill="#585956"/>
<path d="M15.8243 217.069C15.0841 219.715 14.43 222.393 13.8623 225.102L10.6201 222.27L15.8243 217.069Z" fill="#585956"/>
<path d="M17.429 211.809C18.2861 209.153 19.2401 206.533 20.2686 203.97L14.8851 208.99L17.429 211.809Z" fill="#585956"/>
<path fill-rule="evenodd" clip-rule="evenodd" d="M135.568 365.904C198.102 368.088 250.582 318.697 252.786 255.587C254.99 192.477 206.083 139.546 143.549 137.362C81.0155 135.179 28.5354 184.569 26.3315 247.679C24.1277 310.789 73.0347 363.72 135.568 365.904ZM136.328 344.192C186.98 345.961 229.489 305.955 231.274 254.836C233.059 203.717 193.444 160.842 142.792 159.074C92.1398 157.305 49.6309 197.311 47.8458 248.43C46.0607 299.549 85.6753 342.423 136.328 344.192Z" fill="url(#paint0_radial)"/>
<path fill-rule="evenodd" clip-rule="evenodd" d="M138.36 285.914C157.12 286.569 172.864 271.752 173.525 252.819C174.186 233.886 159.514 218.007 140.754 217.352C121.994 216.696 106.25 231.514 105.589 250.447C104.927 269.38 119.6 285.259 138.36 285.914ZM139.158 263.059C145.412 263.277 150.66 258.338 150.88 252.027C151.1 245.716 146.21 240.423 139.956 240.205C133.703 239.987 128.455 244.926 128.235 251.237C128.014 257.548 132.905 262.841 139.158 263.059Z" fill="#050608"/>
<mask id="mask3" mask-type="alpha" maskUnits="userSpaceOnUse" x="22" y="133" width="235" height="237">
<ellipse cx="139.561" cy="251.634" rx="113.296" ry="114.34" transform="rotate(2 139.561 251.634)" fill="url(#paint1_angular)"/>
</mask>
<g mask="url(#mask3)">
<path d="M149.224 226.514L154.328 137.167L146.968 136.91L144.165 217.185C144.037 220.841 139.313 218.159 139.313 218.159C139.313 218.159 135.049 216.055 132.649 214.208C127.594 210.319 124.372 205.053 122.615 201.273L98.8207 144.095L80.0821 153.166C90.5398 170.216 112.701 205.961 115.502 210.177C119.002 215.448 123.128 219.024 127.851 221.764C132.573 224.503 135.637 226.04 142.341 228.848C147.704 231.095 149.164 228.228 149.224 226.514Z" fill="url(#paint2_angular)"/>
<path d="M149.058 276.463L199.449 349.653L205.407 345.28C190.921 325.171 160.871 283.623 158.74 280.664C156.609 277.705 161.969 276.88 161.969 276.88C161.969 276.88 166.614 275.887 169.633 275.849C175.992 275.768 181.745 277.913 185.437 279.796L238.298 309.9L247.531 291.109C228.882 284.185 190.389 269.943 185.608 268.363C179.633 266.389 174.198 266.138 168.804 266.917C163.41 267.696 160.057 268.39 153.059 270.346C147.461 271.911 148.059 275.076 149.058 276.463Z" fill="url(#paint3_angular)"/>
<path d="M117.516 267.166L61.2843 335.959L67.0742 340.548C82.3025 320.987 113.905 280.592 116.146 277.714C118.386 274.836 120.632 279.815 120.632 279.815C120.632 279.815 122.843 284.054 123.701 286.975C125.508 293.126 125.029 299.299 124.238 303.398L109.925 362.952L130.351 366.78C131.876 346.78 134.979 305.513 135.184 300.439C135.44 294.098 134.2 288.752 131.99 283.728C129.779 278.704 128.205 275.638 124.436 269.378C121.421 264.37 118.566 265.817 117.516 267.166Z" fill="url(#paint4_angular)"/>
<path d="M120.835 234.252L42.3473 191.83L39.0539 198.479C61.0946 209.586 107.079 233.392 110.322 235.026C113.565 236.66 109.182 239.885 109.182 239.885C109.182 239.885 105.511 242.926 102.848 244.363C97.2393 247.39 91.1523 248.163 87.0144 248.208L25.7731 246.055L26.1532 267.019C45.8716 264.492 87.1158 259.253 92.0813 258.432C98.2881 257.405 103.228 255.101 107.662 251.902C112.095 248.703 114.755 246.528 120.075 241.539C124.332 237.548 122.355 235.018 120.835 234.252Z" fill="url(#paint5_angular)"/>
<path d="M166.166 249.983L250.264 222.871L247.896 215.835C224.562 223.847 176.451 240.716 173.018 241.895C169.585 243.074 170.396 237.663 170.396 237.663C170.396 237.663 170.836 232.892 171.697 229.971C173.51 223.819 177.249 218.908 180.128 215.907L224.322 173.866L209.283 159.407C197.19 175.333 172.275 208.219 169.36 212.359C165.716 217.535 163.864 222.699 162.999 228.128C162.133 233.557 161.794 236.994 161.566 244.318C161.384 250.176 164.556 250.536 166.166 249.983Z" fill="url(#paint6_angular)"/>
</g>
<ellipse cx="128.362" cy="231.221" rx="4.53185" ry="4.57362" transform="rotate(2 128.362 231.221)" fill="#C4C4C4"/>
<ellipse cx="154.97" cy="232.15" rx="4.53184" ry="4.57362" transform="rotate(2 154.97 232.15)" fill="#C4C4C4"/>
<ellipse cx="161.957" cy="259.28" rx="4.53185" ry="4.57362" transform="rotate(2 161.957 259.28)" fill="#C4C4C4"/>
<ellipse cx="138.753" cy="274.488" rx="4.53184" ry="4.57361" transform="rotate(2 138.753 274.488)" fill="#C4C4C4"/>
<ellipse cx="117.232" cy="257.718" rx="4.53185" ry="4.57362" transform="rotate(2 117.232 257.718)" fill="#C4C4C4"/>
<ellipse cx="128.364" cy="231.22" rx="3.39889" ry="3.43021" transform="rotate(2 128.364 231.22)" fill="#4A4A4A"/>
<ellipse cx="154.972" cy="232.149" rx="3.39888" ry="3.43021" transform="rotate(2 154.972 232.149)" fill="#4A4A4A"/>
<ellipse cx="161.959" cy="259.279" rx="3.39889" ry="3.43022" transform="rotate(2 161.959 259.279)" fill="#4A4A4A"/>
<ellipse cx="138.755" cy="274.487" rx="3.39889" ry="3.4302" transform="rotate(2 138.755 274.487)" fill="#4A4A4A"/>
<ellipse cx="117.234" cy="257.718" rx="3.39889" ry="3.43022" transform="rotate(2 117.234 257.718)" fill="#4A4A4A"/>
</g>
</g>
</g>
<path d="M469.411 71.106C467.24 71.106 465.25 69.8395 464.526 67.8492C462.174 61.6975 456.746 42.6997 453.851 32.3866C452.404 27.3205 452.404 20.0832 456.384 14.8361C458.555 12.1221 462.536 8.68439 469.954 8.68439H495.827C498.722 8.68439 501.074 11.0365 501.074 13.9315C501.074 16.8264 498.722 19.1784 495.827 19.1784H469.954C466.154 19.1784 465.069 20.626 464.707 21.1687C463.259 22.9781 463.079 26.4158 463.983 29.6726C466.697 39.0811 472.125 58.4407 474.477 64.2306C475.563 66.9446 474.115 70.0204 471.401 70.9251C470.678 71.106 470.135 71.106 469.411 71.106Z" fill="#F4753D"/>
<path d="M540.339 223.994C525.14 223.994 512.837 236.478 512.837 252.038C512.837 267.598 525.14 280.083 540.339 280.083C555.537 280.083 567.84 267.598 567.84 252.038C567.84 236.478 555.537 223.994 540.339 223.994Z" fill="#292C2D"/>
<path d="M536.175 273.208C535.994 273.208 535.813 273.208 535.632 273.208C535.27 273.027 534.727 273.027 534.366 272.846C533.099 272.484 532.375 271.217 532.737 269.77C533.099 268.503 534.366 267.78 535.632 268.141C535.994 268.322 536.356 268.322 536.718 268.503C537.984 268.865 538.708 270.132 538.527 271.398C538.165 272.484 537.261 273.208 536.175 273.208ZM545.583 272.846C544.498 272.846 543.593 272.122 543.231 271.036C542.869 269.77 543.593 268.503 544.86 268.141C545.222 267.961 545.583 267.96 545.764 267.78C547.031 267.237 548.297 267.96 548.84 269.227C549.202 270.494 548.659 271.941 547.393 272.303C547.031 272.484 546.488 272.665 546.126 272.665C546.126 272.846 545.945 272.846 545.583 272.846ZM526.947 267.96C526.405 267.96 525.681 267.78 525.319 267.237C524.957 266.875 524.776 266.513 524.414 266.151C523.51 265.066 523.691 263.618 524.595 262.713C525.5 261.809 527.128 261.99 527.852 262.894C528.033 263.075 528.395 263.437 528.576 263.618C529.48 264.523 529.48 266.151 528.576 267.056C528.033 267.78 527.49 267.96 526.947 267.96ZM554.63 267.056C554.087 267.056 553.544 266.875 553.002 266.513C552.097 265.608 551.916 264.161 552.821 263.075C553.002 262.894 553.183 262.533 553.544 262.171C554.268 261.085 555.897 260.904 556.801 261.809C557.887 262.533 558.068 264.161 557.163 265.246C556.801 265.608 556.62 265.97 556.258 266.332C555.897 266.875 555.173 267.056 554.63 267.056ZM521.881 258.371C520.796 258.371 519.891 257.647 519.529 256.381C519.529 256.019 519.348 255.476 519.348 255.114C519.167 253.848 520.072 252.581 521.338 252.4C522.605 252.219 523.872 253.124 524.052 254.391C524.052 254.752 524.233 255.114 524.233 255.476C524.414 256.743 523.691 258.009 522.424 258.371C522.243 258.371 522.062 258.371 521.881 258.371ZM558.972 257.286C558.792 257.286 558.791 257.286 558.611 257.286C557.344 257.105 556.439 255.838 556.62 254.572C556.62 254.21 556.801 253.848 556.801 253.486C556.982 252.219 558.068 251.134 559.334 251.315C560.601 251.496 561.686 252.581 561.505 253.848C561.505 254.391 561.505 254.752 561.325 255.295C561.144 256.381 560.239 257.286 558.972 257.286ZM522.786 247.696C522.424 247.696 522.243 247.696 521.881 247.515C520.615 246.972 520.072 245.706 520.434 244.439C520.615 244.077 520.796 243.535 520.977 243.173C521.519 241.906 522.967 241.363 524.052 241.906C525.319 242.449 525.681 243.897 525.138 245.163C524.957 245.525 524.776 245.887 524.776 246.068C524.595 246.972 523.691 247.696 522.786 247.696ZM557.525 246.61C556.62 246.61 555.716 246.068 555.354 245.163C555.173 244.801 554.992 244.439 554.811 244.258C554.268 243.173 554.63 241.544 555.716 241.002C556.801 240.459 558.249 240.821 558.972 242.087C559.153 242.449 559.334 242.992 559.515 243.354C560.058 244.62 559.515 246.068 558.249 246.61C558.249 246.43 557.887 246.61 557.525 246.61ZM529.3 239.011C528.576 239.011 527.852 238.649 527.49 238.107C526.766 237.021 526.947 235.574 528.033 234.669C528.395 234.307 528.757 234.126 529.119 233.945C530.204 233.222 531.652 233.583 532.375 234.669C533.099 235.755 532.737 237.202 531.652 237.926C531.29 238.107 531.109 238.288 530.747 238.469C530.204 238.83 529.661 239.011 529.3 239.011ZM550.649 238.288C550.288 238.288 549.745 238.107 549.383 237.926C549.021 237.745 548.84 237.564 548.478 237.383C547.393 236.659 546.85 235.212 547.574 234.126C548.297 233.041 549.564 232.498 550.83 233.222C551.192 233.403 551.554 233.764 551.916 233.945C553.002 234.669 553.364 236.116 552.64 237.202C552.097 237.926 551.373 238.288 550.649 238.288ZM539.251 235.393C537.984 235.393 536.899 234.488 536.899 233.222C536.899 231.955 537.803 230.688 539.07 230.688C539.432 230.688 539.974 230.688 540.336 230.688C541.603 230.688 542.689 231.774 542.689 233.041C542.689 234.307 541.603 235.393 540.336 235.393H540.155C539.975 235.212 539.613 235.212 539.251 235.393Z" fill="#A6A9AD"/>
<mask id="mask4" mask-type="alpha" maskUnits="userSpaceOnUse" x="400" y="111" width="281" height="281">
<circle cx="540.001" cy="252" r="140" fill="#C4C4C4"/>
</mask>
<g mask="url(#mask4)">
<mask id="mask5" mask-type="alpha" maskUnits="userSpaceOnUse" x="397" y="109" width="286" height="286">
<circle cx="540.001" cy="252" r="140" transform="rotate(-179 540.001 252)" fill="#C4C4C4"/>
</mask>
<g mask="url(#mask5)">
<mask id="mask6" mask-type="alpha" maskUnits="userSpaceOnUse" x="395" y="107" width="290" height="290">
<circle cx="540.001" cy="252" r="140" transform="rotate(2 540.001 252)" fill="#C4C4C4"/>
</mask>
<g mask="url(#mask6)">
<path d="M623.172 328.954L615.089 321.542L617.098 319.974L624.943 327.64L623.172 328.954Z" fill="#BCBEC0"/>
<path d="M618.242 324.437L616.459 324.516L615.025 323.374L615.089 321.542L616.95 319.838L618.804 319.903L620.142 320.987L620.089 322.492L618.242 324.437Z" fill="#3B3B3C"/>
<path d="M674.193 253.683C674.125 253.354 674.134 253.014 674.219 252.69C674.304 252.365 674.463 252.065 674.683 251.812C674.903 251.559 675.179 251.36 675.488 251.23C675.798 251.101 676.133 251.044 676.468 251.065L676.277 242.466C676.277 242.466 674.215 242.721 673.745 239.921C673.67 239.553 673.671 239.174 673.747 238.807C673.823 238.44 673.973 238.092 674.189 237.785C674.404 237.478 674.679 237.218 674.998 237.021C675.317 236.823 675.673 236.693 676.043 236.638L674.944 228.411C674.199 228.429 673.468 228.203 672.862 227.768C672.257 227.333 671.81 226.713 671.589 226.001C670.696 223.436 673.89 222.653 673.89 222.653L671.313 214.199C671.01 214.321 670.684 214.376 670.358 214.361C670.032 214.346 669.712 214.26 669.422 214.11C669.132 213.96 668.878 213.749 668.676 213.491C668.475 213.234 668.332 212.936 668.257 212.618C667.252 210.126 668.687 209.685 669.697 208.902L667.114 200.95C667.114 200.95 664.606 202.413 663.549 199.843C663.549 199.843 661.742 197.487 664.687 195.384L660.907 187.958C660.907 187.958 659.156 189.623 657.128 186.735C657.128 186.735 655.632 184.881 657.922 182.755L653.404 176.123C653.404 176.123 651.802 177.301 649.448 174.674C649.448 174.674 647.866 173.069 650.222 171.262L644.474 164.51C644.474 164.51 642.533 166.331 640.833 163.411C640.833 163.411 639.475 162.272 641.354 160.067L635.037 153.972C635.037 153.972 633.429 155.63 631.29 153.426C631.035 153.254 630.821 153.028 630.665 152.763C630.508 152.498 630.413 152.202 630.385 151.896C630.357 151.59 630.397 151.281 630.503 150.993C630.609 150.704 630.778 150.443 630.997 150.228L624.408 144.429C624.408 144.429 623.011 146.913 620.646 144.298C620.646 144.298 618.494 143.404 620.019 141L613.067 136.204C613.067 136.204 611.09 138.723 608.678 136.837C606.265 134.951 608.018 133.539 608.018 133.539L600.18 129.422C600.054 129.767 599.848 130.078 599.579 130.329C599.309 130.58 598.985 130.764 598.631 130.865C598.277 130.967 597.904 130.983 597.543 130.914C597.182 130.844 596.842 130.689 596.551 130.463C596.551 130.463 593.483 129.209 594.869 127.041L587.12 123.823C586.99 124.176 586.779 124.494 586.504 124.751C586.229 125.008 585.899 125.198 585.538 125.305C585.177 125.413 584.796 125.434 584.425 125.368C584.055 125.303 583.704 125.151 583.402 124.927C583.057 124.902 582.723 124.796 582.427 124.617C582.132 124.438 581.883 124.191 581.701 123.896C581.519 123.602 581.41 123.269 581.383 122.924C581.355 122.58 581.41 122.233 581.542 121.914L573.025 119.433C573.025 119.433 572.761 122.612 569.764 121.502C569.421 121.454 569.094 121.329 568.805 121.138C568.516 120.946 568.274 120.693 568.096 120.396C567.918 120.098 567.809 119.765 567.776 119.42C567.743 119.075 567.788 118.728 567.907 118.402L559.12 116.785C559.148 117.161 559.081 117.538 558.925 117.882C558.77 118.226 558.53 118.524 558.228 118.751C557.927 118.977 557.573 119.124 557.2 119.178C556.827 119.232 556.446 119.192 556.092 119.06C555.756 119.121 555.409 119.1 555.083 118.997C554.757 118.895 554.46 118.714 554.219 118.471C553.978 118.229 553.8 117.931 553.7 117.604C553.6 117.277 553.581 116.93 553.645 116.594L544.87 115.884C544.87 115.884 545.311 118.268 542.209 117.974C539.107 117.68 539.09 115.682 539.09 115.682L530.475 115.381C530.64 115.727 530.71 116.111 530.68 116.494C530.649 116.876 530.518 117.244 530.3 117.559C530.082 117.875 529.784 118.128 529.438 118.292C529.091 118.456 528.707 118.526 528.324 118.494C525.118 118.71 525.034 116.414 525.034 116.414L516.654 117.519C516.654 117.519 517.38 120.165 514.089 120.617C510.797 121.07 510.869 119.031 510.869 119.031L502.446 121.03C502.554 121.333 502.592 121.657 502.56 121.978C502.528 122.298 502.425 122.608 502.258 122.884C502.092 123.16 501.867 123.396 501.599 123.574C501.331 123.753 501.026 123.87 500.707 123.917C500.01 124.098 499.274 124.065 498.596 123.823C497.917 123.582 497.327 123.142 496.901 122.561L489.267 125.734C489.473 126.382 489.424 127.085 489.128 127.698C488.833 128.312 488.314 128.788 487.678 129.03C487.006 129.276 486.273 129.3 485.587 129.1C484.9 128.899 484.296 128.484 483.862 127.915L476.205 131.447C476.374 131.791 476.469 132.167 476.483 132.55C476.497 132.933 476.431 133.315 476.288 133.67C476.144 134.026 475.928 134.347 475.652 134.613C475.376 134.88 475.047 135.085 474.687 135.215C471.94 136.342 470.863 134.339 470.863 134.339L464.16 138.691C464.16 138.691 464.796 141.738 462.714 142.571C462.174 142.825 461.572 142.918 460.981 142.84C460.389 142.761 459.833 142.514 459.378 142.127L452.417 147.595C452.417 147.595 453.754 149.355 451.635 151.247C449.516 153.138 448.118 151.288 448.118 151.288L441.927 157.208C442.209 157.431 442.434 157.717 442.584 158.042C442.734 158.368 442.806 158.725 442.794 159.083C442.781 159.442 442.685 159.793 442.512 160.107C442.339 160.422 442.095 160.691 441.799 160.894C439.601 162.87 438.008 161.58 438.008 161.58L432.324 168.009C432.324 168.009 434.462 169.318 432.615 171.546C430.769 173.775 428.819 172.396 428.819 172.396L424.112 179.602C424.112 179.602 426.418 180.501 424.638 183.3C422.859 186.099 421.433 184.422 421.433 184.422L417.328 191.922C417.683 192.111 417.991 192.376 418.232 192.698C418.472 193.02 418.639 193.392 418.719 193.786C418.799 194.18 418.791 194.587 418.695 194.977C418.6 195.368 418.419 195.733 418.166 196.045C416.349 198.69 414.769 197.019 414.769 197.019L411.531 205.335C411.531 205.335 413.976 205.671 413.21 208.833C412.445 211.994 409.966 210.444 409.966 210.444L407.477 219.191C407.477 219.191 410.079 219.696 409.67 222.051C409.26 224.406 406.149 224.385 406.149 224.385L404.863 233.075C404.863 233.075 407.742 232.848 407.295 236.272C406.848 239.696 404.275 238.35 404.275 238.35L403.643 247.063C403.643 247.063 406.674 246.863 406.309 250.432C405.944 254 403.448 252.625 403.448 252.625L403.625 261.639C403.625 261.639 406.916 261.186 406.817 264.043C406.838 264.405 406.787 264.768 406.665 265.109C406.543 265.451 406.354 265.765 406.108 266.031C405.862 266.298 405.565 266.512 405.234 266.661C404.904 266.81 404.546 266.891 404.184 266.899L405.5 275.789C405.5 275.789 408.958 275.255 408.87 277.785C408.782 280.315 408.036 280.704 406.623 281.146L408.701 289.822C408.701 289.822 411.917 289.028 412.158 291.493C412.4 293.958 411.567 294.344 410.399 294.959L413.558 303.007C413.558 303.007 416.37 302.199 417.026 304.678C417.682 307.158 415.769 307.833 415.769 307.833L419.383 315.985C419.383 315.985 422.487 314.619 423.366 317.598C424.245 320.577 422.144 321.322 422.144 321.322L427.052 328.361C427.052 328.361 429.408 326.566 430.961 328.989C431.185 329.272 431.345 329.601 431.431 329.951C431.518 330.302 431.527 330.667 431.46 331.022C431.393 331.377 431.25 331.713 431.042 332.008C430.833 332.303 430.564 332.55 430.251 332.731L435.739 339.725C435.739 339.725 437.539 337.604 439.488 340.26C441.437 342.916 439.359 343.946 439.359 343.946L445.209 349.959C445.459 349.67 445.773 349.443 446.127 349.298C446.481 349.152 446.863 349.091 447.245 349.121C447.626 349.15 447.995 349.268 448.322 349.466C448.65 349.664 448.926 349.936 449.129 350.26C451.096 352.709 449.94 352.996 449.578 353.966L456.01 359.584C456.01 359.584 458.146 356.875 460.105 359.564C462.064 362.252 460.315 362.934 460.315 362.934L467.851 367.564C467.851 367.564 469.242 365.244 471.706 367.208C474.171 369.172 472.734 370.607 472.734 370.607L480.291 374.637C480.291 374.637 481.618 371.976 483.924 373.782C486.23 375.587 485.298 377.269 485.298 377.269L493.538 380.505C493.538 380.505 493.801 377.653 496.863 379.07C499.926 380.487 498.808 382.163 498.808 382.163L507.238 384.641C507.238 384.641 507.981 382.134 510.161 382.865C512.341 383.596 512.735 384.178 512.526 385.491L521.141 387.343C521.158 386.99 521.251 386.645 521.414 386.332C521.577 386.018 521.807 385.744 522.086 385.528C522.366 385.313 522.689 385.161 523.034 385.083C523.378 385.004 523.736 385.002 524.081 385.076C526.944 385.329 526.748 386.261 526.616 387.534L535.34 387.839C535.55 387.294 535.918 386.825 536.397 386.492C536.875 386.158 537.443 385.975 538.026 385.967C539.989 386.036 540.636 386.277 540.575 388.021L549.43 388.331C549.43 388.331 549.628 385.149 552.485 385.249C552.81 385.146 553.155 385.124 553.49 385.185C553.824 385.246 554.139 385.388 554.407 385.599C554.674 385.81 554.886 386.083 555.023 386.394C555.16 386.706 555.22 387.046 555.195 387.385L564.243 386.227C564.243 386.227 563.677 383.675 566.142 383.433C566.473 383.324 566.824 383.289 567.17 383.329C567.515 383.369 567.848 383.484 568.145 383.666C568.442 383.848 568.696 384.092 568.889 384.382C569.082 384.671 569.21 385 569.264 385.344L577.791 382.857C577.791 382.857 576.761 381.096 579.434 380.207C580.085 379.91 580.821 379.859 581.507 380.064C582.192 380.268 582.78 380.715 583.162 381.32L591.167 378.455C591.167 378.455 589.998 376.612 592.742 375.562C592.742 375.562 594.945 373.455 596.806 376.435L604.316 372.439C604.127 372.143 604.012 371.806 603.982 371.456C603.951 371.106 604.006 370.754 604.14 370.43C604.275 370.105 604.486 369.818 604.755 369.593C605.024 369.368 605.344 369.21 605.687 369.135C605.915 368.899 606.197 368.724 606.51 368.624C606.822 368.525 607.154 368.504 607.476 368.564C607.798 368.624 608.101 368.763 608.356 368.968C608.612 369.173 608.813 369.438 608.941 369.74L616.389 365.327C616.208 365.056 616.09 364.749 616.044 364.427C615.997 364.105 616.023 363.777 616.12 363.466C616.216 363.155 616.381 362.87 616.602 362.632C616.823 362.393 617.095 362.207 617.397 362.086C619.627 360.778 620.756 362.204 620.756 362.204L628.157 356.326C627.903 356.113 627.701 355.845 627.567 355.542C627.432 355.239 627.368 354.91 627.38 354.579C627.391 354.248 627.478 353.924 627.634 353.632C627.789 353.339 628.009 353.086 628.277 352.891C628.511 352.657 628.79 352.474 629.098 352.353C629.405 352.232 629.734 352.176 630.065 352.187C630.395 352.199 630.719 352.278 631.018 352.42C631.316 352.563 631.582 352.765 631.799 353.014L638.305 347.105C638.305 347.105 636.825 345.088 638.431 343.506C638.431 343.506 640.801 341.296 641.992 342.538L647.771 336.189C647.771 336.189 645.633 334.892 647.908 332.274C647.908 332.274 648.721 330.25 651.05 331.401L656.184 324.451C656.184 324.451 653.707 323.469 655.276 320.739C656.846 318.01 659.085 319.562 659.085 319.562L663.2 311.757C663.2 311.757 660.218 310.561 661.786 307.864C661.786 307.864 662.516 305.706 665.515 306.444L668.5 298.523C668.163 298.419 667.855 298.241 667.596 298.002C667.338 297.763 667.137 297.469 667.007 297.142C666.877 296.815 666.822 296.463 666.845 296.112C666.869 295.761 666.972 295.419 667.145 295.113C667.204 294.791 667.335 294.487 667.528 294.223C667.721 293.958 667.972 293.741 668.26 293.586C668.548 293.432 668.868 293.344 669.195 293.33C669.522 293.316 669.848 293.375 670.149 293.504L672.973 285.162C672.973 285.162 670.601 285.243 670.786 282.138C670.786 282.138 670.637 279.523 673.751 279.468L675.138 271C675.138 271 672.854 270.756 673.216 267.57C673.244 267.237 673.339 266.912 673.495 266.616C673.651 266.32 673.865 266.058 674.124 265.846C674.382 265.634 674.681 265.477 675.002 265.382C675.323 265.288 675.66 265.259 675.993 265.298L676.293 256.682C676.293 256.682 674.423 256.475 674.193 253.683ZM654.172 255.768C651.943 319.597 598.684 369.567 535.215 367.351C471.746 365.135 422.081 311.57 424.31 247.741C426.539 183.912 479.798 133.942 543.266 136.158C606.735 138.374 656.401 191.928 654.172 255.768Z" fill="#2F3536"/>
<path d="M667.495 256.32C669.956 185.85 614.992 126.739 544.74 124.286C474.489 121.832 415.525 176.965 413.064 247.435C410.603 317.905 465.566 377.016 535.829 379.469C606.092 381.923 665.035 326.779 667.495 256.32ZM660.949 256.179C658.595 323.584 602.16 376.326 535.049 373.983C467.938 371.639 415.407 315.092 417.761 247.686C420.115 180.281 476.43 127.523 543.574 129.868C610.718 132.213 663.302 188.806 660.949 256.179Z" fill="#232729"/>
<path d="M426.078 191.201C424.685 193.795 423.384 196.442 422.176 199.145L419.91 196.172L426.078 191.201Z" fill="#585956"/>
<path d="M432.709 180.142C431.111 182.532 429.588 184.979 428.14 187.484L426.307 184.614L432.709 180.142Z" fill="#585956"/>
<path d="M441.124 168.962C439.233 171.218 437.416 173.535 435.673 175.912L433.925 173.154L441.124 168.962Z" fill="#585956"/>
<path d="M450.336 159.063C448.294 161.037 446.316 163.071 444.401 165.166L442.751 162.696L450.336 159.063Z" fill="#585956"/>
<path d="M460.21 150.499C458.032 152.213 455.895 154.006 453.832 155.855L453.323 151.994L460.21 150.499Z" fill="#585956"/>
<path d="M470.377 143.264C468.4 144.527 466.454 145.856 464.55 147.231L464.673 143.709L470.377 143.264Z" fill="#585956"/>
<path d="M482.653 136.302C480.164 137.536 477.716 138.859 475.32 140.25L475.467 136.051L482.653 136.302Z" fill="#585956"/>
<path d="M495.39 130.796C492.593 131.79 489.855 132.972 487.116 134.186L487.92 130.535L495.39 130.796Z" fill="#585956"/>
<path d="M509.062 126.644C506.264 127.339 503.503 128.12 500.78 128.986L500.914 125.147L509.062 126.644Z" fill="#585956"/>
<path d="M522.584 124.026C519.534 124.433 516.526 124.907 513.544 125.589L514.413 121.939L522.584 124.026Z" fill="#585956"/>
<path d="M536.208 122.897C533.191 122.989 530.197 123.182 527.224 123.479L528.13 120.049L536.208 122.897Z" fill="#585956"/>
<path d="M549.324 123.158C547.799 123.051 546.273 122.975 544.735 122.922C543.198 122.868 541.671 122.815 540.142 122.838L541.999 119.987L549.324 123.158Z" fill="#585956"/>
<path d="M562.024 124.672C559.549 124.258 557.057 123.913 554.548 123.636L555.51 120.459L562.024 124.672Z" fill="#585956"/>
<path d="M575.51 127.707C572.85 126.959 570.166 126.287 567.445 125.711L569.403 122.799L575.51 127.707Z" fill="#585956"/>
<path d="M588.717 132.22C585.932 131.096 583.1 130.065 580.222 129.128L583.035 126.431L588.717 132.22Z" fill="#585956"/>
<path d="M600.299 137.582C598.157 136.415 595.879 135.342 593.622 134.324L595.956 131.588L600.299 137.582Z" fill="#585956"/>
<path d="M612.34 144.76C609.858 143.094 607.315 141.51 604.71 140.006L608.669 138.256L612.34 144.76Z" fill="#585956"/>
<path d="M623.482 153.142C621.265 151.285 618.991 149.492 616.659 147.783L620.236 145.725L623.482 153.142Z" fill="#585956"/>
<path d="M632.589 161.529C630.796 159.712 628.958 157.948 627.074 156.238L629.986 154.461L632.589 161.529Z" fill="#585956"/>
<path d="M641.433 171.555C639.853 169.589 638.228 167.655 636.536 165.783L639.138 164.422L641.433 171.555Z" fill="#585956"/>
<path d="M650.274 184.105C648.662 181.493 646.95 178.944 645.158 176.469L648 175.76L650.274 184.105Z" fill="#585956"/>
<path d="M656.112 194.593C655.017 192.371 653.863 190.205 652.648 188.095L655.473 186.938L656.112 194.593Z" fill="#585956"/>
<path d="M661.899 208.094C660.904 205.318 659.789 202.561 658.605 199.888L661.716 199.276L661.899 208.094Z" fill="#585956"/>
<path d="M665.736 220.708C665.066 218.02 664.31 215.362 663.47 212.734L666.026 212.409L665.736 220.708Z" fill="#585956"/>
<path d="M668.287 233.56C667.919 230.971 667.474 228.389 666.951 225.871L669.993 225.977L668.287 233.56Z" fill="#585956"/>
<path d="M669.439 247.249C669.34 244.45 669.153 241.681 668.878 238.92L671.746 239.02L669.439 247.249Z" fill="#585956"/>
<path d="M669.211 260.671C669.262 259.221 669.389 257.773 669.44 256.312C669.483 255.079 669.526 253.847 669.569 252.615L673.069 253.709L669.211 260.671Z" fill="#585956"/>
<path d="M667.774 272.97C668.16 270.668 668.47 268.353 668.727 266.015L671.347 266.958L667.774 272.97Z" fill="#585956"/>
<path d="M664.469 287.616C665.224 284.978 665.899 282.312 666.496 279.618L669.132 280.419L664.469 287.616Z" fill="#585956"/>
<path d="M660.348 299.604C661.15 297.506 661.933 295.383 662.7 293.233L665.594 294.164L660.348 299.604Z" fill="#585956"/>
<path d="M654.423 312.345C655.669 310.001 656.845 307.607 657.949 305.164L660.437 306.757L654.423 312.345Z" fill="#585956"/>
<path d="M647.368 324.01C648.971 321.664 650.493 319.254 651.933 316.778L653.954 318.312L647.368 324.01Z" fill="#585956"/>
<path d="M639.665 334.18C641.26 332.27 642.784 330.314 644.237 328.312L646.383 329.403L639.665 334.18Z" fill="#585956"/>
<path d="M629.975 344.64C631.761 342.912 633.5 341.153 635.193 339.363L637.45 340.708L629.975 344.64Z" fill="#585956"/>
<path d="M619.897 353.373C621.715 351.952 623.491 350.496 625.225 348.985L627.354 350.577L619.897 353.373Z" fill="#585956"/>
<path d="M608.524 361.317C610.656 359.983 612.757 358.593 614.805 357.169L616.73 358.634L608.524 361.317Z" fill="#585956"/>
<path d="M597.968 367.217C599.857 366.268 601.726 365.285 603.531 364.245L605.1 365.883L597.968 367.217Z" fill="#585956"/>
<path d="M585.351 372.682C587.608 371.844 589.841 370.943 592.051 369.979L593.335 372.306L585.351 372.682Z" fill="#585956"/>
<path d="M571.422 376.978C574.197 376.288 576.932 375.51 579.648 374.655L579.541 377.72L571.422 376.978Z" fill="#585956"/>
<path d="M559.024 379.407C561.406 379.064 563.757 378.655 566.099 378.18L566.844 380.597L559.024 379.407Z" fill="#585956"/>
<path d="M545.453 380.646C547.894 380.557 550.313 380.394 552.709 380.157L552.62 382.687L545.453 380.646Z" fill="#585956"/>
<path d="M530.97 380.415C532.551 380.47 538.503 380.743 539.88 380.726L539.775 383.736L530.97 380.415Z" fill="#585956"/>
<path d="M518.41 378.906C521 379.346 523.615 379.711 526.255 379.999L525.377 383.244L518.41 378.906Z" fill="#585956"/>
<path d="M505.001 375.894C507.779 376.679 510.594 377.378 513.445 377.969L511.686 380.484L505.001 375.894Z" fill="#585956"/>
<path d="M492.763 371.742C495.412 372.773 498.097 373.74 500.83 374.6L497.987 376.914L492.763 371.742Z" fill="#585956"/>
<path d="M479.996 365.914C482.612 367.294 485.286 368.584 488.017 369.786L485.613 371.711L479.996 365.914Z" fill="#585956"/>
<path d="M468.526 359.104C470.767 360.602 473.064 362.029 475.419 363.385L473.162 365.49L468.526 359.104Z" fill="#585956"/>
<path d="M458.182 351.438C460.369 353.239 462.62 354.967 464.935 356.62L461.411 358.102L458.182 351.438Z" fill="#585956"/>
<path d="M447.611 341.778C449.621 343.835 451.695 345.826 453.834 347.749L450.562 349.524L447.611 341.778Z" fill="#585956"/>
<path d="M439.044 332.034C440.811 334.28 442.648 336.407 444.551 338.494L440.369 338.806L439.044 332.034Z" fill="#585956"/>
<path d="M431.876 322.143C433.203 324.169 434.589 326.15 436.036 328.086L432.764 327.972L431.876 322.143Z" fill="#585956"/>
<path d="M424.284 308.873C425.652 311.606 427.098 314.288 428.644 316.919L424.009 316.757L424.284 308.873Z" fill="#585956"/>
<path d="M419.127 297.01C420.13 299.567 421.134 302.069 422.238 304.543L418.203 304.402L419.127 297.01Z" fill="#585956"/>
<path d="M414.848 283.31C415.556 286.152 416.365 288.946 417.274 291.693L413.482 291.146L414.848 283.31Z" fill="#585956"/>
<path d="M412.348 270.808C412.772 273.662 413.289 276.482 413.898 279.27L410.053 278.043L412.348 270.808Z" fill="#585956"/>
<path d="M411.049 257.006C411.17 259.794 411.368 262.575 411.654 265.325L407.607 263.95L411.049 257.006Z" fill="#585956"/>
<path d="M411.235 243.134C411.187 244.508 411.073 245.89 411.025 247.275C410.967 248.919 410.943 250.555 410.952 252.186L407.218 249.981L411.235 243.134Z" fill="#585956"/>
<path d="M412.959 228.914C412.441 231.844 412.01 234.809 411.687 237.812L408.575 235.629L412.959 228.914Z" fill="#585956"/>
<path d="M415.685 217.064C414.945 219.71 414.291 222.388 413.723 225.098L410.481 222.266L415.685 217.064Z" fill="#585956"/>
<path d="M417.29 211.804C418.147 209.148 419.101 206.528 420.129 203.965L414.746 208.985L417.29 211.804Z" fill="#585956"/>
<path fill-rule="evenodd" clip-rule="evenodd" d="M535.428 365.899C597.962 368.083 650.442 318.692 652.646 255.582C654.85 192.472 605.943 139.541 543.409 137.357C480.876 135.174 428.396 184.564 426.192 247.674C423.988 310.784 472.895 363.715 535.428 365.899ZM536.188 344.187C586.84 345.956 629.349 305.95 631.134 254.831C632.92 203.712 593.305 160.838 542.653 159.069C492 157.3 449.492 197.306 447.706 248.425C445.921 299.544 485.536 342.419 536.188 344.187Z" fill="url(#paint7_radial)"/>
<path fill-rule="evenodd" clip-rule="evenodd" d="M538.22 285.909C556.98 286.564 572.724 271.747 573.386 252.814C574.047 233.881 559.375 218.002 540.615 217.347C521.854 216.692 506.11 231.509 505.449 250.442C504.788 269.375 519.46 285.254 538.22 285.909ZM539.018 263.054C545.271 263.272 550.519 258.333 550.739 252.022C550.96 245.711 546.069 240.418 539.816 240.2C533.562 239.982 528.314 244.921 528.094 251.232C527.874 257.543 532.764 262.836 539.018 263.054Z" fill="#050608"/>
<mask id="mask7" mask-type="alpha" maskUnits="userSpaceOnUse" x="422" y="133" width="235" height="237">
<ellipse cx="539.422" cy="251.629" rx="113.296" ry="114.34" transform="rotate(2 539.422 251.629)" fill="url(#paint8_angular)"/>
</mask>
<g mask="url(#mask7)">
<path d="M549.085 226.509L554.189 137.162L546.829 136.905L544.026 217.18C543.898 220.837 539.174 218.155 539.174 218.155C539.174 218.155 534.91 216.05 532.51 214.204C527.454 210.314 524.233 205.048 522.475 201.268L498.681 144.09L479.943 153.161C490.401 170.211 512.562 205.956 515.363 210.172C518.863 215.443 522.989 219.02 527.711 221.759C532.434 224.498 535.498 226.035 542.202 228.843C547.565 231.09 549.025 228.223 549.085 226.509Z" fill="url(#paint9_angular)"/>
<path d="M548.919 276.458L599.31 349.648L605.268 345.275C590.782 325.166 560.732 283.618 558.601 280.659C556.469 277.701 561.83 276.875 561.83 276.875C561.83 276.875 566.475 275.882 569.494 275.844C575.852 275.764 581.606 277.908 585.298 279.791L638.159 309.895L647.392 291.104C628.743 284.181 590.25 269.938 585.469 268.359C579.493 266.384 574.058 266.133 568.664 266.912C563.271 267.691 559.917 268.385 552.92 270.342C547.321 271.906 547.92 275.071 548.919 276.458Z" fill="url(#paint10_angular)"/>
<path d="M517.377 267.161L461.145 335.954L466.935 340.543C482.163 320.982 513.766 280.587 516.007 277.709C518.247 274.831 520.492 279.811 520.492 279.811C520.492 279.811 522.703 284.049 523.561 286.97C525.368 293.122 524.89 299.294 524.099 303.394L509.785 362.947L530.211 366.775C531.737 346.776 534.84 305.508 535.045 300.435C535.3 294.093 534.061 288.747 531.85 283.723C529.64 278.699 528.066 275.633 524.297 269.373C521.281 264.366 518.427 265.812 517.377 267.161Z" fill="url(#paint11_angular)"/>
<path d="M520.696 234.247L442.208 191.825L438.915 198.474C460.955 209.582 506.94 233.387 510.182 235.021C513.425 236.655 509.042 239.88 509.042 239.88C509.042 239.88 505.372 242.921 502.709 244.358C497.1 247.386 491.013 248.158 486.875 248.203L425.634 246.05L426.014 267.014C445.732 264.488 486.976 259.248 491.942 258.427C498.149 257.4 503.089 255.096 507.522 251.897C511.956 248.698 514.616 246.524 519.936 241.535C524.192 237.543 522.216 235.013 520.696 234.247Z" fill="url(#paint12_angular)"/>
<path d="M566.026 249.979L650.124 222.866L647.756 215.83C624.423 223.842 576.311 240.712 572.878 241.89C569.445 243.069 570.257 237.658 570.257 237.658C570.257 237.658 570.697 232.888 571.558 229.967C573.371 223.814 577.11 218.903 579.989 215.902L624.183 173.861L609.144 159.402C597.051 175.328 572.136 208.214 569.221 212.354C565.577 217.53 563.725 222.694 562.859 228.123C561.994 233.552 561.655 236.989 561.427 244.313C561.244 250.172 564.417 250.531 566.026 249.979Z" fill="url(#paint13_angular)"/>
</g>
<ellipse cx="528.222" cy="231.216" rx="4.53185" ry="4.57362" transform="rotate(2 528.222 231.216)" fill="#C4C4C4"/>
<ellipse cx="554.829" cy="232.145" rx="4.53184" ry="4.57362" transform="rotate(2 554.829 232.145)" fill="#C4C4C4"/>
<ellipse cx="561.817" cy="259.275" rx="4.53185" ry="4.57362" transform="rotate(2 561.817 259.275)" fill="#C4C4C4"/>
<ellipse cx="538.613" cy="274.483" rx="4.53184" ry="4.57361" transform="rotate(2 538.613 274.483)" fill="#C4C4C4"/>
<ellipse cx="517.091" cy="257.713" rx="4.53185" ry="4.57362" transform="rotate(2 517.091 257.713)" fill="#C4C4C4"/>
<ellipse cx="528.222" cy="231.215" rx="3.39889" ry="3.43021" transform="rotate(2 528.222 231.215)" fill="#4A4A4A"/>
<ellipse cx="554.83" cy="232.145" rx="3.39888" ry="3.43021" transform="rotate(2 554.83 232.145)" fill="#4A4A4A"/>
<ellipse cx="561.817" cy="259.274" rx="3.39889" ry="3.43022" transform="rotate(2 561.817 259.274)" fill="#4A4A4A"/>
<ellipse cx="538.613" cy="274.482" rx="3.39889" ry="3.4302" transform="rotate(2 538.613 274.482)" fill="#4A4A4A"/>
<ellipse cx="517.092" cy="257.713" rx="3.39889" ry="3.43022" transform="rotate(2 517.092 257.713)" fill="#4A4A4A"/>
</g>
</g>
</g>
<path d="M297.707 285.511C302.104 285.511 305.668 281.947 305.668 277.55C305.668 273.153 302.104 269.589 297.707 269.589C293.311 269.589 289.746 273.153 289.746 277.55C289.746 281.947 293.311 285.511 297.707 285.511Z" fill="#798787"/>
<path d="M471.221 79.4299C473.212 79.4299 474.84 81.0583 474.84 83.0486V88.4765C474.84 90.4668 473.212 92.0952 471.221 92.0952H244.513C242.523 92.0952 240.895 90.4668 240.895 88.4765V83.0486C240.895 81.0583 242.523 79.4299 244.513 79.4299H471.221Z" fill="#F4753D"/>
<path d="M312.233 275.197C312.776 277.187 311.509 279.177 309.7 279.72L304.453 281.168C302.463 281.711 300.473 280.444 299.93 278.635L222.985 38.1759C222.442 36.1856 223.708 34.1954 225.518 33.6526L230.765 32.2051C232.755 31.6624 234.745 32.9289 235.288 34.7382L312.233 275.197Z" fill="#F4753D"/>
<path d="M249.038 71.6498C249.942 74.7257 247.952 77.9824 244.876 78.8871L236.553 81.0583C233.478 81.963 230.221 79.9727 229.316 76.8969L217.194 31.483C216.289 28.4071 218.279 25.1503 221.355 24.2457L229.678 22.0745C232.754 21.1698 236.011 23.16 236.915 26.2359L249.038 71.6498Z" fill="#E25D29"/>
<path d="M546.31 251.134C547.033 252.943 546.129 255.115 544.138 255.838L539.072 257.828C537.263 258.552 535.092 257.648 534.368 255.657L464.89 71.8302C464.166 70.0209 465.071 67.8497 467.061 67.1259L472.127 65.1357C473.937 64.412 476.108 65.3167 476.832 67.3069L546.31 251.134Z" fill="#F4753D"/>
<path d="M490.399 96.4365C491.485 99.5124 490.038 102.769 486.962 104.036L478.82 107.112C475.744 108.197 472.487 106.75 471.221 103.674L458.555 65.8591C457.47 62.7832 458.917 59.5264 461.993 58.2599L470.135 55.184C473.211 54.0984 476.468 55.5459 477.734 58.6218L490.399 96.4365Z" fill="#E25D29"/>
<path d="M285.767 34.1965C268.578 34.1965 251.028 47.5854 230.22 47.5854C209.232 47.5854 187.159 34.3775 184.083 23.3406C181.007 12.3037 195.12 5.06639 205.614 10.4944C216.108 15.9223 223.526 21.8931 239.629 21.8931C255.732 21.8931 273.644 20.8075 280.881 22.6168C288.119 24.4262 288.119 31.1207 285.767 34.1965Z" fill="#292C2D"/>
<path d="M540.338 239.915C533.824 239.915 528.396 245.343 528.396 252.038C528.396 258.732 533.824 264.16 540.338 264.16C546.852 264.16 552.28 258.732 552.28 252.038C552.28 245.343 547.032 239.915 540.338 239.915Z" fill="#A6A9AD"/>
<path d="M540.339 245.888C537.083 245.888 534.369 248.601 534.369 252.039C534.369 255.477 537.083 258.191 540.339 258.191C543.596 258.191 546.31 255.477 546.31 252.039C546.31 248.601 543.596 245.888 540.339 245.888Z" fill="#292E2E"/>
<path d="M358.189 208.614C358.189 210.243 356.923 211.509 355.294 211.509H307.709C306.081 211.509 304.814 210.243 304.814 208.614V204.815C304.814 203.187 306.081 201.92 307.709 201.92H355.294C356.923 201.92 358.189 203.187 358.189 204.815V208.614Z" fill="#272B2B"/>
<path d="M318.924 346.485C318.924 348.113 317.657 349.379 316.029 349.379H268.444C266.815 349.379 265.549 348.113 265.549 346.485V342.685C265.549 341.057 266.815 339.79 268.444 339.79H316.029C317.657 339.79 318.924 341.057 318.924 342.685V346.485Z" fill="#272B2B"/>
<path d="M292.874 344.675H286.541L304.453 280.987H310.786L292.874 344.675Z" fill="#1A1C1C"/>
<path d="M312.957 273.75H306.443L324.356 210.062H330.869L312.957 273.75Z" fill="#1A1C1C"/>
<path d="M145.003 256.381C143.917 258.009 141.565 258.552 139.937 257.466L135.413 254.572C133.785 253.486 133.242 251.134 134.328 249.506L237.278 85.0382C238.364 83.4098 240.716 82.867 242.344 83.9526L246.868 86.8475C248.496 87.9331 249.039 90.2852 247.953 91.9136L145.003 256.381Z" fill="#F4753D"/>
<path d="M143.009 232.861H142.828L141.381 232.68C140.114 232.499 139.21 231.413 139.391 230.327C139.572 229.061 140.657 228.156 141.743 228.337L143.19 228.518C144.457 228.699 145.362 229.785 145.181 230.87C145 231.956 144.095 232.861 143.009 232.861Z" fill="#535C5C"/>
<path d="M298.972 247.153H298.791L295.715 246.792C295.173 246.792 294.63 246.43 294.268 246.068C293.906 246.43 293.363 246.611 292.64 246.43L289.564 246.068C289.021 246.068 288.478 245.706 288.116 245.344C287.754 245.706 287.212 245.887 286.488 245.706L283.412 245.344C282.869 245.344 282.326 244.982 281.965 244.62C281.603 244.982 281.06 245.163 280.336 244.982L277.803 245.163C277.26 245.163 276.718 244.801 276.356 244.439C275.994 244.801 275.451 244.982 274.727 244.801L271.651 244.439C271.109 244.439 270.566 244.078 270.204 243.716C269.842 244.078 269.299 244.259 268.576 244.078L265.5 243.716C264.957 243.716 264.414 243.354 264.052 242.992C263.69 243.354 263.148 243.535 262.424 243.354L259.348 242.992C258.805 242.992 258.262 242.63 257.901 242.268C257.539 242.63 256.996 242.811 256.272 242.63L253.196 242.268C252.654 242.268 252.111 241.906 251.749 241.545C251.387 241.906 250.844 242.087 250.121 241.906L247.045 241.545C246.502 241.545 245.959 241.183 245.597 240.821C245.235 241.183 244.693 241.364 243.969 241.183L240.893 240.821C240.35 240.821 239.807 240.459 239.445 240.097C239.084 240.459 238.541 240.64 237.817 240.459L234.741 240.097C234.198 240.097 233.656 239.735 233.294 239.373C232.932 239.735 232.389 239.916 231.665 239.735L228.59 239.373C228.047 239.373 227.504 239.012 227.142 238.65C226.78 239.012 226.237 239.192 225.514 239.011L222.438 238.65C221.895 238.65 221.352 238.288 220.99 237.926C220.629 238.288 220.086 238.469 219.362 238.288L216.286 237.926C215.743 237.926 215.201 237.564 214.839 237.202C214.477 237.564 213.934 237.745 213.21 237.564L210.134 237.202C209.592 237.202 209.049 236.84 208.687 236.478C208.325 236.84 207.782 237.021 207.059 236.84L203.983 236.478C203.44 236.478 202.897 236.117 202.535 235.755C202.174 236.117 201.631 236.298 200.907 236.117L197.831 235.755C197.288 235.755 196.746 235.393 196.384 235.031C196.022 235.393 195.479 235.574 194.755 235.393L191.679 235.031C191.137 235.031 190.594 234.669 190.232 234.307C189.87 234.669 189.327 234.85 188.604 234.669L185.528 234.307C184.985 234.307 184.442 233.945 184.08 233.584C183.718 233.945 183.176 234.126 182.452 233.945L179.376 233.584C178.833 233.584 178.29 233.222 177.929 232.86C177.567 233.222 177.024 233.403 176.3 233.222L173.224 232.86C172.682 232.86 172.139 232.498 171.777 232.136C171.415 232.498 170.872 232.679 170.148 232.498L167.073 232.136C166.53 232.136 165.987 231.774 165.625 231.412C165.263 231.774 164.72 231.955 163.997 231.774L160.921 231.412C160.378 231.412 159.835 231.05 159.473 230.689C159.112 231.05 158.569 231.231 157.845 231.051L154.769 230.689C154.226 230.689 153.684 230.327 153.322 229.965C152.96 230.327 152.417 230.508 151.693 230.327L148.618 229.965C148.075 229.965 147.532 229.603 147.17 229.241C146.808 229.603 146.265 229.784 145.542 229.603L142.466 229.241C141.199 229.06 140.295 227.975 140.476 226.889C140.656 225.623 141.742 224.718 142.828 224.899L145.904 225.261C146.446 225.261 146.989 225.623 147.351 225.984C147.713 225.623 148.256 225.442 148.979 225.623L152.055 225.984C152.598 225.984 153.141 226.346 153.503 226.708C153.865 226.346 154.407 226.165 155.131 226.346L158.207 226.708C158.75 226.708 159.293 227.07 159.654 227.432C160.016 227.07 160.559 226.889 161.283 227.07L164.359 227.432C164.901 227.432 165.444 227.794 165.806 228.156C166.168 227.794 166.711 227.613 167.434 227.794L170.51 228.156C171.053 228.156 171.596 228.517 171.958 228.879C172.32 228.517 172.863 228.336 173.586 228.517L176.662 228.879C177.205 228.879 177.748 229.241 178.11 229.603C178.471 229.241 179.014 229.06 179.738 229.241L182.814 229.603C183.357 229.603 183.899 229.965 184.261 230.327C184.623 229.965 185.166 229.784 185.89 229.965L188.965 230.327C189.508 230.327 190.051 230.689 190.413 231.051C190.775 230.689 191.317 230.508 192.041 230.689L195.117 231.051C195.66 231.051 196.203 231.412 196.565 231.774C196.926 231.412 197.469 231.231 198.193 231.412L201.269 231.774C201.812 231.774 202.354 232.136 202.716 232.498C203.078 232.136 203.621 231.955 204.345 232.136L207.42 232.498C207.963 232.498 208.506 232.86 208.868 233.222C209.23 232.86 209.773 232.679 210.496 232.86L213.572 233.222C214.115 233.222 214.658 233.584 215.02 233.945C215.381 233.584 215.924 233.403 216.648 233.584L219.724 233.945C220.267 233.945 220.81 234.307 221.171 234.669C221.533 234.307 222.076 234.126 222.8 234.307L225.876 234.669C226.418 234.669 226.961 235.031 227.323 235.393C227.685 235.031 228.228 234.85 228.951 235.031L232.027 235.393C232.57 235.393 233.113 235.755 233.475 236.117C233.837 235.755 234.379 235.574 235.103 235.755L238.179 236.117C238.722 236.117 239.265 236.479 239.626 236.84C239.988 236.479 240.531 236.298 241.255 236.478L244.331 236.84C244.873 236.84 245.416 237.202 245.778 237.564C246.14 237.202 246.683 237.021 247.407 237.202L250.482 237.564C251.025 237.564 251.568 237.926 251.93 238.288C252.292 237.926 252.834 237.745 253.558 237.926L256.634 238.288C257.177 238.288 257.72 238.65 258.081 239.011C258.443 238.65 258.986 238.469 259.71 238.65L262.786 239.011C263.329 239.011 263.871 239.373 264.233 239.735C264.595 239.373 265.138 239.192 265.862 239.373L268.937 239.735C269.48 239.735 270.023 240.097 270.385 240.459C270.747 240.097 271.29 239.916 272.013 240.097L275.089 240.459C275.632 240.459 276.175 240.821 276.537 241.183C276.898 240.821 277.441 240.64 278.165 240.821L281.241 241.183C281.784 241.183 282.326 241.545 282.688 241.906C283.05 241.545 283.593 241.364 284.317 241.545L287.392 241.906C287.935 241.906 288.478 242.268 288.84 242.63C289.202 242.268 289.745 242.087 290.468 242.268L293.544 242.63C294.087 242.63 294.63 242.992 294.992 243.354C295.354 242.992 295.896 242.811 296.62 242.992L299.696 243.354C300.962 243.535 301.867 244.62 301.686 245.706C301.143 246.249 300.239 247.153 298.972 247.153Z" fill="#535C5C"/>
<path d="M303.495 247.515H303.314L301.866 247.334C300.6 247.154 299.695 246.068 299.876 244.982C300.057 243.716 301.143 242.811 302.228 242.992L303.676 243.173C304.942 243.354 305.847 244.44 305.666 245.525C305.666 246.611 304.58 247.515 303.495 247.515Z" fill="#535C5C"/>
<path d="M128.897 274.475H128.716L127.268 274.113C126.002 273.751 125.278 272.665 125.64 271.399C126.002 270.132 127.087 269.409 128.354 269.77L129.801 270.132C131.068 270.494 131.792 271.58 131.43 272.846C131.068 273.751 129.982 274.475 128.897 274.475Z" fill="#535C5C"/>
<path d="M281.241 311.204H281.06L278.165 310.48C277.623 310.299 277.08 309.937 276.899 309.575C276.356 309.756 275.813 309.937 275.27 309.756L272.375 309.033C271.833 308.852 271.29 308.49 271.109 308.128C270.566 308.309 270.023 308.49 269.481 308.309L266.586 307.585C266.043 307.404 265.5 307.042 265.319 306.68C264.776 306.861 264.234 307.042 263.691 306.861L260.796 306.138C260.253 305.957 259.71 305.595 259.529 305.233C258.987 305.414 258.444 305.595 257.901 305.414L255.006 304.69C254.463 304.509 253.92 304.147 253.739 303.786C253.197 303.967 252.654 304.147 252.111 303.966L249.216 303.243C248.673 303.062 248.131 302.7 247.95 302.338C247.407 302.519 246.864 302.7 246.321 302.519L243.426 301.795C242.884 301.614 242.341 301.252 242.16 300.891C241.617 301.072 241.074 301.253 240.531 301.072L237.636 300.348C237.094 300.167 236.551 299.805 236.37 299.443C235.827 299.624 235.284 299.805 234.742 299.624L231.847 298.9C231.304 298.719 230.761 298.358 230.58 297.996C230.037 298.177 229.495 298.358 228.952 298.177L225.333 297.634C224.79 297.453 224.248 297.091 224.067 296.729C223.524 296.91 222.981 297.091 222.438 296.91L219.543 296.186C219 296.005 218.458 295.644 218.277 295.282C217.734 295.463 217.191 295.644 216.648 295.463L213.753 294.739C213.211 294.558 212.668 294.196 212.487 293.834C211.944 294.015 211.401 294.196 210.859 294.015L207.964 293.291C207.421 293.111 206.878 292.749 206.697 292.387C206.154 292.568 205.611 292.749 205.069 292.568L202.174 291.844C201.631 291.663 201.088 291.301 200.907 290.939C200.364 291.12 199.822 291.301 199.279 291.12L196.384 290.397C195.841 290.216 195.298 289.854 195.117 289.492C194.575 289.673 194.032 289.854 193.489 289.673L190.594 288.949C190.051 288.768 189.509 288.406 189.328 288.044C188.785 288.225 188.242 288.406 187.699 288.225L184.804 287.502C184.261 287.321 183.719 286.959 183.538 286.597C182.995 286.778 182.452 286.959 181.909 286.778L179.015 286.054C178.472 285.873 177.929 285.511 177.748 285.149C177.205 285.33 176.662 285.511 176.12 285.33L173.225 284.607C172.682 284.426 172.139 284.064 171.958 283.702C171.415 283.883 170.873 284.064 170.33 283.883L167.435 283.159C166.892 282.978 166.349 282.616 166.168 282.255C165.625 282.436 165.083 282.616 164.54 282.436L161.645 281.712C161.102 281.531 160.559 281.169 160.378 280.807C159.836 280.988 159.293 281.169 158.75 280.988L155.855 280.264C155.312 280.083 154.77 279.722 154.589 279.36C154.046 279.541 153.503 279.722 152.96 279.541L150.065 278.817C149.523 278.636 148.98 278.274 148.799 277.912C148.256 278.093 147.713 278.274 147.17 278.093L144.276 277.369C143.733 277.189 143.19 276.827 143.009 276.465C142.466 276.646 141.923 276.827 141.381 276.646L138.486 275.922C137.943 275.741 137.4 275.379 137.219 275.017C136.676 275.198 136.134 275.379 135.591 275.198L132.696 274.475C131.429 274.113 130.706 273.027 131.068 271.761C131.429 270.494 132.515 269.77 133.782 270.132L136.676 270.856C137.219 271.037 137.762 271.399 137.943 271.761C138.486 271.58 139.028 271.399 139.571 271.58L142.466 272.303C143.009 272.484 143.552 272.846 143.733 273.208C144.276 273.027 144.818 272.846 145.361 273.027L148.256 273.751C148.799 273.932 149.342 274.294 149.523 274.655C150.065 274.475 150.608 274.294 151.151 274.475L154.046 275.198C154.589 275.379 155.131 275.741 155.312 276.103C155.855 275.922 156.398 275.741 156.941 275.922L159.836 276.646C160.378 276.827 160.921 277.189 161.102 277.55C161.645 277.37 162.188 277.189 162.731 277.369L165.626 278.093C166.168 278.274 166.711 278.636 166.892 278.998C167.435 278.817 167.978 278.636 168.52 278.817L171.415 279.541C171.958 279.722 172.501 280.083 172.682 280.445C173.225 280.264 173.767 280.083 174.31 280.264L177.205 280.988C177.748 281.169 178.291 281.531 178.472 281.893C179.014 281.712 179.557 281.531 180.1 281.712L182.995 282.436C183.538 282.616 184.081 282.978 184.262 283.34C184.804 283.159 185.347 282.978 185.89 283.159L188.785 283.883C189.328 284.064 189.87 284.426 190.051 284.788C190.594 284.607 191.137 284.426 191.68 284.607L194.575 285.33C195.117 285.511 195.66 285.873 195.841 286.235C196.384 286.054 196.927 285.873 197.47 286.054L200.365 286.778C200.907 286.959 201.45 287.321 201.631 287.683C202.174 287.502 202.717 287.321 203.259 287.502L206.154 288.225C206.697 288.406 207.24 288.768 207.421 289.13C207.964 288.949 208.506 288.768 209.049 288.949L211.944 289.673C212.487 289.854 213.03 290.216 213.211 290.577C213.753 290.397 214.296 290.216 214.839 290.397L217.734 291.12C218.277 291.301 218.82 291.663 219 292.025C219.543 291.844 220.086 291.663 220.629 291.844L223.524 292.568C224.067 292.749 224.609 293.111 224.79 293.472C225.333 293.292 225.876 293.111 226.419 293.291L229.314 294.015C229.856 294.196 230.399 294.558 230.58 294.92C231.123 294.739 231.666 294.558 232.209 294.739L235.104 295.463C235.646 295.644 236.189 296.005 236.37 296.367C236.913 296.186 237.456 296.005 237.998 296.186L240.893 296.91C241.436 297.091 241.979 297.453 242.16 297.815C242.703 297.634 243.245 297.453 243.788 297.634L246.683 298.358C247.226 298.539 247.769 298.9 247.95 299.262C248.492 299.081 249.035 298.9 249.578 299.081L252.473 299.805C253.016 299.986 253.559 300.348 253.739 300.71C254.282 300.529 254.825 300.348 255.368 300.529L258.263 301.252C258.806 301.433 259.348 301.795 259.529 302.157C260.072 301.976 260.615 301.795 261.158 301.976L264.053 302.7C264.595 302.881 265.138 303.243 265.319 303.605C265.862 303.424 266.405 303.243 266.948 303.424L269.842 304.147C270.385 304.328 270.928 304.69 271.109 305.052C271.652 304.871 272.195 304.69 272.737 304.871L275.632 305.595C276.175 305.776 276.718 306.138 276.899 306.5C277.442 306.319 277.984 306.138 278.527 306.319L281.422 307.042C282.689 307.404 283.412 308.49 283.051 309.756C283.412 310.48 282.327 311.204 281.241 311.204Z" fill="#535C5C"/>
<path d="M285.582 312.107H285.401L283.954 311.746C282.687 311.384 281.964 310.298 282.326 309.032C282.687 307.765 283.773 307.041 285.04 307.403L286.487 307.765C287.754 308.127 288.477 309.212 288.115 310.479C287.754 311.565 286.668 312.288 285.582 312.107Z" fill="#535C5C"/>
<path d="M290.35 313.798H290.169L288.722 313.436C287.455 313.074 286.731 311.988 287.093 310.722C287.455 309.455 288.541 308.732 289.807 309.094L291.255 309.455C292.521 309.817 293.245 310.903 292.883 312.169C292.521 313.255 291.435 313.979 290.35 313.798Z" fill="#535C5C"/>
<path d="M135.594 259.456C133.604 259.094 132.156 257.285 132.518 255.294L133.423 250.047C133.785 248.057 135.594 246.61 137.584 246.971L299.338 271.397C301.328 271.759 302.775 273.568 302.413 275.559L301.509 280.806C301.147 282.796 299.338 284.244 297.347 283.882L135.594 259.456Z" fill="#F4753D"/>
<path d="M139.754 223.994C124.556 223.994 112.253 236.478 112.253 252.038C112.253 267.598 124.556 280.083 139.754 280.083C154.953 280.083 167.256 267.598 167.256 252.038C167.256 236.478 154.953 223.994 139.754 223.994Z" fill="#292C2D"/>
<path d="M135.594 273.208C135.413 273.208 135.232 273.208 135.051 273.208C134.689 273.027 134.147 273.027 133.785 272.846C132.518 272.484 131.794 271.217 132.156 269.77C132.518 268.503 133.785 267.78 135.051 268.141C135.413 268.322 135.775 268.322 136.137 268.503C137.403 268.865 138.127 270.132 137.946 271.398C137.584 272.484 136.68 273.208 135.594 273.208ZM145.002 272.846C143.917 272.846 143.012 272.122 142.65 271.036C142.289 269.77 143.012 268.503 144.279 268.141C144.641 267.961 145.003 267.96 145.183 267.78C146.45 267.237 147.717 267.96 148.259 269.227C148.621 270.494 148.078 271.941 146.812 272.303C146.45 272.484 145.907 272.665 145.545 272.665C145.545 272.846 145.183 272.846 145.002 272.846ZM126.366 267.96C125.824 267.96 125.1 267.78 124.738 267.237C124.376 266.875 124.195 266.513 123.834 266.151C122.929 265.066 123.11 263.618 124.014 262.713C124.919 261.809 126.547 261.99 127.271 262.894C127.452 263.075 127.814 263.437 127.995 263.618C128.9 264.523 128.9 266.151 127.995 267.056C127.452 267.78 126.909 267.96 126.366 267.96ZM154.049 267.056C153.506 267.056 152.964 266.875 152.421 266.513C151.516 265.608 151.335 264.161 152.24 263.075C152.421 262.894 152.602 262.533 152.964 262.171C153.687 261.085 155.316 260.904 156.22 261.809C157.306 262.533 157.487 264.161 156.582 265.246C156.22 265.608 156.039 265.97 155.678 266.332C155.316 266.875 154.592 267.056 154.049 267.056ZM121.3 258.371C120.215 258.371 119.31 257.647 118.948 256.381C118.767 256.019 118.767 255.476 118.767 255.114C118.586 253.848 119.491 252.581 120.758 252.4C122.024 252.219 123.291 253.124 123.472 254.391C123.472 254.752 123.653 255.114 123.653 255.476C123.833 256.743 123.11 258.009 121.843 258.371C121.662 258.371 121.481 258.371 121.3 258.371ZM158.391 257.286C158.211 257.286 158.211 257.286 158.03 257.286C156.763 257.105 155.858 255.838 156.039 254.572C156.039 254.21 156.039 253.848 156.22 253.486C156.401 252.219 157.487 251.134 158.753 251.315C160.02 251.496 161.106 252.581 160.925 253.848C160.925 254.391 160.925 254.752 160.744 255.295C160.563 256.381 159.477 257.286 158.391 257.286ZM122.205 247.696C121.843 247.696 121.662 247.696 121.3 247.515C120.034 246.972 119.491 245.706 119.853 244.439C120.034 244.077 120.215 243.535 120.396 243.173C120.939 241.906 122.386 241.363 123.472 241.906C124.738 242.449 125.1 243.897 124.557 245.163C124.376 245.525 124.195 245.887 124.195 246.068C124.014 246.972 123.11 247.696 122.205 247.696ZM156.944 246.61C156.039 246.61 155.135 246.068 154.773 245.163C154.592 244.801 154.411 244.439 154.23 244.258C153.687 243.173 154.049 241.544 155.135 241.002C156.22 240.459 157.668 240.821 158.391 242.087C158.572 242.449 158.753 242.992 158.934 243.354C159.477 244.62 158.934 246.068 157.668 246.61C157.668 246.43 157.306 246.61 156.944 246.61ZM128.538 239.011C127.814 239.011 127.09 238.649 126.728 238.107C126.005 237.021 126.186 235.574 127.271 234.669C127.633 234.307 127.995 234.126 128.357 233.945C129.442 233.222 130.89 233.583 131.614 234.669C132.337 235.755 131.975 237.202 130.89 237.926C130.528 238.107 130.347 238.288 129.985 238.469C129.623 238.83 129.08 239.011 128.538 239.011ZM150.069 238.288C149.707 238.288 149.164 238.107 148.802 237.926C148.44 237.745 148.259 237.564 147.897 237.383C146.812 236.659 146.269 235.212 146.993 234.126C147.717 233.041 148.983 232.498 150.25 233.222C150.611 233.403 150.973 233.764 151.335 233.945C152.421 234.669 152.783 236.116 152.059 237.202C151.516 237.926 150.792 238.288 150.069 238.288ZM138.489 235.393C137.222 235.393 136.137 234.488 136.137 233.222C136.137 231.955 137.042 230.688 138.308 230.688C138.67 230.688 139.213 230.688 139.575 230.688C140.841 230.688 141.927 231.774 141.927 233.041C141.927 234.307 140.841 235.393 139.575 235.393H139.394C139.394 235.212 139.032 235.212 138.489 235.393C138.67 235.393 138.67 235.393 138.489 235.393Z" fill="#A6A9AD"/>
<path d="M139.754 239.915C133.24 239.915 127.812 245.343 127.812 252.038C127.812 258.732 133.24 264.16 139.754 264.16C146.267 264.16 151.695 258.732 151.695 252.038C151.695 245.343 146.267 239.915 139.754 239.915Z" fill="#A6A9AD"/>
<path d="M139.755 245.888C136.498 245.888 133.784 248.601 133.784 252.039C133.784 255.477 136.498 258.191 139.755 258.191C143.012 258.191 145.726 255.477 145.726 252.039C145.726 248.601 143.012 245.888 139.755 245.888Z" fill="#292E2E"/>
<path d="M335.757 264.704L331.234 257.648L310.607 271.037V246.43H302.284V271.037L281.658 257.648L277.135 264.704L298.847 278.636L277.135 292.568L281.658 299.624L302.284 286.235V310.842H310.607V286.235L331.234 299.624L335.757 292.568L314.045 278.636L335.757 264.704Z" fill="#A6A9AD"/>
<path d="M344.258 268.866C343.535 267.961 342.63 266.876 342.449 266.333C342.268 265.609 342.268 264.162 342.449 262.895C342.63 260.181 342.811 256.563 340.64 253.668C338.468 250.773 335.031 249.868 332.317 249.144C331.05 248.783 329.784 248.421 329.241 248.059C328.698 247.697 327.974 246.43 327.251 245.526C325.803 243.174 323.813 240.279 320.375 239.012C319.471 238.65 318.566 238.65 317.48 238.65C315.128 238.65 312.957 239.555 311.148 240.279C309.881 240.822 308.615 241.183 307.891 241.183C307.167 241.183 305.72 240.641 304.634 240.279C302.644 239.555 300.654 238.65 298.301 238.65C297.397 238.65 296.311 238.831 295.407 239.012C291.969 240.098 289.979 243.174 288.531 245.526C287.807 246.43 287.084 247.697 286.541 248.059C285.998 248.421 284.551 248.783 283.465 249.144C280.751 249.868 277.313 250.773 275.142 253.668C272.971 256.563 273.152 260 273.333 262.895C273.333 264.162 273.514 265.609 273.333 266.333C273.152 266.876 272.247 267.961 271.523 268.866C269.714 271.037 267.543 273.751 267.543 277.551C267.543 281.35 269.714 284.064 271.523 286.236C272.247 287.14 273.152 288.226 273.333 288.769C273.514 289.492 273.514 290.94 273.333 292.206C273.152 294.92 272.971 298.539 275.142 301.434C277.313 304.329 280.751 305.233 283.465 305.957C284.732 306.319 285.998 306.681 286.541 307.043C287.084 307.405 287.807 308.671 288.531 309.576C289.979 311.928 291.969 314.823 295.407 316.089C296.311 316.451 297.216 316.451 298.301 316.451C300.654 316.451 302.825 315.547 304.634 314.823C305.901 314.28 307.167 313.918 307.891 313.918C308.615 313.918 310.062 314.461 311.148 314.823C313.138 315.547 315.128 316.451 317.48 316.451C318.385 316.451 319.471 316.27 320.375 316.089C323.813 315.004 325.803 311.928 327.251 309.576C327.974 308.671 328.698 307.405 329.241 307.043C329.784 306.681 331.231 306.319 332.317 305.957C335.031 305.233 338.468 304.329 340.64 301.434C342.811 298.539 342.63 295.101 342.449 292.206C342.449 290.94 342.268 289.492 342.449 288.769C342.63 288.226 343.535 287.14 344.258 286.236C346.068 284.064 348.239 281.35 348.239 277.551C348.239 273.751 346.068 271.037 344.258 268.866ZM307.71 304.148C293.054 304.148 281.113 292.206 281.113 277.551C281.113 262.895 293.054 250.954 307.71 250.954C322.365 250.954 334.307 262.895 334.307 277.551C334.488 292.206 322.546 304.148 307.71 304.148Z" fill="#4D5757"/>
<path d="M307.71 294.921C317.303 294.921 325.08 287.144 325.08 277.551C325.08 267.959 317.303 260.182 307.71 260.182C298.117 260.182 290.341 267.959 290.341 277.551C290.341 287.144 298.117 294.921 307.71 294.921Z" fill="#4B5454"/>
<path d="M307.711 288.768C313.906 288.768 318.929 283.746 318.929 277.55C318.929 271.355 313.906 266.333 307.711 266.333C301.515 266.333 296.493 271.355 296.493 277.55C296.493 283.746 301.515 288.768 307.711 288.768Z" fill="#5D6969"/>
<path d="M307.712 282.617C310.51 282.617 312.778 280.349 312.778 277.551C312.778 274.753 310.51 272.485 307.712 272.485C304.914 272.485 302.646 274.753 302.646 277.551C302.646 280.349 304.914 282.617 307.712 282.617Z" fill="#343B3B"/>
<path d="M494.743 24.9686C501.638 24.9686 507.227 19.3793 507.227 12.4844C507.227 5.58946 501.638 0 494.743 0C487.848 0 482.259 5.58946 482.259 12.4844C482.259 19.3793 487.848 24.9686 494.743 24.9686Z" fill="#292C2D"/>
<path d="M494.745 18.9975C498.342 18.9975 501.258 16.0814 501.258 12.484C501.258 8.88668 498.342 5.9704 494.745 5.9704C491.147 5.9704 488.231 8.88668 488.231 12.484C488.231 16.0814 491.147 18.9975 494.745 18.9975Z" fill="#A6A9AD"/>
<defs>
<radialGradient id="paint0_radial" cx="0" cy="0" r="1" gradientUnits="userSpaceOnUse" gradientTransform="translate(139.559 251.633) rotate(92) scale(114.03 112.988)">
<stop offset="0.794735" stop-color="#050608"/>
<stop offset="0.953596" stop-color="#050608" stop-opacity="0.4"/>
<stop offset="0.994839" stop-color="#050608"/>
</radialGradient>
<radialGradient id="paint1_angular" cx="0" cy="0" r="1" gradientUnits="userSpaceOnUse" gradientTransform="translate(139.561 251.634) rotate(90) scale(114.34 113.296)">
<stop offset="0.416667"/>
<stop offset="1" stop-color="#8B8B8B"/>
</radialGradient>
<radialGradient id="paint2_angular" cx="0" cy="0" r="1" gradientUnits="userSpaceOnUse" gradientTransform="translate(115.911 182.229) rotate(92) scale(46.376 36.8213)">
<stop offset="0.416667"/>
<stop offset="1" stop-color="#8B8B8B"/>
</radialGradient>
<radialGradient id="paint3_angular" cx="0" cy="0" r="1" gradientUnits="userSpaceOnUse" gradientTransform="translate(202.055 290.625) rotate(-125.767) scale(46.0459 36.6159)">
<stop offset="0.416667"/>
<stop offset="1" stop-color="#8B8B8B"/>
</radialGradient>
<radialGradient id="paint4_angular" cx="0" cy="0" r="1" gradientUnits="userSpaceOnUse" gradientTransform="translate(118.352 322.423) rotate(-52.0998) scale(46.0573 36.716)">
<stop offset="0.416667"/>
<stop offset="1" stop-color="#8B8B8B"/>
</radialGradient>
<radialGradient id="paint5_angular" cx="0" cy="0" r="1" gradientUnits="userSpaceOnUse" gradientTransform="translate(67.0954 245.977) rotate(26.7457) scale(46.2102 37.2166)">
<stop offset="0.416667"/>
<stop offset="1" stop-color="#8B8B8B"/>
</radialGradient>
<radialGradient id="paint6_angular" cx="0" cy="0" r="1" gradientUnits="userSpaceOnUse" gradientTransform="translate(195.245 202.994) rotate(161.05) scale(45.8045 36.6662)">
<stop offset="0.416667"/>
<stop offset="1" stop-color="#8B8B8B"/>
</radialGradient>
<radialGradient id="paint7_radial" cx="0" cy="0" r="1" gradientUnits="userSpaceOnUse" gradientTransform="translate(539.419 251.628) rotate(92) scale(114.03 112.988)">
<stop offset="0.794735" stop-color="#050608"/>
<stop offset="0.953596" stop-color="#050608" stop-opacity="0.4"/>
<stop offset="0.994839" stop-color="#050608"/>
</radialGradient>
<radialGradient id="paint8_angular" cx="0" cy="0" r="1" gradientUnits="userSpaceOnUse" gradientTransform="translate(539.422 251.629) rotate(90) scale(114.34 113.296)">
<stop offset="0.416667"/>
<stop offset="1" stop-color="#8B8B8B"/>
</radialGradient>
<radialGradient id="paint9_angular" cx="0" cy="0" r="1" gradientUnits="userSpaceOnUse" gradientTransform="translate(515.772 182.224) rotate(92) scale(46.376 36.8213)">
<stop offset="0.416667"/>
<stop offset="1" stop-color="#8B8B8B"/>
</radialGradient>
<radialGradient id="paint10_angular" cx="0" cy="0" r="1" gradientUnits="userSpaceOnUse" gradientTransform="translate(601.916 290.62) rotate(-125.768) scale(46.0459 36.6159)">
<stop offset="0.416667"/>
<stop offset="1" stop-color="#8B8B8B"/>
</radialGradient>
<radialGradient id="paint11_angular" cx="0" cy="0" r="1" gradientUnits="userSpaceOnUse" gradientTransform="translate(518.212 322.418) rotate(-52.0998) scale(46.0573 36.716)">
<stop offset="0.416667"/>
<stop offset="1" stop-color="#8B8B8B"/>
</radialGradient>
<radialGradient id="paint12_angular" cx="0" cy="0" r="1" gradientUnits="userSpaceOnUse" gradientTransform="translate(466.956 245.972) rotate(26.7458) scale(46.2102 37.2166)">
<stop offset="0.416667"/>
<stop offset="1" stop-color="#8B8B8B"/>
</radialGradient>
<radialGradient id="paint13_angular" cx="0" cy="0" r="1" gradientUnits="userSpaceOnUse" gradientTransform="translate(595.106 202.99) rotate(161.05) scale(45.8045 36.6662)">
<stop offset="0.416667"/>
<stop offset="1" stop-color="#8B8B8B"/>
</radialGradient>
</defs>
</svg>
