<svg width="619" height="384" viewBox="0 0 619 384" fill="none" xmlns="http://www.w3.org/2000/svg">
<path fill-rule="evenodd" clip-rule="evenodd" d="M281.53 276.238C277.006 276.238 273.388 279.856 273.388 284.38C273.388 288.903 277.006 292.522 281.53 292.522C286.053 292.522 289.672 288.903 289.672 284.38C289.672 279.856 286.053 276.238 281.53 276.238Z" fill="#A3A5A7"/>
<path fill-rule="evenodd" clip-rule="evenodd" d="M281.532 278.409C278.275 278.409 275.561 281.123 275.561 284.38C275.561 287.637 278.275 290.351 281.532 290.351C284.789 290.351 287.503 287.637 287.503 284.38C287.503 281.123 284.789 278.409 281.532 278.409Z" fill="#E4E8EA"/>
<path fill-rule="evenodd" clip-rule="evenodd" d="M278.996 290.894L277.186 289.085L275.196 287.275V285.647L227.43 267.554L229.601 261.583L277.548 279.676L278.634 278.41L281.167 278.229H283.881L285.69 280.038L287.681 281.666V284.38L287.862 286.914L286.052 288.904L284.243 290.713H281.71L278.996 290.894Z" fill="#68696B"/>
<path fill-rule="evenodd" clip-rule="evenodd" d="M281.53 280.761C279.54 280.761 277.911 282.389 277.911 284.38C277.911 286.37 279.54 287.998 281.53 287.998C283.52 287.998 285.148 286.37 285.148 284.38C285.148 282.389 283.52 280.761 281.53 280.761Z" fill="#A6A9AD"/>
<path fill-rule="evenodd" clip-rule="evenodd" d="M240.277 269.543H216.575C215.489 269.543 214.585 268.638 214.585 267.553V261.582C214.585 260.496 215.489 259.592 216.575 259.592H240.277C241.363 259.592 242.267 260.496 242.267 261.582V267.553C242.448 268.638 241.544 269.543 240.277 269.543Z" fill="#292C2D"/>
<path fill-rule="evenodd" clip-rule="evenodd" d="M228.518 260.136C226.166 260.136 224.176 262.126 224.176 264.478C224.176 266.83 226.166 268.821 228.518 268.821C230.87 268.821 232.86 266.83 232.86 264.478C232.86 262.126 230.87 260.136 228.518 260.136Z" fill="#68696B"/>
<path fill-rule="evenodd" clip-rule="evenodd" d="M282.979 277.866H280.265H277.732L276.465 278.951L229.242 259.592L226.89 265.562L274.113 284.922V286.731L275.922 288.541L277.732 290.35H280.446H282.979L284.788 288.541L286.597 286.551V284.018V281.484L284.788 279.675L282.979 277.866Z" fill="#68696B"/>
<path fill-rule="evenodd" clip-rule="evenodd" d="M240.457 257.963L216.755 257.782C215.67 257.782 214.765 258.687 214.765 259.773V265.743C214.765 266.829 215.67 267.734 216.755 267.734L240.457 267.915C241.543 267.915 242.448 267.01 242.448 265.924V259.954C242.629 259.049 241.724 257.963 240.457 257.963Z" fill="#292C2D"/>
<path fill-rule="evenodd" clip-rule="evenodd" d="M225.08 265.925C223.451 264.116 223.632 261.402 225.442 259.773C227.251 258.145 229.965 258.326 231.593 260.135C233.222 261.944 233.041 264.658 231.232 266.287C229.422 267.915 226.708 267.734 225.08 265.925Z" fill="#68696B"/>
<path fill-rule="evenodd" clip-rule="evenodd" d="M459.931 140.72C461.378 140.72 462.464 136.015 462.464 130.226C462.464 124.436 461.378 119.731 459.931 119.731C458.484 119.731 457.398 124.436 457.398 130.226C457.398 136.015 458.484 140.72 459.931 140.72Z" fill="#E4E8EA"/>
<path fill-rule="evenodd" clip-rule="evenodd" d="M438.578 152.842C441.111 151.576 444.368 138.91 444.368 138.91C440.568 136.196 437.854 132.759 438.397 129.14C439.664 120.274 454.138 117.56 461.376 118.103C461.376 119.189 460.471 141.624 459.928 141.805C459.385 141.986 451.605 141.263 449.977 140.72C448.348 140.177 447.987 140.177 447.987 140.177C447.987 140.177 446.539 145.424 444.006 150.128C441.292 154.833 439.302 156.642 439.302 156.642L437.312 153.385L438.578 152.842Z" fill="#868A91"/>
<path fill-rule="evenodd" clip-rule="evenodd" d="M454.141 120.456C453.96 121.18 453.779 127.331 453.779 127.331C452.512 127.331 439.847 129.503 439.666 129.322C439.485 128.96 440.571 125.884 445.456 123.351C450.522 120.456 454.141 120.456 454.141 120.456Z" fill="#A3A5A7"/>
<path fill-rule="evenodd" clip-rule="evenodd" d="M455.769 118.465C457.759 118.284 459.749 118.284 461.197 118.284C461.197 119.37 460.292 141.806 459.749 141.987C459.388 141.987 457.035 141.806 454.864 141.625L455.769 118.465Z" fill="#A6A9AD"/>
<path fill-rule="evenodd" clip-rule="evenodd" d="M444.55 143.071C444.55 142.89 425.009 88.0679 422.838 72.6887C421.39 63.0993 422.657 54.4146 423.742 46.4535C424.466 41.5684 425.009 36.8642 425.009 32.5218C425.009 26.732 424.828 23.1133 423.923 20.9421C423.2 18.9519 421.752 18.4091 419.038 18.2281C413.61 18.0472 406.735 29.265 406.735 29.265L405.468 28.5413C405.468 28.5413 412.886 16.5997 419.219 16.7807C422.476 16.9616 424.285 17.8663 425.371 20.3993C426.275 22.7514 426.456 26.551 426.456 32.5218C426.456 37.0451 425.733 41.7493 425.19 46.6345C424.104 54.5955 422.838 63.0993 424.285 72.5078C426.456 87.7061 445.816 142.529 445.997 142.709L444.55 143.071Z" fill="#A3A5A7"/>
<path fill-rule="evenodd" clip-rule="evenodd" d="M426.275 159.899L446.72 152.662L446.901 153.205L448.167 152.662C448.891 152.3 449.796 152.843 450.158 153.566C450.52 154.29 449.977 155.195 449.253 155.557L447.986 156.1L448.167 156.642L427.722 163.88L427.541 163.337L426.275 163.88C425.551 164.241 424.646 163.699 424.284 162.975C423.923 162.251 424.465 161.347 425.189 160.985L426.456 160.442L426.275 159.899Z" fill="#2F3031"/>
<mask id="mask0" mask-type="alpha" maskUnits="userSpaceOnUse" x="0" y="147" width="237" height="237">
<circle cx="118.4" cy="265.954" r="118" fill="#C4C4C4"/>
</mask>
<g mask="url(#mask0)">
<mask id="mask1" mask-type="alpha" maskUnits="userSpaceOnUse" x="0" y="147" width="237" height="237">
<circle cx="118.4" cy="265.954" r="118" fill="#C4C4C4"/>
</mask>
<g mask="url(#mask1)">
<mask id="mask2" mask-type="alpha" maskUnits="userSpaceOnUse" x="0" y="147" width="237" height="237">
<circle cx="118.4" cy="265.954" r="118" fill="#C4C4C4"/>
</mask>
<g mask="url(#mask2)">
<path fill-rule="evenodd" clip-rule="evenodd" d="M135.52 152.3C136.424 152.481 137.148 152.481 138.053 152.662C138.415 152.662 138.777 152.843 139.319 152.843C139.681 152.843 140.224 153.024 140.586 153.024C141.31 153.205 142.033 153.386 142.757 153.386H142.938C157.594 156.643 170.982 162.614 182.924 170.756C183.105 170.936 183.286 171.117 183.467 171.117C184.01 171.479 184.371 171.841 184.914 172.203C185.457 172.565 185.819 172.927 186.362 173.289C186.543 173.47 186.724 173.65 186.904 173.65C198.484 182.335 208.435 193.191 216.216 205.856L216.396 206.037C216.758 206.761 217.12 207.304 217.482 208.028C217.663 208.389 217.844 208.751 218.025 209.113C218.206 209.475 218.387 209.837 218.568 210.199C218.929 210.922 219.291 211.646 219.653 212.37V212.551C225.081 223.045 229.062 234.625 231.052 246.747C233.042 259.05 233.223 271.354 231.233 283.295C231.052 284.019 231.052 284.924 230.871 285.647C230.871 286.009 230.69 286.371 230.69 286.914C230.69 287.276 230.509 287.819 230.509 288.18C230.328 288.904 230.147 289.628 230.147 290.352V290.533C226.891 305.188 220.92 318.577 212.778 330.519C212.597 330.7 212.416 330.881 212.416 331.061C212.054 331.604 211.692 331.966 211.33 332.509C210.968 333.052 210.607 333.414 210.245 333.956C210.064 334.137 209.883 334.318 209.883 334.499C201.198 346.079 190.342 356.03 177.677 363.81L177.496 363.991C176.772 364.353 176.23 364.715 175.506 365.077C175.144 365.258 174.782 365.439 174.42 365.619C174.058 365.8 173.696 365.981 173.335 366.162C172.611 366.524 171.887 366.886 171.163 367.248H170.982C160.488 372.676 148.909 376.656 136.786 378.647C124.483 380.818 112.18 380.818 100.238 378.828C99.5143 378.647 98.6096 378.647 97.8859 378.466C97.524 378.466 97.1622 378.285 96.6194 378.285C96.2575 378.285 95.7147 378.104 95.3529 378.104C94.6291 377.923 93.9054 377.742 93.1817 377.742H93.0007C78.3452 374.485 64.9562 368.514 53.0147 360.372C52.8338 360.191 52.6529 360.011 52.4719 360.011C51.9291 359.649 51.5673 359.287 51.0245 358.925C50.4817 358.563 50.1198 358.201 49.577 357.839C49.3961 357.658 49.2151 357.478 49.0342 357.478C37.4546 348.793 27.5033 337.937 19.7232 325.272L19.5423 325.091C19.1804 324.367 18.8186 323.824 18.4567 323.1C18.2758 322.739 18.0948 322.377 17.9139 322.015C17.733 321.653 17.552 321.291 17.3711 320.929C17.0092 320.206 16.6474 319.482 16.2855 318.758V318.577C10.8575 308.083 6.87703 296.503 4.88678 284.381C2.89653 272.078 2.71558 259.774 4.70584 247.833C4.88677 247.109 4.88678 246.204 5.06771 245.481C5.06771 245.119 5.24864 244.757 5.24864 244.214C5.24864 243.852 5.42957 243.309 5.42957 242.947C5.6105 242.224 5.79144 241.5 5.79144 240.776V240.595C9.04822 225.94 15.019 212.551 23.1609 200.609C23.3419 200.428 23.5228 200.248 23.5228 200.067C23.8846 199.524 24.2465 199.162 24.6084 198.619C24.9702 198.076 25.3321 197.714 25.694 197.172C25.8749 196.991 26.0558 196.81 26.0558 196.629C34.7406 185.049 45.5965 175.098 58.2618 167.318L58.4427 167.137C59.1664 166.775 59.7092 166.413 60.4329 166.051C60.7948 165.87 61.1567 165.689 61.5185 165.509C61.8804 165.328 62.2423 165.147 62.6041 164.966C63.3279 164.604 64.0516 164.242 64.7753 163.88H64.9562C75.4503 158.452 87.03 154.472 99.1524 152.481C111.456 150.491 123.759 150.491 135.52 152.3ZM115.798 251.632C115.979 251.632 116.16 251.632 116.341 251.632L115.617 250.908L115.074 251.813C115.255 251.813 115.436 251.632 115.798 251.632ZM114.894 250.366L111.456 246.928L111.094 249.823L114.17 251.813L114.894 250.366ZM111.094 250.547L110.732 253.442L110.913 253.261C111.637 252.718 112.541 252.356 113.446 252.175L111.094 250.547ZM117.788 251.451C118.874 251.451 119.779 251.451 120.864 251.632L119.598 248.918L117.788 251.451ZM123.578 252.537L123.216 251.451L122.312 251.994C122.855 252.175 123.216 252.356 123.578 252.537ZM123.216 250.728L121.95 246.023L120.141 248.375L121.769 251.632L123.216 250.728ZM126.473 254.165C126.835 254.527 127.197 254.708 127.559 255.07L127.74 251.994L124.845 253.08C125.569 253.442 125.93 253.803 126.473 254.165ZM128.825 256.156C129.187 256.517 129.368 256.879 129.73 257.06L130.092 255.975L128.825 256.156ZM130.092 255.251L131.358 250.547L128.644 251.632L128.463 255.251H130.092ZM130.454 258.327L130.635 258.508C131.177 259.412 131.539 260.136 131.901 261.041L133.53 258.689L130.454 258.327ZM132.263 263.393C132.263 263.574 132.263 263.755 132.444 263.936L133.168 263.212L132.263 262.669C132.263 263.031 132.263 263.212 132.263 263.393ZM133.71 262.669L137.148 259.231L134.253 258.87L132.263 261.945L133.71 262.669ZM132.625 265.745C132.625 266.65 132.625 267.554 132.444 268.278C132.444 268.459 132.444 268.459 132.444 268.64L134.977 267.373L132.625 265.745ZM131.539 271.354L132.444 271.173L131.901 270.449C131.72 270.811 131.539 270.992 131.539 271.354ZM133.168 270.992L137.691 269.725L135.52 267.916L132.263 269.545L133.168 270.992ZM130.996 272.258L132.444 275.515L135.339 275.696L132.625 271.716L130.996 272.258ZM132.806 276.42L133.891 279.134L138.415 280.4L135.882 276.601L132.806 276.42ZM139.5 280.581L158.136 285.467L147.461 277.144L136.786 276.42L139.5 280.581ZM146.557 276.42L138.415 270.268L133.53 271.535L136.424 275.877L146.557 276.42ZM130.092 274.068C129.73 274.611 129.368 274.972 129.006 275.334L131.72 275.515L130.635 273.163C130.454 273.344 130.273 273.706 130.092 274.068ZM128.283 276.058V277.686L132.806 278.953L131.72 276.42L128.283 276.058ZM127.559 276.782C127.378 276.963 127.197 277.144 126.835 277.325L127.559 277.506V276.782ZM126.111 277.867L125.569 281.305L128.102 282.933L127.74 278.229L126.111 277.867ZM125.388 282.21L125.026 285.105L128.283 288.361L127.921 283.838L125.388 282.21ZM129.187 289.085L142.757 302.655L137.691 290.352L128.825 284.562L129.187 289.085ZM137.148 289.085L133.349 279.677L128.463 278.41L128.825 283.476L137.148 289.085ZM120.321 280.039C120.141 280.039 120.141 280.039 119.96 280.039L120.321 280.4L120.683 279.858C120.683 280.039 120.502 280.039 120.321 280.039ZM121.045 281.124L124.483 284.381L124.845 281.667L121.95 279.677H121.769L121.045 281.124ZM124.845 280.943L125.207 278.41C124.483 278.772 123.578 279.134 122.855 279.496L124.845 280.943ZM119.055 280.219C118.874 280.219 118.874 280.219 118.693 280.219L116.703 282.933L117.969 285.467L120.141 281.305L119.055 280.219ZM116.341 283.657L114.532 286.009L115.798 290.352L117.788 286.371L116.341 283.657ZM115.979 291.256L121.045 309.711L122.855 296.503L118.15 287.095L115.979 291.256ZM122.855 295.237L124.121 285.286L120.502 281.667L118.331 286.19L122.855 295.237ZM117.788 280.219C117.065 280.219 116.341 280.039 115.436 280.039H115.255L116.341 282.21L117.788 280.219ZM112.541 279.134L112.722 279.677L113.084 279.315C113.084 279.315 112.903 279.315 112.541 279.134ZM112.903 280.4L114.17 284.924L115.798 282.753L114.351 279.677H114.17L112.903 280.4ZM111.456 278.591L108.38 279.858L108.199 282.572L111.999 280.039L111.637 278.772C111.637 278.772 111.637 278.772 111.456 278.591ZM107.656 280.219L104.942 281.305L103.857 285.647L107.475 283.295L107.656 280.219ZM103.495 286.733L98.6096 305.188L106.752 294.694L107.475 284.2L103.495 286.733ZM107.656 293.608L113.808 285.647L112.541 280.762L108.38 283.476L107.656 293.608ZM109.646 277.506C109.285 277.144 108.923 276.963 108.561 276.601L108.38 278.953L110.551 278.048C110.37 278.048 110.008 277.867 109.646 277.506ZM107.837 276.058L107.656 275.877H106.209L104.942 280.4L107.475 279.315L107.837 276.058ZM107.113 275.153C106.933 274.972 106.933 274.792 106.752 274.611L106.571 275.153H107.113ZM106.209 273.887C106.028 273.887 106.028 273.706 106.209 273.887L102.771 273.344L101.324 275.515L106.028 275.153L106.209 273.887ZM101.866 273.163L98.9715 272.801L95.8957 275.877L100.238 275.696L101.866 273.163ZM94.991 276.601L81.602 290.171L93.7244 285.105L99.5143 276.42L94.991 276.601ZM95.1719 284.562L104.399 280.762L105.666 275.877L100.781 276.239L95.1719 284.562ZM103.857 268.097C103.857 267.916 103.857 267.916 103.857 267.735L103.495 268.097L104.038 268.459C103.857 268.459 103.857 268.278 103.857 268.097ZM102.771 268.821L99.5143 272.258L102.228 272.62L104.219 269.725V269.545L102.771 268.821ZM103.133 272.62L105.666 272.982C105.304 272.258 104.942 271.354 104.58 270.63L103.133 272.62ZM103.676 266.831L100.781 264.659L98.4287 265.926L102.59 268.097L103.676 266.831ZM100.238 264.117L97.8859 262.307L93.7244 263.393L97.705 265.383L100.238 264.117ZM92.6389 263.755L74.1838 268.821L87.3918 270.63L96.8003 265.926L92.6389 263.755ZM88.6584 270.63L98.6096 271.897L102.228 268.278L97.705 266.107L88.6584 270.63ZM103.676 265.745C103.676 264.84 103.676 264.117 103.857 263.212V263.031L101.505 264.117L103.676 265.745ZM104.761 260.317L104.038 260.498L104.399 261.041C104.58 260.86 104.761 260.679 104.761 260.317ZM103.314 260.679L98.7906 261.945L100.962 263.574L104.219 261.945L103.314 260.679ZM106.39 257.422C106.571 257.06 106.932 256.698 107.294 256.336L104.58 256.156L105.666 258.689C105.847 258.327 106.028 257.965 106.39 257.422ZM108.561 255.07C108.742 254.889 109.104 254.708 109.285 254.346L108.38 254.165L108.561 255.07ZM107.656 253.984L103.133 252.718L104.219 255.251L107.837 255.432L107.656 253.984ZM72.1935 179.44H71.8317L71.1079 177.631L70.927 177.812C65.68 180.707 60.6139 183.964 56.0906 187.582L57.1762 189.392V189.572L61.8804 196.629L91.3723 225.94L72.1935 179.44ZM59.1664 193.915L56.4524 189.934H56.0906L55.005 188.306C54.824 188.487 54.6431 188.668 54.2813 188.849L55.9096 190.477L55.7287 190.839L59.1664 193.915ZM91.9151 227.568L63.6897 199.524L85.7634 232.996L97.1622 240.595L91.9151 227.568ZM97.8859 241.862L87.03 234.625L97.705 250.547L102.047 251.632L97.8859 241.862ZM96.4384 250.185L85.4016 233.358L42.1588 204.771H41.9779L39.9876 203.504C38.7211 205.133 37.4546 206.761 36.188 208.57C35.4643 209.475 34.9215 210.561 34.1978 211.646L35.8262 212.913V213.094L77.0787 244.938L96.4384 250.185ZM53.3766 189.753C48.6724 193.734 44.5109 198.076 40.7113 202.781L42.5207 204.047V204.409L84.316 232.092L61.1567 197.172L55.3668 191.382H55.1859L53.3766 189.753ZM102.228 252.537L98.0668 251.451L100.6 255.251L103.495 255.432L102.228 252.537ZM103.676 256.156L100.962 255.975L103.495 259.955L104.942 259.593L103.676 256.156ZM102.952 260.136L100.238 255.975L90.1058 255.432L98.0668 261.584L102.952 260.136ZM89.0202 254.527L99.6952 255.251L97.1622 251.27L78.5262 246.385L89.0202 254.527ZM102.771 251.994L107.656 253.261L107.294 248.194L98.7906 242.586L102.771 251.994ZM98.4287 241.319L107.294 247.29L106.932 242.586L93.1817 229.016L98.4287 241.319ZM107.837 243.309L108.199 247.833L110.551 249.461L110.913 246.385L107.837 243.309ZM110.37 250.185L108.199 248.737L108.561 253.442L110.008 253.803L110.37 250.185ZM92.6389 227.025L107.113 241.319L105.847 221.055L82.8685 174.917H82.6876L81.602 172.927C78.5261 174.193 75.4503 175.641 72.3745 177.088L73.0982 179.078L72.9172 179.259L92.6389 227.025ZM82.6876 172.384L83.7732 174.374L83.5923 174.555L105.847 219.064L103.314 176.907L101.324 169.67L101.143 169.489L100.419 167.318C95.7147 168.223 90.8295 169.489 86.1253 171.117C84.8588 171.66 83.7732 172.022 82.6876 172.384ZM104.038 180.526L106.571 220.874L112.722 233.358L114.532 219.245L104.038 180.526ZM112.541 234.625L106.571 222.683L107.837 242.043L111.094 245.3L112.541 234.625ZM121.407 168.223L121.045 168.042L121.226 166.051C120.141 166.051 119.055 166.051 117.969 166.051C113.265 166.051 108.561 166.413 103.857 166.956C103.676 166.956 103.314 166.956 103.133 167.137V169.127L102.952 169.308L103.495 177.088L114.532 217.436L121.407 168.223ZM102.771 173.47L102.59 169.308L102.228 169.127L102.047 167.137C101.866 167.137 101.505 167.137 101.324 167.318L101.866 169.489L101.685 169.67L102.771 173.47ZM111.637 246.023L115.255 249.642L117.608 245.119L113.084 235.891L111.637 246.023ZM113.265 234.625L117.969 244.214L120.141 239.872L115.074 221.055L113.265 234.625ZM120.502 240.957L118.512 245.119L119.779 247.833L121.588 245.481L120.502 240.957ZM119.236 248.375L117.969 245.842L115.798 250.185L116.884 251.27L119.236 248.375ZM115.255 219.245L120.683 238.967L129.73 220.693L132.806 169.489L132.625 169.308L132.806 166.956C129.549 166.413 126.111 166.051 122.674 166.051L122.312 168.223L122.131 168.403L115.255 219.245ZM135.339 167.318C134.977 167.318 134.615 167.137 134.253 167.137L134.072 169.489L133.71 169.67L130.635 219.064L149.632 181.069L151.442 174.374L151.261 174.193L151.804 172.022C146.376 169.851 140.948 168.403 135.339 167.318ZM148.728 184.325L130.635 220.693L129.73 234.806L138.415 223.407L148.728 184.325ZM128.825 235.891L129.73 222.502L121.045 239.872L122.312 244.395L128.825 235.891ZM169.716 182.878L169.535 182.516L170.802 180.707C165.735 177.45 160.307 174.736 154.518 172.565L153.613 174.374H153.432L150.175 180.707L139.5 221.597L169.716 182.878ZM151.261 177.631L152.889 174.555L152.708 174.374L153.613 172.565C153.432 172.565 153.251 172.384 153.07 172.384L152.527 174.555H152.166L151.261 177.631ZM122.493 245.3L123.759 250.185L128.102 247.29L128.644 236.977L122.493 245.3ZM129.549 236.253L128.825 247.109L132.806 244.395L137.691 225.578L129.549 236.253ZM132.625 245.3L128.825 247.833L128.644 250.908L131.539 249.823L132.625 245.3ZM127.921 251.27L128.102 248.375L124.121 251.089L124.483 252.718L127.921 251.27ZM139.138 223.95L133.891 243.671L150.899 232.272L179.124 189.753V189.572L180.391 187.582C178.763 186.316 176.953 185.049 175.325 183.783C174.239 183.059 173.154 182.335 172.068 181.611L170.621 183.421H170.44L139.138 223.95ZM194.323 201.152C190.342 196.448 186 192.286 181.296 188.487L180.029 190.296H179.667L152.527 231.368L188.171 207.847L192.875 203.142V202.961L194.323 201.152ZM185.638 210.199L151.623 232.815L143.662 244.757L156.87 239.329L185.638 210.199ZM142.395 245.3L149.994 233.901L133.71 244.757L132.444 249.461L142.395 245.3ZM204.093 219.969V219.607L206.264 218.703L206.083 218.522C203.188 213.275 199.932 208.209 196.132 203.504L194.323 204.771H194.142L188.533 208.389L158.498 238.786L204.093 219.969ZM191.066 205.675L193.599 204.047V203.685L195.408 202.419C195.227 202.238 195.227 202.238 195.046 202.057L193.418 203.685L193.056 203.504L191.066 205.675ZM132.082 250.366L130.816 255.251L136.063 254.889L141.671 246.385L132.082 250.366ZM142.938 245.842L136.967 254.889L141.852 254.527L155.603 240.595L142.938 245.842ZM140.948 255.432L136.424 255.794L134.615 258.327L137.691 258.689L140.948 255.432ZM133.891 258.146L135.52 255.794L130.635 256.156L130.273 257.784L133.891 258.146ZM157.232 239.872L142.757 254.346L163.202 253.08L208.978 230.282V230.101L210.968 229.016C209.702 225.759 208.255 222.683 206.807 219.607L204.636 220.512L204.455 220.331L157.232 239.872ZM211.692 230.282L209.702 231.368L209.521 231.187L165.374 253.08L208.074 250.547L214.406 248.737L214.587 248.556L216.758 247.833C215.854 243.128 214.587 238.243 212.959 233.539C212.416 232.453 212.054 231.368 211.692 230.282ZM204.274 251.451L163.564 253.984L150.718 260.317L164.831 262.126L204.274 251.451ZM149.271 260.136L161.574 253.984L142.033 255.251L138.596 258.689L149.271 260.136ZM215.492 269.002L215.673 268.64L218.025 269.002C218.025 267.916 218.025 266.831 218.025 265.745C218.025 260.679 217.663 255.613 216.939 250.728L214.587 250.908L214.406 250.728L207.893 251.089L166.64 262.307L215.492 269.002ZM211.511 250.185L214.406 250.004L214.587 249.642L216.939 249.461V249.28V248.918L214.768 249.461L214.587 249.28L211.511 250.185ZM138.053 259.412L134.434 263.031L138.957 265.383L148.185 260.86L138.053 259.412ZM149.452 261.041L139.862 265.926L144.205 268.097L163.021 263.031L149.452 261.041ZM143.119 268.278L138.957 266.288L136.063 267.735L138.415 269.545L143.119 268.278ZM135.52 267.011L138.234 265.745L133.891 263.574L132.625 264.84L135.52 267.011ZM164.831 263.031L145.109 268.459L163.383 277.506L214.587 280.581L214.768 280.4L217.12 280.581C217.663 277.325 218.025 273.887 218.025 270.449L215.492 270.087L215.311 269.906L164.831 263.031ZM216.758 282.391C216.758 282.21 216.758 282.029 216.758 281.848L214.406 281.667L214.225 281.305L164.831 278.229L202.827 297.227L209.521 299.036L209.702 298.855L211.873 299.398C214.225 293.97 215.854 288.181 216.758 282.391ZM199.751 296.322L163.202 278.229L148.728 277.325L159.946 286.009L199.751 296.322ZM147.823 276.601L161.574 277.506L144.205 268.821L139.5 270.087L147.823 276.601ZM200.655 317.311L201.017 317.13L203.007 318.577C206.264 313.33 208.978 307.902 211.149 302.293L208.978 301.208V301.027L203.007 297.951L161.574 287.095L200.655 317.311ZM206.445 298.855L209.159 300.303L209.34 300.122L211.511 301.208C211.511 301.027 211.692 300.846 211.692 300.665L209.521 300.122V299.76L206.445 298.855ZM159.765 286.733L140.224 281.667L151.442 298.494L194.323 326.9H194.504L196.494 328.167C197.579 326.9 198.665 325.453 199.57 324.005C200.474 322.739 201.379 321.291 202.284 319.844L200.294 318.215V318.034L159.765 286.733ZM182.924 342.098C187.628 338.118 191.79 333.775 195.589 329.071L193.78 327.805V327.443L152.346 299.941L175.687 335.223L180.934 340.47H181.115L182.924 342.098ZM173.154 332.69L150.899 299.036L138.957 291.075L144.205 304.103L173.154 332.69ZM138.234 289.809L149.632 297.408L138.957 281.305L134.253 280.039L138.234 289.809ZM163.745 351.869H164.107L165.012 354.221C165.193 354.04 165.374 354.04 165.555 353.859L165.735 353.678C170.802 350.964 175.687 347.707 180.21 344.089L178.763 341.917V341.736L174.782 335.766L144.566 305.731L163.745 351.869ZM177.677 338.299L179.667 341.375H180.029L181.477 343.546C181.657 343.365 181.838 343.184 182.019 343.184L180.391 341.555L180.572 341.194L177.677 338.299ZM143.481 304.464L129.187 290.171L130.454 310.254L153.613 356.754H153.794L154.88 358.744C157.955 357.478 161.031 356.211 163.926 354.583L163.021 352.23L163.202 352.05L143.481 304.464ZM153.613 359.287L152.527 357.297L152.708 357.116L130.454 312.245L132.987 354.04L135.158 361.82L135.339 362.001L136.063 364.172C140.767 363.267 145.652 362.001 150.356 360.372C151.442 360.191 152.527 359.83 153.613 359.287ZM132.082 350.602L129.549 310.616L123.216 297.951L121.407 311.702L132.082 350.602ZM123.578 296.503L129.549 308.626L128.283 289.447L124.845 286.009L123.578 296.503ZM114.532 363.086L114.894 363.267L114.532 365.8C115.798 365.8 116.884 365.8 118.15 365.8C122.855 365.8 127.74 365.439 132.263 364.896C132.444 364.896 132.625 364.896 132.806 364.896L132.625 362.363L132.806 362.182L132.263 354.402L121.045 313.692L114.532 363.086ZM133.349 357.658L133.53 362.001L133.891 362.182L134.072 364.715C134.253 364.715 134.615 364.715 134.796 364.534L134.253 362.363L134.434 362.182L133.349 357.658ZM120.683 311.702L115.436 292.342L106.571 310.254L103.314 362.363L103.495 362.544L103.314 364.896C106.571 365.439 109.827 365.619 113.084 365.8L113.446 363.267L113.627 363.086L120.683 311.702ZM100.781 364.353C101.324 364.353 101.685 364.534 102.047 364.534L102.228 362.182L102.59 362.001L105.666 311.883L87.03 349.155L84.8588 357.658L85.0397 357.839L84.4969 360.011C89.7439 362.001 95.3529 363.448 100.781 364.353ZM88.1156 345.717L105.847 310.073L106.752 295.961L98.2477 306.997L88.1156 345.717ZM107.475 294.875L106.571 308.264L115.074 291.256L113.808 286.552L107.475 294.875ZM66.2228 348.431L66.4037 348.793L64.9562 350.602C70.2033 353.859 75.6312 356.573 81.2401 358.925L82.3257 356.754H82.5067L86.3062 349.155L96.9812 308.626L66.2228 348.431ZM85.5825 352.411L83.4113 356.754L83.5923 356.935L82.5067 359.106C82.8685 359.287 83.0495 359.287 83.4113 359.468L83.9541 357.297H84.316L85.5825 352.411ZM97.524 306.636L102.59 287.457L85.9444 298.494L56.9952 342.098V342.279L55.7287 344.269C57.3571 345.536 58.9855 346.803 60.6139 347.888C61.5185 348.612 62.6041 349.155 63.5088 349.878L64.9562 348.069H65.1372L97.524 306.636ZM41.9779 330.7C45.9584 335.404 50.3007 339.565 55.005 343.365L56.2715 341.555H56.6334L84.4969 299.398L49.9389 322.377L43.6062 328.89V329.071L41.9779 330.7ZM52.4719 319.663L85.5825 297.77L93.1817 286.19L80.3355 291.437L52.4719 319.663ZM94.4482 285.647L87.2109 296.684L102.952 286.19L104.219 281.667L94.4482 285.647ZM31.8457 311.34V311.702L29.8554 312.606C29.8554 312.787 30.0363 312.968 30.0363 313.149C32.7503 318.396 36.0071 323.281 39.8067 327.805L41.7969 326.538H41.9779L49.3961 321.653L78.5262 292.161L31.8457 311.34ZM46.863 324.186L42.3397 327.081V327.443L40.3495 328.709C40.5304 328.89 40.7113 329.252 41.0732 329.433L42.7016 327.805L43.0635 327.986L46.863 324.186ZM79.9736 290.894L93.9054 276.782L74.0029 278.048L27.1414 301.389V301.569L25.1512 302.655C26.4177 305.731 27.6842 308.626 29.1317 311.521L31.3029 310.616L31.4838 310.797L79.9736 290.894ZM24.6084 301.389L26.5986 300.303L26.7796 300.484L72.0126 277.867L30.5791 280.4L21.8944 282.753L21.7135 282.933L19.5423 283.657C20.4469 288.361 21.7135 293.247 23.3419 297.951C23.8846 299.217 24.2465 300.303 24.6084 301.389ZM34.3787 279.677L74.0029 277.325L86.3062 271.173L72.5554 269.364L34.3787 279.677ZM87.5728 271.173L75.8122 276.963L94.81 275.877L98.0668 272.62L87.5728 271.173ZM20.4469 262.126L20.266 262.488L18.0948 262.126C18.0948 263.393 18.0948 264.478 18.0948 265.745C18.0948 270.449 18.4567 275.153 18.9995 279.677C18.9995 279.858 18.9995 280.039 18.9995 280.219L21.3516 280.039L21.5325 280.219L30.5791 279.677L70.3842 268.821L20.4469 262.126ZM27.3224 280.762L21.8944 281.124L21.7135 281.486L19.5423 281.667C19.5423 282.029 19.7232 282.391 19.7232 282.753L21.8944 282.21L22.0753 282.391L27.3224 280.762ZM72.3745 268.459L91.7342 263.212L73.8219 254.346L21.7135 251.089L21.5325 251.27L19.1804 251.089C18.6376 254.346 18.4567 257.603 18.2757 260.86L20.4469 261.222L20.6279 261.403L72.3745 268.459ZM19.7232 248.556C19.7232 249.099 19.5423 249.461 19.5423 249.823L21.8944 250.004L22.0753 250.366L72.3745 253.442L35.1024 234.806L26.5986 232.634L26.4177 232.815L24.2465 232.272C22.0753 237.52 20.6279 242.947 19.7232 248.556ZM38.3592 235.71L74.0029 253.442L87.7537 254.346L76.7168 245.842L38.3592 235.71ZM88.8393 255.251L75.8122 254.527L92.8198 263.031L97.1622 261.764L88.8393 255.251ZM35.2834 213.998L34.9215 214.179L33.2931 212.913C30.0363 217.979 27.3224 223.407 25.1512 229.016L27.1414 229.92V230.101L35.1024 234.082L75.0885 244.576L35.2834 213.998ZM31.6647 233.358L26.9605 231.006L26.7796 231.187L24.9702 230.282C24.7893 230.644 24.7893 230.825 24.6084 231.187L26.7796 231.73V232.092L31.6647 233.358Z" fill="#292C2D"/>
<path fill-rule="evenodd" clip-rule="evenodd" d="M118.151 159.719C176.773 159.719 224.358 207.304 224.358 265.926C224.358 324.548 176.773 372.133 118.151 372.133C59.5292 372.133 11.9441 324.548 11.9441 265.926C11.9441 207.304 59.5292 159.719 118.151 159.719ZM118.151 166.594C63.3288 166.594 18.8195 211.104 18.8195 265.926C18.8195 320.748 63.3288 365.258 118.151 365.258C172.974 365.258 217.483 320.748 217.483 265.926C217.483 211.104 172.974 166.594 118.151 166.594Z" fill="#A6A9AD"/>
<path fill-rule="evenodd" clip-rule="evenodd" d="M118.15 281.123C126.654 281.123 133.53 274.248 133.53 265.744C133.53 257.24 126.654 250.365 118.15 250.365C109.647 250.365 102.771 257.24 102.771 265.744C102.771 274.248 109.647 281.123 118.15 281.123Z" fill="#B8BABC"/>
<path fill-rule="evenodd" clip-rule="evenodd" d="M118.151 253.803C124.846 253.803 130.274 259.231 130.274 265.926C130.274 272.62 124.846 278.048 118.151 278.048C111.457 278.048 106.029 272.62 106.029 265.926C106.029 259.231 111.457 253.803 118.151 253.803ZM118.151 255.251C112.361 255.251 107.476 259.955 107.476 265.926C107.476 271.716 112.18 276.601 118.151 276.601C123.941 276.601 128.826 271.897 128.826 265.926C128.826 259.955 123.941 255.251 118.151 255.251Z" fill="#A3A5A7"/>
<path fill-rule="evenodd" clip-rule="evenodd" d="M118.151 269.906C120.322 269.906 122.132 268.097 122.132 265.926C122.132 263.755 120.322 261.945 118.151 261.945C115.98 261.945 114.171 263.755 114.171 265.926C114.171 268.097 115.98 269.906 118.151 269.906Z" fill="#68696B"/>
</g>
</g>
</g>
<path fill-rule="evenodd" clip-rule="evenodd" d="M10.4957 190.295C11.4004 190.295 12.1241 191.019 11.9431 191.923L11.5813 201.151C11.5813 202.056 10.8576 202.779 9.9529 202.598C9.04824 202.598 8.32452 201.875 8.50545 200.97L8.86731 191.743C8.86731 191.019 9.59104 190.295 10.4957 190.295Z" fill="#F17C21"/>
<path fill-rule="evenodd" clip-rule="evenodd" d="M117.968 144.7C180.208 144.7 238.288 195.723 238.288 258.687C238.288 262.306 238.107 265.743 237.745 269.362L228.879 268.095C229.241 265.02 229.241 261.944 229.241 258.687C229.241 200.427 179.304 153.204 117.787 153.204C67.8495 153.204 25.6924 184.324 11.3987 227.024C10.3131 230.1 12.1225 223.948 11.3987 227.024C5.78983 234.261 2.71398 235.347 0 234.985C2.53305 223.767 6.51355 213.092 11.9415 203.503C11.5797 203.503 11.3987 203.503 11.2178 203.503C10.8559 203.503 9.95127 204.226 9.58941 204.045C9.22754 203.865 9.77034 190.295 10.3131 189.933C10.8559 189.571 12.4843 191.018 12.8462 191.742C13.208 192.466 17.0076 194.637 17.1886 194.999V195.18C37.9958 164.602 73.2775 144.7 117.968 144.7Z" fill="#F24141"/>
<mask id="mask3" mask-type="alpha" maskUnits="userSpaceOnUse" x="382" y="147" width="237" height="237">
<circle cx="500.4" cy="265.954" r="118" fill="#C4C4C4"/>
</mask>
<g mask="url(#mask3)">
<mask id="mask4" mask-type="alpha" maskUnits="userSpaceOnUse" x="382" y="147" width="237" height="237">
<circle cx="500.4" cy="265.954" r="118" fill="#C4C4C4"/>
</mask>
<g mask="url(#mask4)">
<mask id="mask5" mask-type="alpha" maskUnits="userSpaceOnUse" x="382" y="147" width="237" height="237">
<circle cx="500.4" cy="265.954" r="118" fill="#C4C4C4"/>
</mask>
<g mask="url(#mask5)">
<path fill-rule="evenodd" clip-rule="evenodd" d="M517.619 152.289C518.524 152.47 519.248 152.47 520.152 152.651C520.514 152.651 520.876 152.832 521.419 152.832C521.781 152.832 522.323 153.013 522.685 153.013C523.409 153.193 524.133 153.374 524.856 153.374H525.037C539.693 156.631 553.082 162.602 565.023 170.744C565.204 170.925 565.385 171.106 565.566 171.106C566.109 171.468 566.471 171.829 567.014 172.191C567.556 172.553 567.918 172.915 568.461 173.277C568.642 173.458 568.823 173.639 569.004 173.639C580.584 182.323 590.535 193.179 598.315 205.845L598.496 206.026C598.858 206.749 599.22 207.292 599.581 208.016C599.762 208.378 599.943 208.74 600.124 209.101C600.305 209.463 600.486 209.825 600.667 210.187C601.029 210.911 601.391 211.634 601.753 212.358V212.539C607.181 223.033 611.161 234.613 613.151 246.735C615.142 259.039 615.323 271.342 613.332 283.284C613.151 284.007 613.151 284.912 612.97 285.636C612.97 285.998 612.789 286.359 612.789 286.902C612.789 287.264 612.609 287.807 612.609 288.169C612.428 288.893 612.247 289.616 612.247 290.34V290.521C608.99 305.176 603.019 318.565 594.877 330.507C594.696 330.688 594.515 330.869 594.515 331.05C594.153 331.593 593.792 331.954 593.43 332.497C593.068 333.04 592.706 333.402 592.344 333.945C592.163 334.126 591.982 334.306 591.982 334.487C583.298 346.067 572.442 356.018 559.776 363.798L559.595 363.979C558.872 364.341 558.329 364.703 557.605 365.065C557.243 365.246 556.881 365.427 556.52 365.608C556.158 365.789 555.796 365.97 555.434 366.151C554.71 366.512 553.987 366.874 553.263 367.236H553.082C542.588 372.664 531.008 376.645 518.886 378.635C506.582 380.806 494.279 380.806 482.337 378.816C481.614 378.635 480.709 378.635 479.985 378.454C479.623 378.454 479.262 378.273 478.719 378.273C478.357 378.273 477.814 378.092 477.452 378.092C476.728 377.911 476.005 377.73 475.281 377.73H475.1C460.445 374.473 447.056 368.503 435.114 360.361C434.933 360.18 434.752 359.999 434.571 359.999C434.029 359.637 433.667 359.275 433.124 358.913C432.581 358.551 432.219 358.19 431.676 357.828C431.495 357.647 431.315 357.466 431.134 357.466C419.554 348.781 409.603 337.925 401.823 325.26L401.642 325.079C401.28 324.355 400.918 323.812 400.556 323.089C400.375 322.727 400.194 322.365 400.013 322.003C399.832 321.641 399.651 321.279 399.47 320.918C399.109 320.194 398.747 319.47 398.385 318.746V318.565C392.957 308.071 388.976 296.492 386.986 284.369C384.996 272.066 384.815 259.762 386.805 247.821C386.986 247.097 386.986 246.193 387.167 245.469C387.167 245.107 387.348 244.745 387.348 244.202C387.348 243.84 387.529 243.298 387.529 242.936C387.71 242.212 387.891 241.488 387.891 240.765V240.584C391.148 225.928 397.118 212.539 405.26 200.598C405.441 200.417 405.622 200.236 405.622 200.055C405.984 199.512 406.346 199.15 406.708 198.607C407.07 198.065 407.431 197.703 407.793 197.16C407.974 196.979 408.155 196.798 408.155 196.617C416.84 185.037 427.696 175.086 440.361 167.306L440.542 167.125C441.266 166.763 441.809 166.401 442.532 166.04C442.894 165.859 443.256 165.678 443.618 165.497C443.98 165.316 444.342 165.135 444.703 164.954C445.427 164.592 446.151 164.23 446.875 163.868H447.056C457.55 158.44 469.129 154.46 481.252 152.47C493.374 150.479 505.678 150.479 517.619 152.289ZM497.717 251.621C497.898 251.621 498.078 251.621 498.259 251.621L497.536 250.897L496.993 251.801C497.174 251.801 497.355 251.621 497.717 251.621ZM496.993 250.354L493.555 246.916L493.193 249.811L496.269 251.801L496.993 250.354ZM493.012 250.535L492.651 253.43L492.831 253.249C493.555 252.706 494.46 252.344 495.364 252.163L493.012 250.535ZM499.707 251.44C500.792 251.44 501.697 251.44 502.783 251.621L501.516 248.907L499.707 251.44ZM505.678 252.525L505.316 251.44L504.411 251.982C504.773 252.163 505.316 252.344 505.678 252.525ZM505.135 250.716L503.868 246.012L502.059 248.364L503.687 251.621L505.135 250.716ZM508.392 254.154C508.753 254.515 509.115 254.696 509.477 255.058L509.658 251.982L506.763 253.068C507.487 253.43 508.03 253.792 508.392 254.154ZM510.744 256.144C511.106 256.506 511.287 256.868 511.648 257.048L512.01 255.963L510.744 256.144ZM512.01 255.239L513.277 250.535L510.563 251.621L510.382 255.239H512.01ZM512.553 258.315L512.734 258.496C513.277 259.401 513.639 260.124 514.001 261.029L515.629 258.677L512.553 258.315ZM514.362 263.381C514.362 263.562 514.362 263.743 514.543 263.924L515.267 263.2L514.362 262.657C514.181 263.019 514.362 263.2 514.362 263.381ZM515.629 262.657L519.067 259.22L516.172 258.858L514.181 261.934L515.629 262.657ZM514.543 265.733C514.543 266.638 514.543 267.543 514.362 268.266C514.362 268.447 514.362 268.447 514.362 268.628L516.895 267.362L514.543 265.733ZM513.458 271.342L514.362 271.161L513.82 270.437C513.639 270.799 513.639 270.98 513.458 271.342ZM515.086 270.98L519.609 269.714L517.438 267.904L514.181 269.533L515.086 270.98ZM513.096 272.247L514.543 275.504L517.438 275.684L514.724 271.704L513.096 272.247ZM514.724 276.408L515.81 279.122L520.333 280.389L517.8 276.589L514.724 276.408ZM521.419 280.57L540.055 285.455L529.38 277.132L518.705 276.408L521.419 280.57ZM528.475 276.408L520.333 270.257L515.448 271.523L518.343 275.865L528.475 276.408ZM512.01 274.056C511.648 274.599 511.287 274.961 510.925 275.323L513.639 275.504L512.553 273.151C512.372 273.332 512.191 273.694 512.01 274.056ZM510.382 276.046V277.675L514.905 278.941L513.82 276.408L510.382 276.046ZM509.658 276.77C509.477 276.951 509.296 277.132 508.934 277.313L509.658 277.494V276.77ZM508.211 277.856L507.668 281.293L510.201 282.922L509.839 278.218L508.211 277.856ZM507.487 282.198L507.125 285.093L510.382 288.35L510.02 283.826L507.487 282.198ZM511.106 289.073L524.676 302.643L519.609 290.34L510.744 284.55L511.106 289.073ZM519.067 289.073L515.267 279.665L510.382 278.398L510.744 283.465L519.067 289.073ZM502.421 280.027C502.24 280.027 502.24 280.027 502.059 280.027L502.421 280.389L502.783 279.846C502.602 280.027 502.602 280.027 502.421 280.027ZM502.964 281.112L506.401 284.369L506.763 281.655L503.868 279.665H503.687L502.964 281.112ZM506.763 280.932L507.125 278.398C506.401 278.76 505.497 279.122 504.773 279.484L506.763 280.932ZM500.973 280.208C500.792 280.208 500.792 280.208 500.612 280.208L498.621 282.922L499.888 285.455L502.059 281.293L500.973 280.208ZM498.259 283.645L496.45 285.998L497.717 290.34L499.707 286.359L498.259 283.645ZM497.898 291.245L502.964 309.7L504.773 296.492L500.069 287.083L497.898 291.245ZM504.954 295.225L506.22 285.274L502.602 281.655L500.431 286.179L504.954 295.225ZM499.888 280.208C499.164 280.208 498.44 280.027 497.536 280.027H497.355L498.44 282.198L499.888 280.208ZM494.641 279.122L494.822 279.665L495.184 279.303C495.003 279.303 494.822 279.303 494.641 279.122ZM495.003 280.389L496.269 284.912L497.898 282.741L496.45 279.665H496.269L495.003 280.389ZM493.555 278.579L490.479 279.846L490.298 282.56L494.098 280.027L493.736 278.76C493.555 278.76 493.555 278.76 493.555 278.579ZM489.575 280.208L486.861 281.293L485.775 285.636L489.394 283.284L489.575 280.208ZM485.594 286.721L480.709 305.176L488.851 294.682L489.575 284.188L485.594 286.721ZM489.575 293.597L495.726 285.636L494.46 280.751L490.298 283.465L489.575 293.597ZM491.746 277.494C491.384 277.132 491.022 276.951 490.66 276.589L490.479 278.941L492.651 278.037C492.289 278.037 492.108 277.856 491.746 277.494ZM489.937 276.046L489.756 275.865H488.308L487.042 280.389L489.575 279.303L489.937 276.046ZM489.032 275.142C488.851 274.961 488.851 274.78 488.67 274.599L488.489 275.142H489.032ZM488.127 273.875C488.127 273.875 488.127 273.694 488.127 273.875L484.689 273.332L483.242 275.504L487.946 275.142L488.127 273.875ZM483.785 273.151L480.89 272.79L477.814 275.865L482.156 275.684L483.785 273.151ZM477.09 276.589L463.701 290.159L475.824 285.093L481.614 276.408L477.09 276.589ZM477.09 284.55L486.318 280.751L487.584 275.865L482.699 276.227L477.09 284.55ZM485.775 268.085C485.775 267.904 485.775 267.904 485.775 267.723L485.413 268.085L485.956 268.447C485.956 268.447 485.956 268.266 485.775 268.085ZM484.87 268.809L481.614 272.247L484.328 272.609L486.318 269.714V269.533L484.87 268.809ZM485.051 272.609L487.584 272.97C487.223 272.247 486.861 271.342 486.499 270.618L485.051 272.609ZM485.775 266.819L482.88 264.648L480.528 265.914L484.689 268.085L485.775 266.819ZM482.156 264.105L479.804 262.296L475.643 263.381L479.623 265.371L482.156 264.105ZM474.738 263.743L456.283 268.809L469.491 270.618L478.9 265.914L474.738 263.743ZM470.758 270.618L480.709 271.885L484.328 268.266L479.804 266.095L470.758 270.618ZM485.775 265.733C485.775 264.829 485.775 264.105 485.956 263.2V263.019L483.604 264.105L485.775 265.733ZM486.861 260.305L486.137 260.486L486.499 261.029C486.499 260.848 486.68 260.667 486.861 260.305ZM485.413 260.667L480.89 261.934L483.061 263.562L486.318 261.934L485.413 260.667ZM488.489 257.41C488.67 257.048 489.032 256.687 489.394 256.325L486.68 256.144L487.765 258.677C487.765 258.315 488.127 257.953 488.489 257.41ZM490.479 255.058C490.66 254.877 491.022 254.696 491.203 254.335L490.298 254.154L490.479 255.058ZM489.756 253.973L485.232 252.706L486.318 255.239L489.937 255.42L489.756 253.973ZM454.112 179.429H453.75L453.026 177.619L452.845 177.8C447.598 180.695 442.532 183.952 438.009 187.57L439.095 189.38V189.561L443.799 196.617L473.291 225.928L454.112 179.429ZM441.085 193.903L438.371 189.923H438.009L436.923 188.294C436.742 188.475 436.562 188.656 436.2 188.837L437.828 190.465L437.647 190.827L441.085 193.903ZM474.015 227.557L445.789 199.512L467.863 232.984L479.442 240.584L474.015 227.557ZM479.804 241.85L468.948 234.613L479.623 250.535L483.966 251.621L479.804 241.85ZM478.357 250.173L467.32 233.346L424.077 204.759H423.896L421.906 203.493C420.64 205.121 419.373 206.749 418.106 208.559C417.383 209.463 416.84 210.549 416.116 211.635L417.745 212.901V213.082L458.997 244.926L478.357 250.173ZM435.295 189.742C430.591 193.722 426.429 198.065 422.63 202.769L424.439 204.035V204.397L466.234 232.08L443.075 197.16L437.285 191.37H437.104L435.295 189.742ZM484.147 252.525L479.985 251.44L482.518 255.239L485.413 255.42L484.147 252.525ZM485.775 256.144L483.061 255.963L485.594 259.943L487.042 259.582L485.775 256.144ZM484.87 260.124L482.156 255.963L472.024 255.42L479.985 261.572L484.87 260.124ZM470.939 254.515L481.614 255.239L479.081 251.259L460.445 246.373L470.939 254.515ZM484.689 251.982L489.575 253.249L489.213 248.183L480.709 242.574L484.689 251.982ZM480.347 241.307L489.213 247.278L488.851 242.574L475.1 229.004L480.347 241.307ZM489.756 243.298L490.117 247.821L492.47 249.449L492.831 246.373L489.756 243.298ZM492.47 250.173L490.298 248.726L490.66 253.43L492.108 253.792L492.47 250.173ZM474.557 227.014L489.032 241.307L487.765 221.043L464.787 174.905H464.606L463.52 172.915C460.445 174.182 457.369 175.629 454.293 177.076L455.017 179.067L454.836 179.248L474.557 227.014ZM464.606 172.372L465.692 174.362L465.511 174.543L487.765 219.053L485.232 176.896L483.242 169.658L483.061 169.477L482.337 167.306C477.633 168.211 472.748 169.477 468.044 171.106C466.777 171.649 465.692 172.01 464.606 172.372ZM485.956 180.514L488.489 220.862L494.641 233.346L496.45 219.234L485.956 180.514ZM494.46 234.613L488.489 222.671L489.756 242.031L493.012 245.288L494.46 234.613ZM503.326 168.211L502.964 168.03L503.145 166.04C502.059 166.04 500.973 166.04 499.888 166.04C495.184 166.04 490.479 166.401 485.775 166.944C485.594 166.944 485.232 166.944 485.051 167.125V169.115L484.87 169.296L485.413 177.076L496.45 217.424L503.326 168.211ZM484.689 173.458L484.509 169.296L484.147 169.115L483.966 167.125C483.785 167.125 483.423 167.125 483.242 167.306L483.785 169.477L483.604 169.658L484.689 173.458ZM493.736 246.012L497.355 249.63L499.707 245.107L495.184 235.879L493.736 246.012ZM495.184 234.613L499.888 244.202L502.059 239.86L496.993 221.043L495.184 234.613ZM502.421 240.945L500.431 245.107L501.697 247.821L503.506 245.469L502.421 240.945ZM501.335 248.364L500.069 245.831L497.898 250.173L498.983 251.259L501.335 248.364ZM497.355 219.234L502.783 238.955L511.829 220.681L514.905 169.477L514.724 169.296L514.905 166.944C511.648 166.401 508.211 166.04 504.773 166.04L504.411 168.211L504.23 168.392L497.355 219.234ZM517.257 167.306C516.895 167.306 516.534 167.125 516.172 167.125L515.991 169.477L515.629 169.658L512.553 219.053L531.551 181.057L533.36 174.362L533.179 174.182L533.722 172.01C528.294 169.839 522.866 168.392 517.257 167.306ZM530.646 184.314L512.553 220.681L511.648 234.794L520.333 223.395L530.646 184.314ZM510.744 235.879L511.648 222.49L502.964 239.86L504.23 244.383L510.744 235.879ZM551.634 182.866L551.453 182.504L552.72 180.695C547.654 177.438 542.226 174.724 536.436 172.553L535.531 174.362H535.351L532.094 180.695L521.419 221.586L551.634 182.866ZM533.179 177.619L534.808 174.543L534.627 174.362L535.531 172.553C535.351 172.553 535.17 172.372 534.989 172.372L534.446 174.543H534.084L533.179 177.619ZM504.411 245.288L505.678 250.173L510.02 247.278L510.563 236.965L504.411 245.288ZM511.467 236.241L510.744 247.097L514.724 244.383L519.609 225.566L511.467 236.241ZM514.724 245.288L510.925 247.821L510.744 250.897L513.639 249.811L514.724 245.288ZM509.839 251.259L510.02 248.364L506.04 251.078L506.401 252.706L509.839 251.259ZM521.057 223.938L515.81 243.659L532.817 232.261L561.043 189.742V189.561L562.309 187.57C560.681 186.304 558.872 185.037 557.243 183.771C556.158 183.047 555.072 182.323 553.987 181.6L552.539 183.409H552.358L521.057 223.938ZM576.241 201.14C572.261 196.436 567.918 192.275 563.214 188.475L561.948 190.284H561.586L534.446 231.356L570.089 207.835L574.794 203.131V202.95L576.241 201.14ZM567.556 210.187L533.541 232.804L525.58 244.745L538.788 239.317L567.556 210.187ZM524.314 245.288L531.913 233.889L515.629 244.745L514.362 249.449L524.314 245.288ZM586.192 219.957V219.596L588.364 218.691L588.183 218.51C585.288 213.263 582.031 208.197 578.231 203.493L576.422 204.759H576.241L570.632 208.378L540.598 238.774L586.192 219.957ZM573.165 205.664L575.698 204.035V203.674L577.508 202.407C577.327 202.226 577.327 202.226 577.146 202.045L575.517 203.674L575.156 203.493L573.165 205.664ZM514.181 250.354L512.915 255.239L518.162 254.877L523.771 246.373L514.181 250.354ZM524.856 245.831L518.886 254.877L523.771 254.515L537.522 240.584L524.856 245.831ZM523.047 255.42L518.524 255.782L516.715 258.315L519.79 258.677L523.047 255.42ZM515.81 258.134L517.438 255.782L512.553 256.144L512.191 257.772L515.81 258.134ZM539.15 239.86L524.676 254.335L545.121 253.068L590.897 230.271V230.09L592.887 229.004C591.62 225.747 590.173 222.671 588.725 219.596L586.554 220.5L586.373 220.319L539.15 239.86ZM593.611 230.271L591.62 231.356L591.439 231.175L547.292 253.068L589.992 250.535L596.325 248.726L596.506 248.545L598.677 247.821C597.772 243.117 596.506 238.232 594.877 233.527C594.334 232.442 593.973 231.356 593.611 230.271ZM586.373 251.44L545.483 253.973L532.637 260.305L546.749 262.115L586.373 251.44ZM531.37 260.124L543.673 253.973L524.133 255.239L520.695 258.677L531.37 260.124ZM597.41 268.99L597.591 268.628L599.943 268.99C599.943 267.904 599.943 266.819 599.943 265.733C599.943 260.667 599.581 255.601 598.858 250.716L596.506 250.897L596.325 250.716L589.811 251.078L548.559 262.296L597.41 268.99ZM593.43 250.173L596.325 249.992L596.506 249.63L598.858 249.449V249.268V248.907L596.686 249.449L596.506 249.268L593.43 250.173ZM519.971 259.401L516.353 263.019L520.876 265.371L530.103 260.848L519.971 259.401ZM531.37 261.029L521.781 265.914L526.123 268.085L544.94 263.019L531.37 261.029ZM525.037 268.266L520.876 266.276L517.981 267.723L520.333 269.533L525.037 268.266ZM517.438 267L520.152 265.733L515.81 263.562L514.543 264.829L517.438 267ZM546.749 263.019L527.028 268.447L545.302 277.494L596.506 280.57L596.686 280.389L599.039 280.57C599.581 277.313 599.943 273.875 599.943 270.437L597.41 270.076L597.229 269.895L546.749 263.019ZM598.677 282.379C598.677 282.198 598.677 282.017 598.677 281.836L596.325 281.655L596.144 281.293L546.749 278.218L584.745 297.215L591.439 299.025L591.62 298.844L593.792 299.387C596.325 293.959 597.772 288.169 598.677 282.379ZM581.669 296.311L545.121 278.218L530.646 277.313L541.864 285.998L581.669 296.311ZM529.742 276.589L543.492 277.494L526.123 268.809L521.419 270.076L529.742 276.589ZM582.755 317.299L583.117 317.118L585.107 318.565C588.364 313.318 591.078 307.89 593.249 302.282L591.078 301.196V301.015L585.107 297.939L543.673 287.083L582.755 317.299ZM588.364 298.844L591.078 300.291L591.259 300.11L593.43 301.196C593.43 301.015 593.611 300.834 593.611 300.653L591.439 300.11V299.748L588.364 298.844ZM541.683 286.721L522.142 281.655L533.36 298.482L576.241 326.888H576.422L578.412 328.155C579.498 326.888 580.584 325.441 581.488 323.993C582.393 322.727 583.298 321.279 584.202 319.832L582.212 318.204V318.023L541.683 286.721ZM564.842 342.087C569.547 338.106 573.708 333.764 577.508 329.059L575.698 327.793V327.431L534.265 299.929L557.605 335.211L562.852 340.458H563.033L564.842 342.087ZM555.072 332.678L532.817 299.025L520.876 291.064L526.123 304.091L555.072 332.678ZM520.333 289.797L531.732 297.396L521.057 281.293L516.353 280.027L520.333 289.797ZM545.664 351.857H546.025L546.93 354.209C547.111 354.028 547.292 354.028 547.473 353.847L547.654 353.666C552.72 350.952 557.605 347.695 562.128 344.077L560.681 341.906V341.725L556.701 335.754L526.485 305.719L545.664 351.857ZM559.595 338.287L561.586 341.363H561.948L563.395 343.534C563.576 343.353 563.757 343.172 563.938 343.172L562.309 341.544L562.49 341.182L559.595 338.287ZM525.399 304.453L511.106 290.159L512.372 310.243L535.531 356.742H535.712L536.798 358.732C539.874 357.466 542.95 356.199 545.845 354.571L544.94 352.219L545.121 352.038L525.399 304.453ZM535.712 359.275L534.627 357.285L534.808 357.104L512.553 312.233L515.086 354.028L517.257 361.808L517.438 361.989L518.162 364.16C522.866 363.256 527.751 361.989 532.456 360.361C533.541 360.18 534.627 359.818 535.712 359.275ZM514.181 350.59L511.648 310.604L505.316 297.939L503.506 311.69L514.181 350.59ZM505.497 296.492L511.467 308.614L510.201 289.435L506.763 285.998L505.497 296.492ZM496.45 363.075L496.812 363.256L496.45 365.789C497.717 365.789 498.802 365.789 500.069 365.789C504.773 365.789 509.658 365.427 514.181 364.884C514.362 364.884 514.543 364.884 514.724 364.884L514.543 362.351L514.724 362.17L514.181 354.39L502.964 313.68L496.45 363.075ZM515.267 357.647L515.448 361.989L515.81 362.17L515.991 364.703C516.172 364.703 516.534 364.703 516.715 364.522L516.172 362.351L516.353 362.17L515.267 357.647ZM502.783 311.69L497.536 292.33L488.67 310.243L485.413 362.351L485.594 362.532L485.413 364.884C488.67 365.427 491.927 365.608 495.184 365.789L495.545 363.256L495.726 363.075L502.783 311.69ZM482.88 364.341C483.423 364.341 483.785 364.522 484.147 364.522L484.328 362.17L484.689 361.989L487.765 311.69L469.129 348.962L466.958 357.466L467.139 357.647L466.596 359.818C471.843 361.989 477.271 363.437 482.88 364.341ZM470.034 345.705L487.765 310.062L488.67 295.949L480.166 306.986L470.034 345.705ZM489.394 294.863L488.489 308.252L496.993 291.245L495.726 286.54L489.394 294.863ZM448.322 348.419L448.503 348.781L447.056 350.59C452.303 353.847 457.731 356.561 463.34 358.913L464.425 356.742H464.606L468.406 349.143L479.081 308.614L448.322 348.419ZM467.501 352.4L465.33 356.742L465.511 356.923L464.425 359.094C464.787 359.275 464.968 359.275 465.33 359.456L465.873 357.285H466.234L467.501 352.4ZM479.442 306.624L484.509 287.445L467.863 298.482L438.914 342.087V342.267L437.647 344.258C439.276 345.524 440.904 346.791 442.532 347.876C443.437 348.6 444.523 349.143 445.427 349.867L446.875 348.057H447.056L479.442 306.624ZM423.896 330.688C427.877 335.392 432.219 339.554 436.923 343.353L438.19 341.544H438.552L466.415 299.387L431.857 322.365L425.525 328.879V329.059L423.896 330.688ZM434.39 319.651L467.501 297.758L475.1 286.179L462.254 291.426L434.39 319.651ZM476.367 285.636L469.129 296.673L484.87 286.179L486.137 281.655L476.367 285.636ZM413.764 311.328V311.69L411.774 312.595C411.774 312.776 411.955 312.957 411.955 313.137C414.669 318.384 417.926 323.27 421.725 327.793L423.715 326.526H423.896L431.315 321.641L460.445 292.149L413.764 311.328ZM428.781 324.174L424.258 327.069V327.431L422.268 328.698C422.449 328.879 422.63 329.24 422.992 329.421L424.62 327.793L424.982 327.974L428.781 324.174ZM461.892 290.883L475.824 276.77L455.921 278.037L409.06 301.377V301.558L407.07 302.643C408.336 305.719 409.603 308.614 411.05 311.509L413.221 310.604L413.402 310.785L461.892 290.883ZM406.708 301.377L408.698 300.291L408.879 300.472L454.112 277.856L412.679 280.389L403.994 282.741L403.813 282.922L401.642 283.645C402.546 288.35 403.813 293.235 405.441 297.939C405.803 299.206 406.165 300.291 406.708 301.377ZM416.297 279.665L455.921 277.313L468.225 271.161L454.474 269.352L416.297 279.665ZM469.491 271.161L457.731 276.951L476.728 275.865L479.985 272.609L469.491 271.161ZM402.546 262.115L402.365 262.476L400.194 262.115C400.194 263.381 400.194 264.467 400.194 265.733C400.194 270.437 400.556 275.142 401.099 279.665C401.099 279.846 401.099 280.027 401.099 280.208L403.451 280.027L403.632 280.208L412.679 279.665L452.484 268.809L402.546 262.115ZM409.241 280.751L403.813 281.112L403.632 281.474L401.461 281.655C401.461 282.017 401.642 282.379 401.642 282.741L403.813 282.198L403.994 282.379L409.241 280.751ZM454.293 268.447L473.653 263.2L455.74 254.335L403.632 251.078L403.451 251.259L401.099 251.078C400.556 254.334 400.375 257.591 400.194 260.848L402.365 261.21L402.546 261.391L454.293 268.447ZM401.642 248.545C401.642 249.087 401.461 249.449 401.461 249.811L403.813 249.992L403.994 250.354L454.293 253.43L417.021 234.794L408.517 232.623L408.336 232.804L406.165 232.261C403.994 237.508 402.546 242.936 401.642 248.545ZM420.278 235.698L455.921 253.43L469.672 254.335L458.635 245.831L420.278 235.698ZM470.758 255.239L457.731 254.515L474.738 263.019L479.081 261.753L470.758 255.239ZM417.202 213.987L416.84 214.168L415.212 212.901C411.955 217.967 409.241 223.395 407.07 229.004L409.06 229.909V230.09L417.021 234.07L457.007 244.564L417.202 213.987ZM413.583 233.346L408.879 230.994L408.698 231.175L406.889 230.271C406.708 230.632 406.708 230.813 406.527 231.175L408.698 231.718V232.08L413.583 233.346Z" fill="#292C2D"/>
<path fill-rule="evenodd" clip-rule="evenodd" d="M500.067 159.707C558.689 159.707 606.274 207.292 606.274 265.914C606.274 324.536 558.689 372.121 500.067 372.121C441.444 372.121 393.859 324.536 393.859 265.914C393.859 207.292 441.444 159.707 500.067 159.707ZM500.067 166.583C445.244 166.583 400.735 211.092 400.735 265.914C400.735 320.737 445.244 365.246 500.067 365.246C554.889 365.246 599.398 320.737 599.398 265.914C599.398 211.092 554.889 166.583 500.067 166.583Z" fill="#A6A9AD"/>
<path fill-rule="evenodd" clip-rule="evenodd" d="M499.779 280.712C508.283 280.712 515.158 273.837 515.158 265.333C515.158 256.829 508.283 249.954 499.779 249.954C491.275 249.954 484.4 256.829 484.4 265.333C484.4 273.837 491.456 280.712 499.779 280.712Z" fill="#B8BABC"/>
<path fill-rule="evenodd" clip-rule="evenodd" d="M499.781 253.392C506.476 253.392 511.904 258.82 511.904 265.515C511.904 272.209 506.476 277.637 499.781 277.637C493.087 277.637 487.659 272.209 487.659 265.515C487.659 258.82 493.087 253.392 499.781 253.392ZM499.781 254.84C493.991 254.84 489.106 259.544 489.106 265.515C489.106 271.305 493.81 276.19 499.781 276.19C505.571 276.19 510.456 271.486 510.456 265.515C510.456 259.544 505.752 254.84 499.781 254.84Z" fill="#A3A5A7"/>
<path fill-rule="evenodd" clip-rule="evenodd" d="M499.781 269.495C501.952 269.495 503.762 267.686 503.762 265.515C503.762 263.344 501.952 261.534 499.781 261.534C497.61 261.534 495.801 263.344 495.801 265.515C495.801 267.686 497.61 269.495 499.781 269.495Z" fill="#68696B"/>
</g>
</g>
</g>
<path fill-rule="evenodd" clip-rule="evenodd" d="M500.098 272.257C503.717 272.257 506.431 269.362 506.431 265.924C506.431 262.306 503.536 259.592 500.098 259.592C496.479 259.592 493.765 262.487 493.765 265.924C493.584 269.362 496.479 272.257 500.098 272.257Z" fill="#68696B"/>
<path fill-rule="evenodd" clip-rule="evenodd" d="M497.383 147.234C500.278 147.234 511.134 147.776 513.848 148.138L504.439 155.918C501.906 155.737 499.554 155.737 497.021 155.737C463.368 155.737 432.79 171.659 412.526 196.266C388.462 225.577 383.034 259.954 390.814 289.808L386.11 302.835C381.405 289.808 379.053 275.876 379.596 261.04C380.501 234.262 390.633 209.655 406.736 190.295C428.448 164.06 461.196 147.234 497.383 147.234Z" fill="#F24141"/>
<path fill-rule="evenodd" clip-rule="evenodd" d="M171.524 268.097C172.429 267.735 200.473 269.363 220.919 270.63C220.919 271.534 220.738 272.258 220.738 273.163C198.845 271.715 170.981 269.725 170.8 269.544C170.077 269.182 169.896 268.639 171.524 268.097ZM221.461 146.51C220.738 146.329 220.014 146.148 219.652 146.51C219.652 146.51 219.652 146.51 219.471 146.51C219.109 146.148 218.567 145.967 218.024 145.967C217.119 145.967 208.615 150.491 201.921 154.29C195.226 150.31 173.876 138.187 173.876 138.187C173.876 138.187 174.781 136.378 174.238 135.111C173.695 133.845 171.886 133.845 171.886 133.845C171.886 133.845 60.4318 125.341 58.0797 125.703C55.7276 126.065 55.5467 126.789 55.7276 127.874C55.9085 128.96 56.8132 129.322 57.7178 129.503C57.8988 129.503 62.7839 130.045 70.2022 130.588L69.6594 137.464C69.6594 137.464 68.9356 138.187 68.9356 138.73C68.9356 139.454 70.0212 139.273 70.745 139.273C71.4687 139.273 71.6496 139.273 71.8306 138.73C72.0115 138.187 71.6496 137.825 71.4687 137.644C71.4687 137.464 71.8305 132.94 72.0115 130.769L75.4492 131.131C75.4492 132.759 75.4492 135.473 75.2683 135.654C75.0873 135.835 74.7255 136.197 74.9064 136.559C75.2683 136.921 76.7157 137.283 77.2585 137.102C77.8013 136.74 77.6204 136.016 77.6204 135.835C77.4395 135.654 77.0776 134.931 77.2585 134.75C77.4395 134.569 77.4394 132.578 77.4394 131.312C79.7916 131.493 82.5055 131.674 85.2195 132.036C85.2195 132.217 85.2195 132.578 85.4005 132.94C85.7623 133.664 86.3051 134.207 86.3051 134.569C86.3051 134.93 86.4861 139.273 86.1242 139.816C85.7623 140.358 85.2195 141.263 85.7623 143.253C85.7623 143.253 85.9433 143.615 85.9433 144.158L86.1242 145.063L88.1145 153.205L88.2954 154.29L111.455 246.747L111.636 247.832C111.817 248.918 112.178 249.641 112.359 250.365C111.997 250.546 111.455 250.727 111.093 250.908C110.55 251.27 109.826 251.451 109.464 251.813C108.56 252.355 106.931 253.441 106.027 254.346C105.665 254.527 105.484 254.889 105.303 255.069C105.122 255.25 104.76 255.612 104.579 255.793L104.036 256.336C103.313 257.241 102.589 258.145 102.227 259.231L101.323 261.402C100.961 262.307 100.78 263.211 100.599 264.116L100.418 265.202C100.237 267.011 100.418 268.82 100.961 270.63L101.142 271.353L101.503 272.077C101.865 272.801 102.227 273.525 102.589 274.248L103.494 275.696C104.579 277.143 105.846 278.41 107.293 279.676H107.112C107.655 280.038 108.198 280.4 108.198 280.4C108.741 280.762 109.464 281.124 110.007 281.486C162.297 300.845 232.317 311.339 283.702 314.053C302.881 315.139 316.813 290.894 308.852 272.439L308.309 270.991L307.766 270.087C359.694 232.272 387.014 205.313 423.563 149.043C423.563 149.043 425.191 147.234 426.277 147.596C426.638 147.777 433.695 164.784 434.419 166.413C449.617 204.77 459.749 233.177 495.936 266.649C495.936 266.649 496.116 266.649 496.116 266.83C496.297 267.011 496.297 267.011 496.478 267.192C496.84 267.554 497.383 267.735 497.745 267.916C484.356 269.544 381.044 282.028 380.682 282.752C380.32 283.476 380.139 284.019 380.682 284.561C381.405 284.923 500.459 269.906 501.363 269.725C502.268 269.544 502.268 269.001 502.268 268.097C503.354 267.554 504.077 266.468 504.077 265.202C504.077 263.573 502.811 262.126 501.183 261.945C501.183 261.945 501.183 261.945 501.002 261.764C495.031 257.06 483.632 242.947 479.29 237.519C477.299 235.167 475.309 232.634 473.138 229.92C461.016 214.722 450.702 182.516 442.922 161.889C442.56 160.804 442.018 159.718 441.656 158.633L439.847 153.747C435.504 141.987 431.705 131.312 429.352 124.979L423.02 107.61C423.02 107.61 424.105 105.619 424.105 105.077C424.105 104.353 423.563 103.086 423.201 102.906C422.839 102.725 421.391 102.906 421.391 102.906C421.391 102.906 421.03 102.182 420.849 102.001C420.668 101.82 420.125 101.82 420.125 101.82C420.125 101.82 419.944 101.639 419.763 101.458C419.582 101.096 419.944 100.915 419.944 100.915C419.944 100.915 418.858 98.5631 418.677 98.5631C418.316 98.5631 417.411 98.5631 417.411 98.5631L402.755 60.9293C402.755 58.939 403.841 57.3106 403.841 57.3106C403.841 57.3106 404.203 57.3106 404.565 57.3106C404.927 57.3106 404.746 58.3962 404.746 58.7581C404.746 59.1199 407.279 60.7483 408.726 60.3865C410.174 60.0246 414.878 50.4352 414.878 49.3496C414.878 48.264 413.611 48.0831 413.611 46.8165C413.43 45.9119 415.783 31.9801 416.687 26.0094L416.868 24.5619L417.049 24.0191C417.23 23.1144 417.411 22.2098 417.592 21.1242C417.773 20.0386 417.773 18.2293 417.411 16.239L417.23 14.7916C416.687 12.6204 415.964 10.4492 414.516 8.45894C414.516 8.45894 413.25 6.83054 412.526 6.10682C411.802 5.56402 411.621 5.20216 411.621 5.20216C408.183 2.12631 405.288 1.58352 402.936 1.22165C402.394 1.22165 401.489 1.04071 400.584 1.04071C400.946 5.20215 401.308 14.0678 401.308 15.1534C401.489 16.4199 403.66 16.6009 405.469 18.2293C407.279 19.8577 406.012 22.7526 406.374 23.6572C406.555 24.5619 406.193 27.8187 406.193 27.8187L406.012 29.8089L405.108 45.1882L396.604 55.1394C394.794 57.1297 393.89 57.8534 394.794 60.3865L409.993 101.82C409.993 101.82 408.907 102.363 408.726 102.544C408.364 102.906 408.907 103.991 409.088 104.534C409.269 104.896 409.812 105.077 409.812 105.077V105.619C409.812 105.619 409.631 105.8 409.45 105.8C409.45 105.981 409.631 106.705 409.631 106.886C409.812 107.067 409.993 107.067 409.993 107.067L410.174 107.61C410.174 107.61 408.726 108.695 409.088 109.781C409.269 111.047 410.174 111.409 411.078 111.771C411.983 111.952 412.526 112.133 412.526 112.133C412.526 112.133 414.516 116.837 413.611 119.189C412.707 121.542 409.088 124.979 408.907 125.341C408.545 125.703 409.269 126.969 409.269 126.969C409.269 126.969 408.545 127.693 404.022 133.845C365.845 185.049 337.439 208.57 271.941 240.414L270.494 236.795C270.313 236.072 269.408 235.891 268.866 236.072L268.323 236.253L238.831 158.09L237.022 156.28L235.031 151.214L235.936 149.586L233.041 142.349C233.041 142.349 232.317 142.168 231.594 142.349L219.833 112.133L211.51 112.495C211.51 112.495 212.053 114.666 211.51 117.018C211.329 117.742 209.701 118.466 207.349 119.008C208.796 119.008 210.244 118.466 211.329 117.561C214.043 124.256 217.843 134.026 222.366 145.425L221.642 145.786C221.642 145.786 221.642 146.148 221.461 146.51ZM206.625 173.288L217.3 161.889L222.728 156.642L224.356 157.728C224.356 157.728 225.623 156.461 226.166 156.28C226.708 156.1 226.166 154.652 225.985 154.471C226.528 156.1 227.251 157.728 227.794 159.356C227.975 159.899 227.975 161.708 228.337 162.251C239.012 189.934 250.592 221.054 257.829 239.69L257.648 239.871C256.924 240.052 256.743 240.957 256.924 241.5L261.628 252.898C221.1 250.184 177.495 250.365 136.604 249.099L138.595 246.928L139.861 245.661L152.164 232.453L206.625 173.288ZM200.111 180.344L200.835 179.621L206.625 173.469L200.111 180.344ZM195.045 176.183L179.847 192.467L174.238 198.438L135.7 239.871L131.538 244.394L127.558 248.737L126.834 249.461L127.558 248.737C127.558 248.737 123.577 248.375 121.768 248.375C121.587 248.375 121.587 248.375 121.406 248.375C121.225 248.375 121.225 248.375 121.044 248.375H120.501H120.32H119.778L119.416 246.566L119.235 245.48L117.425 237.7L116.702 234.805L115.978 231.367L115.435 229.196C112.902 218.159 109.645 204.228 106.389 190.658V190.477L105.303 185.592V185.772C103.675 178.897 102.227 172.203 100.78 166.051L97.5229 151.576L97.342 150.853L95.3517 142.349C95.1708 141.806 95.1708 141.444 95.1708 141.444C95.3517 141.082 95.3517 139.273 95.1708 138.006C94.9899 136.74 94.2661 136.378 94.2661 136.016C94.2661 135.835 94.2661 133.664 94.2661 132.217C115.254 134.026 140.404 136.197 155.24 137.464C155.783 137.825 156.145 138.187 156.326 138.73C156.507 139.454 156.326 142.892 156.145 144.882C156.869 145.244 158.497 145.606 158.497 145.606C158.497 143.615 158.497 139.816 159.402 139.273C159.945 138.911 160.306 138.549 160.668 138.006L168.086 138.549L197.036 156.28C197.036 156.28 197.036 156.461 197.217 156.823C195.226 158.09 193.779 158.994 193.779 159.175C193.417 160.08 193.598 161.347 194.683 160.985C195.045 160.985 196.674 159.899 199.026 158.633C199.931 159.175 200.835 159.899 201.559 160.442C202.644 161.347 205.178 163.88 205.178 163.88L205.72 164.422L202.464 167.86L201.74 168.584L195.769 174.916L195.045 176.183ZM234.489 282.39V282.028C242.811 282.752 248.601 283.295 248.601 283.295C248.601 283.295 248.601 283.838 248.058 285.104C247.516 286.371 246.611 289.266 241.364 289.808C239.555 289.989 236.841 289.808 233.222 289.266C233.584 287.637 233.946 286.19 234.127 284.561C234.308 284.019 234.308 283.476 234.489 282.933C234.489 282.752 234.489 282.571 234.489 282.39ZM92.2759 153.024L92.095 152.119C92.8187 151.938 93.5424 151.757 94.0852 151.757L94.2661 152.662C93.5424 152.662 92.9996 152.843 92.2759 153.024ZM106.75 204.77L107.836 209.475L111.636 225.035L112.359 227.93L114.531 236.976V237.157L115.073 239.328V239.147L116.883 246.747L117.245 248.194L117.425 248.918C116.883 249.099 116.159 249.099 115.616 249.28L114.711 245.842L113.988 242.766L109.103 222.14L108.017 217.616L107.836 216.893L107.655 216.169L107.474 215.445L107.293 214.722C103.494 199.342 99.3322 181.792 96.0755 167.86C96.7992 167.679 97.342 167.498 98.0657 167.317L106.389 201.875L106.75 204.77ZM136.242 239.509L135.881 240.052L136.242 239.509ZM155.059 229.015L200.111 180.344L189.798 191.562L155.059 229.015ZM169.715 276.6C169.715 276.419 169.715 276.238 170.439 276.238C170.8 276.238 197.759 278.591 219.833 280.762C219.471 282.933 218.928 285.285 218.566 287.456C205.358 285.466 191.969 283.838 178.942 280.943C175.324 280.038 169.715 279.676 169.715 276.6ZM235.755 271.715C239.555 272.077 241.907 272.258 242.45 272.258C244.621 272.801 246.43 274.429 246.611 274.791C246.611 274.791 242.269 274.429 235.574 274.067C235.574 273.344 235.574 272.62 235.755 271.715ZM126.291 250.184L125.929 250.546L126.291 250.184ZM204.273 155.738C209.882 152.3 215.853 148.681 216.576 148.5C216.938 148.32 217.3 148.5 217.662 148.5C216.938 149.405 216.395 150.129 216.395 150.129L216.757 151.395L209.158 160.08C209.158 160.08 206.263 157.185 204.273 155.738ZM90.1047 143.796C89.9238 143.253 89.9238 142.892 89.9238 142.892C89.7428 141.987 89.381 139.816 89.2 139.454C89.0191 139.092 88.8382 134.026 89.0191 134.026C89.381 134.026 91.1903 133.483 91.1903 133.483C91.1903 133.483 92.0949 136.921 91.914 137.644C91.5522 138.368 91.1903 138.73 91.5522 140.178C91.914 141.625 92.095 142.349 92.095 142.349L92.2759 143.253C91.3712 143.434 90.6475 143.615 90.1047 143.796ZM301.433 262.488C294.739 256.336 286.054 255.612 277.189 254.527C277.189 254.346 277.189 253.984 277.008 253.803L275.56 249.099C343.048 210.922 369.283 199.161 415.963 130.95C415.963 130.95 416.325 131.131 416.868 130.95C417.049 130.95 417.773 130.045 419.039 128.598C419.401 129.322 419.944 130.407 420.125 131.312C421.03 133.845 420.668 135.111 420.668 135.111C395.518 181.973 354.989 226.663 301.433 262.488Z" fill="#9F0000"/>
<path fill-rule="evenodd" clip-rule="evenodd" d="M201.92 154.29C201.92 154.29 198.12 156.461 197.035 157.185C195.045 158.452 193.597 159.356 193.597 159.537C193.235 160.442 193.416 161.708 194.502 161.347C194.864 161.347 196.492 160.261 198.844 158.994L204.272 155.738C209.881 152.3 215.852 148.681 216.575 148.5C216.937 148.319 217.299 148.5 217.661 148.5L219.47 146.329C219.109 145.967 218.566 145.786 218.023 145.786C217.299 145.786 208.795 150.31 201.92 154.29Z" fill="#292C2D"/>
<path fill-rule="evenodd" clip-rule="evenodd" d="M222.366 145.425L231.955 142.168C231.774 142.168 231.774 142.168 231.593 142.168L219.833 111.953C215.671 112.133 208.434 110.505 209.158 112.495C211.148 117.742 216.938 131.131 222.366 145.425Z" fill="#A3A5A7"/>
<path fill-rule="evenodd" clip-rule="evenodd" d="M423.021 112.676C424.106 115.028 434.6 144.339 434.6 144.339L430.982 145.606C430.982 145.606 420.307 116.295 419.402 114.124L423.021 112.676Z" fill="#F24141"/>
<path fill-rule="evenodd" clip-rule="evenodd" d="M406.192 3.21228C407.096 3.39321 411.077 5.74534 413.61 9.72585C415.057 12.078 416.143 14.792 415.781 18.0487C415.238 25.6479 411.801 41.5699 410.896 45.7313C410.715 46.2741 410.715 46.4551 410.715 46.8169C410.534 47.5407 409.267 48.6263 407.458 50.0737C404.744 52.2449 400.945 55.1398 400.583 57.311C399.859 60.9296 413.972 95.3067 414.153 95.4877L412.343 96.2114C412.343 96.0305 397.869 61.1106 398.773 56.9491C399.316 54.0542 403.478 50.7974 406.373 48.6263C407.82 47.5407 408.906 46.636 408.906 46.636C408.906 46.636 408.906 46.2741 409.087 45.5504C409.991 41.389 413.429 25.467 413.972 18.0487C414.153 15.1538 413.248 12.8017 412.162 10.8115C409.991 7.37374 406.734 5.38348 406.011 5.20254L406.192 3.21228Z" fill="#F24141"/>
<path fill-rule="evenodd" clip-rule="evenodd" d="M412.524 111.047L423.018 107.247V107.066C423.018 107.066 424.104 105.076 424.104 104.533C424.104 103.809 423.561 102.543 423.199 102.362C422.837 102.181 421.39 102.362 421.39 102.362C421.39 102.362 421.028 101.638 420.847 101.457C420.666 101.276 420.123 101.276 420.123 101.276C420.123 101.276 419.942 101.095 419.761 100.915C419.58 100.553 419.942 100.372 419.942 100.372C419.942 100.372 418.857 98.0196 418.676 98.0196C418.314 98.0196 417.409 98.0196 417.409 98.0196L409.991 100.915C409.991 100.915 408.905 101.457 408.725 101.638C408.363 102 408.905 103.086 409.086 103.629C409.267 103.99 409.81 104.171 409.81 104.171V104.714C409.81 104.714 409.629 104.895 409.448 104.895C409.448 105.076 409.629 105.8 409.629 105.981C409.81 106.162 409.991 106.162 409.991 106.162L410.172 106.704C410.172 106.704 408.725 107.79 409.086 108.876C409.267 110.142 410.172 110.504 411.077 110.866C412.162 111.047 412.524 111.047 412.524 111.047Z" fill="#CCCCCC"/>
<path fill-rule="evenodd" clip-rule="evenodd" d="M406.193 28.723L406.374 26.7327C405.469 27.2755 404.564 27.8183 404.202 27.9993C403.298 28.1802 402.031 27.2755 401.308 26.3709C403.298 25.1043 406.193 22.9332 406.736 22.5713C406.555 21.6666 408.183 18.5908 406.193 17.1433C404.383 15.5149 402.212 15.334 402.212 14.0675C404.926 14.2484 403.298 0.316631 400.946 0.135699C397.508 -0.045233 392.442 -0.045233 391.356 0.135699C389.728 0.316631 388.461 1.40222 388.461 1.40222C388.461 1.40222 354.084 3.75435 353.722 3.93529C353.361 3.93529 352.275 4.47807 351.37 6.83018C350.466 9.1823 351.37 13.8866 353.18 15.334C354.989 16.7815 362.588 15.1531 362.588 15.1531C362.588 15.1531 354.627 16.6005 354.084 16.7815C353.541 16.9624 352.999 17.6861 352.637 20.4001C352.275 23.1141 354.265 25.1043 354.989 25.4662C355.713 25.8281 383.576 20.762 383.576 20.762C383.576 20.762 369.464 32.7035 368.378 33.7891C367.292 34.8747 366.569 36.8649 367.473 38.1315C368.378 39.398 370.187 38.8552 371.092 37.5886C372.178 36.3221 370.911 35.0556 371.454 33.97C371.997 32.8844 386.652 23.295 388.642 22.9332C389.185 22.9332 389.909 23.1141 390.814 23.476C390.814 24.0188 390.994 24.3806 390.814 24.5615C390.452 25.6471 369.464 41.931 368.74 43.7404C368.016 45.5497 367.835 47.5399 369.463 47.5399C371.092 47.5399 370.549 45.3687 371.273 44.1022C371.997 42.8357 387.376 31.6179 389.185 30.7132C390.994 29.8086 391.175 30.3514 393.166 31.9798C395.156 33.4272 397.327 35.2365 399.136 34.1509C400.584 33.0654 403.479 30.7132 406.193 28.723ZM406.193 26.7327L406.374 22.5713C406.736 23.6569 406.193 26.7327 406.193 26.7327Z" fill="#2F3031"/>
<path fill-rule="evenodd" clip-rule="evenodd" d="M219.834 113.037L211.511 113.399C211.511 113.399 212.054 115.57 211.511 117.922C211.331 118.646 209.702 119.369 207.35 119.912C204.455 119.912 201.922 117.922 201.56 115.389C200.836 116.474 199.389 117.741 196.494 118.465C194.142 119.008 191.79 119.188 190.161 119.008C189.257 119.008 188.533 118.827 187.99 118.465C187.267 118.103 186.905 117.56 186.905 116.836C186.905 116.474 186.905 116.294 187.086 115.932C187.267 115.57 187.628 115.208 187.99 115.027C186.181 113.761 185.819 112.675 186.362 111.77C186.543 111.589 186.543 111.408 186.905 111.227C186.181 110.685 185.819 109.961 185.638 109.418C185.457 108.513 185.638 107.971 186.362 107.428C186.724 107.066 187.267 106.885 187.99 106.704C180.029 103.809 172.249 101.457 171.525 99.6478C170.621 97.4766 167.726 85.716 173.878 81.9164C180.029 78.2978 208.978 81.9165 220.92 81.1927C232.861 80.469 239.375 77.0313 243.898 76.4885C248.422 75.9457 249.326 76.3076 249.326 76.3076C250.593 76.8504 254.573 80.8309 256.744 85.3542C258.916 89.6965 259.278 90.2393 258.192 91.144C257.106 92.0487 228.157 110.685 222.548 112.313C221.644 112.675 220.739 112.856 219.834 113.037ZM202.284 112.132C200.836 111.77 199.389 111.408 198.122 110.866C198.484 111.227 198.484 111.77 198.122 112.313C197.761 112.856 197.218 113.218 196.675 113.399C197.037 113.399 197.218 113.399 197.58 113.399C198.484 113.58 199.027 113.941 198.846 114.665C198.846 115.027 198.484 115.208 198.122 115.389C196.856 116.113 195.228 116.474 193.418 116.474C191.971 116.474 190.523 116.294 189.438 115.751C188.895 115.932 188.533 116.294 188.533 116.474C188.533 116.655 188.533 116.655 188.533 116.836C188.533 117.017 188.714 117.017 188.895 117.198C189.257 117.379 189.8 117.56 190.342 117.56C191.971 117.741 193.961 117.56 196.313 117.017C200.656 116.113 201.017 113.58 201.017 113.58L201.741 113.399C201.741 113.037 201.922 112.494 202.284 112.132ZM195.951 109.961C195.77 109.78 195.589 109.78 195.228 109.599C193.78 108.875 192.152 108.333 190.523 107.609C189.8 107.609 189.257 107.79 188.714 107.79C187.99 107.971 187.447 108.152 187.086 108.333C186.905 108.513 186.724 108.694 186.905 108.875C187.086 109.237 187.447 109.78 188.171 110.323C189.257 109.961 190.704 109.78 192.152 109.599C193.418 109.78 194.866 109.78 195.951 109.961ZM189.619 114.303C190.161 114.122 190.885 113.941 191.428 113.761C190.704 113.58 189.8 113.218 189.076 112.856C188.714 112.675 188.171 112.313 187.99 112.132C187.809 112.313 187.628 112.313 187.628 112.494C187.447 112.856 187.99 113.218 189.438 114.122L189.619 114.303ZM195.228 114.846C194.504 114.846 193.78 114.846 193.056 115.027C193.237 115.027 193.237 115.027 193.418 115.027C193.961 115.027 194.685 115.027 195.228 114.846ZM192.152 111.227C191.428 111.227 190.523 111.408 189.8 111.408C191.066 112.132 192.514 112.494 193.961 112.494C195.047 112.494 195.951 112.132 196.675 111.408C195.77 111.408 193.961 111.227 192.152 111.227Z" fill="#2F3031"/>
<path fill-rule="evenodd" clip-rule="evenodd" d="M281.531 307.358C294.196 307.358 304.509 297.045 304.509 284.379C304.509 271.714 294.196 261.401 281.531 261.401C268.866 261.401 258.553 271.714 258.553 284.379C258.553 297.045 268.866 307.358 281.531 307.358Z" fill="#F24141"/>
<path fill-rule="evenodd" clip-rule="evenodd" d="M281.53 292.522C286.053 292.522 289.672 288.903 289.672 284.38C289.672 279.856 286.053 276.238 281.53 276.238C277.006 276.238 273.388 279.856 273.388 284.38C273.388 288.903 277.006 292.522 281.53 292.522Z" fill="#A3A5A7"/>
<path fill-rule="evenodd" clip-rule="evenodd" d="M281.532 290.351C284.789 290.351 287.503 287.637 287.503 284.38C287.503 281.123 284.789 278.409 281.532 278.409C278.275 278.409 275.561 281.123 275.561 284.38C275.561 287.637 278.275 290.351 281.532 290.351Z" fill="#E4E8EA"/>
<path fill-rule="evenodd" clip-rule="evenodd" d="M463.004 172.925C462.1 173.287 451.605 178.715 451.244 178.896C450.882 179.077 448.711 175.277 449.434 174.915C450.158 174.554 460.471 169.307 461.014 169.126C461.195 169.126 463.366 172.744 463.004 172.925Z" fill="#2F3031" stroke="#060204" stroke-width="0.390813" stroke-miterlimit="2.6131"/>
<path fill-rule="evenodd" clip-rule="evenodd" d="M443.104 143.795C442.561 142.529 441.113 143.433 441.475 144.157C441.475 144.157 441.656 144.519 441.837 145.243L440.39 145.785L441.113 147.414C441.113 147.414 441.656 147.233 442.38 147.052C444.189 153.384 448.17 167.678 449.255 168.583C450.703 169.668 451.065 169.126 451.607 169.849C452.331 170.573 454.683 179.258 455.769 180.162C457.035 181.067 459.388 180.886 460.473 179.258C461.378 177.629 458.302 168.04 457.035 167.316C455.769 166.593 454.502 167.497 452.693 167.135C450.884 166.773 450.522 166.412 450.522 166.412C449.979 164.783 445.999 151.937 444.008 146.509C444.551 146.328 444.913 146.147 445.456 145.966L445.637 146.509L447.446 145.785L447.265 145.423C447.446 145.243 447.627 145.243 447.627 145.243L446.903 143.433C446.903 143.433 446.722 143.433 446.541 143.614L446.179 142.89L444.189 143.433C444.189 143.433 444.37 143.795 444.551 144.338L443.285 144.881C443.285 144.157 443.104 143.795 443.104 143.795Z" fill="#2F3031"/>
<path fill-rule="evenodd" clip-rule="evenodd" d="M487.068 115.39H427.36L427.903 117.38H487.068V115.39Z" fill="#292C2D"/>
<path fill-rule="evenodd" clip-rule="evenodd" d="M406.917 61.6522L427.905 117.379H430.076L408.726 60.9285L406.917 61.6522Z" fill="#292C2D"/>
<path fill-rule="evenodd" clip-rule="evenodd" d="M464.27 115.933C476.754 115.752 489.42 115.571 495.209 115.39C499.19 115.39 499.371 110.686 499.914 107.248C501.723 96.0305 508.056 57.4919 513.484 50.7975C517.645 45.5504 411.076 45.5504 415.237 50.7975C420.665 57.6729 426.998 96.0305 428.807 107.248C429.35 110.686 429.35 115.39 433.512 115.39C439.121 115.571 451.605 115.752 464.27 115.933Z" fill="#A37275"/>
<path d="M464.27 115.933C476.754 115.752 489.419 115.571 495.209 115.39C499.189 115.39 499.37 110.686 499.913 107.248C501.723 96.0301 508.055 57.4916 513.483 50.7971C517.645 45.5501 411.076 45.5501 415.237 50.7971C420.665 57.6725 426.998 96.0301 428.807 107.248C429.35 110.686 429.35 115.39 433.511 115.39C439.12 115.571 451.604 115.752 464.27 115.933Z" fill="#A6A9AD"/>
<path d="M514.208 54.0532H411.62V55.6815H514.208V54.0532Z" fill="#292C2D"/>
<path d="M514.208 55.6818H411.619V57.3102H514.208V55.6818Z" fill="#AF603E"/>
<path d="M514.208 57.3091H411.619V58.9375H514.208V57.3091Z" fill="#292C2D"/>
<path d="M514.208 58.7563H411.619V60.3847H514.208V58.7563Z" fill="#AF603E"/>
<path d="M514.208 60.3854H411.619V62.0138H514.208V60.3854Z" fill="#292C2D"/>
<path d="M514.208 61.8325H411.619V63.4608H514.208V61.8325Z" fill="#AF603E"/>
<path d="M514.208 63.4615H411.619V65.09H514.208V63.4615Z" fill="#292C2D"/>
<path d="M514.208 65.0889H411.619V66.7172H514.208V65.0889Z" fill="#AF603E"/>
<path d="M514.208 66.5378H411.619V68.1662H514.208V66.5378Z" fill="#292C2D"/>
<path d="M514.208 68.1651H411.619V69.7935H514.208V68.1651Z" fill="#AF603E"/>
<path d="M514.208 69.6122H411.619V71.2406H514.208V69.6122Z" fill="#292C2D"/>
<path d="M514.208 71.2413H411.619V72.8697H514.208V71.2413Z" fill="#AF603E"/>
<path d="M514.208 72.6884H411.619V74.3168H514.208V72.6884Z" fill="#292C2D"/>
<path d="M514.208 74.3175H411.619V75.9459H514.208V74.3175Z" fill="#AF603E"/>
<path d="M514.208 75.9448H411.619V77.5732H514.208V75.9448Z" fill="#292C2D"/>
<path d="M514.208 77.3937H411.619V79.0221H514.208V77.3937Z" fill="#AF603E"/>
<path d="M514.208 79.021H411.619V80.6494H514.208V79.021Z" fill="#292C2D"/>
<path d="M514.208 80.4681H411.619V82.0965H514.208V80.4681Z" fill="#AF603E"/>
<path d="M514.208 82.0972H411.619V83.7256H514.208V82.0972Z" fill="#292C2D"/>
<path d="M514.208 83.7263H411.619V85.3547H514.208V83.7263Z" fill="#AF603E"/>
<path d="M514.208 85.1734H411.619V86.8018H514.208V85.1734Z" fill="#292C2D"/>
<path d="M514.208 86.8008H411.619V88.4291H514.208V86.8008Z" fill="#AF603E"/>
<path d="M514.208 88.2496H411.619V89.878H514.208V88.2496Z" fill="#292C2D"/>
<path d="M514.208 89.877H411.619V91.5053H514.208V89.877Z" fill="#AF603E"/>
<path d="M514.208 91.506H411.619V93.1344H514.208V91.506Z" fill="#292C2D"/>
<path d="M514.208 92.9532H411.619V94.5815H514.208V92.9532Z" fill="#AF603E"/>
<path d="M514.208 94.5822H411.619V96.2107H514.208V94.5822Z" fill="#292C2D"/>
<path d="M514.208 96.0294H411.619V97.6578H514.208V96.0294Z" fill="#AF603E"/>
<path d="M514.208 97.6567H411.619V99.2851H514.208V97.6567Z" fill="#292C2D"/>
<path d="M514.208 99.2858H411.619V100.914H514.208V99.2858Z" fill="#AF603E"/>
<path d="M514.208 100.733H411.619V102.361H514.208V100.733Z" fill="#292C2D"/>
<path d="M514.208 102.362H411.619V103.99H514.208V102.362Z" fill="#AF603E"/>
<path d="M514.208 103.809H411.619V105.437H514.208V103.809Z" fill="#292C2D"/>
<path d="M514.208 105.438H411.619V107.067H514.208V105.438Z" fill="#AF603E"/>
<path d="M514.208 107.065H411.619V108.694H514.208V107.065Z" fill="#292C2D"/>
<path d="M514.208 108.513H411.619V110.141H514.208V108.513Z" fill="#AF603E"/>
<path d="M514.208 110.142H411.619V111.77H514.208V110.142Z" fill="#292C2D"/>
<path d="M514.208 111.589H411.619V113.217H514.208V111.589Z" fill="#AF603E"/>
<path d="M514.208 113.218H411.619V114.846H514.208V113.218Z" fill="#292C2D"/>
<path d="M514.208 114.845H411.619V116.474H514.208V114.845Z" fill="#AF603E"/>
<path fill-rule="evenodd" clip-rule="evenodd" d="M415.781 46.636H511.494C513.665 46.636 515.474 48.4453 515.474 50.6165C515.474 52.7877 513.665 54.597 511.494 54.597H415.781C413.61 54.597 411.8 52.7877 411.8 50.6165C411.8 48.4453 413.61 46.636 415.781 46.636Z" fill="#AF603E"/>
<path fill-rule="evenodd" clip-rule="evenodd" d="M515.474 50.6169H411.8C411.8 52.7881 413.61 54.5974 415.781 54.5974H511.494C513.665 54.5974 515.474 52.7881 515.474 50.6169Z" fill="#934F31"/>
<path fill-rule="evenodd" clip-rule="evenodd" d="M393.709 16.2387C393.709 16.2387 407.641 13.3438 427.001 31.7989C437.314 41.7501 440.933 62.9192 440.028 85.7166C438.942 112.856 431.705 141.987 422.297 156.28C421.03 158.09 419.945 159.899 418.678 161.708C406.194 180.887 396.242 195.904 378.692 213.817C370.731 221.959 360.237 231.548 349.924 240.595C335.811 252.898 322.241 263.754 317.356 267.192C309.033 272.981 308.852 273.162 308.852 273.162L308.309 271.715C308.309 271.715 308.128 271.715 316.451 265.925C321.337 262.487 334.725 251.631 348.838 239.328C358.97 230.462 369.464 220.873 377.425 212.731C394.795 195 404.746 179.801 417.231 160.803C418.316 158.994 419.583 157.185 420.849 155.376C430.077 141.444 437.314 112.495 438.4 85.7166C439.304 63.462 435.867 42.4739 425.915 32.8845C407.098 14.9722 393.89 17.6861 393.89 17.6861L393.709 16.2387Z" fill="#B8BABC"/>
<path fill-rule="evenodd" clip-rule="evenodd" d="M118.15 265.382L246.612 274.971C246.612 274.971 246.974 275.514 246.793 276.057C246.793 276.6 245.888 276.781 245.888 276.781L118.331 267.01L118.15 265.382Z" fill="#A3A5A7"/>
<path fill-rule="evenodd" clip-rule="evenodd" d="M118.149 271.895C121.405 271.895 124.119 269.181 124.119 265.925C124.119 262.668 121.405 259.954 118.149 259.954C114.892 259.954 112.178 262.668 112.178 265.925C112.178 269.181 114.892 271.895 118.149 271.895Z" fill="#E4E8EA"/>
<path fill-rule="evenodd" clip-rule="evenodd" d="M284.062 278.047L286.052 279.676L287.862 281.485V283.294L335.809 301.387L333.456 307.358L285.69 289.265L284.424 290.531H281.891L279.358 290.712L277.367 288.903L275.558 287.094L275.377 284.561V281.847L277.186 280.037L278.815 278.047H281.529H284.062Z" fill="#68696B"/>
<path fill-rule="evenodd" clip-rule="evenodd" d="M281.53 287.998C283.52 287.998 285.148 286.37 285.148 284.38C285.148 282.389 283.52 280.761 281.53 280.761C279.54 280.761 277.911 282.389 277.911 284.38C277.911 286.37 279.54 287.998 281.53 287.998Z" fill="#A6A9AD"/>
<path fill-rule="evenodd" clip-rule="evenodd" d="M322.784 299.217H346.487C347.572 299.217 348.477 300.121 348.477 301.207V307.178C348.477 308.263 347.572 309.168 346.487 309.168H322.784C321.699 309.168 320.794 308.263 320.794 307.178V301.207C320.794 300.121 321.699 299.217 322.784 299.217Z" fill="#292C2D"/>
<path fill-rule="evenodd" clip-rule="evenodd" d="M334.544 308.626C336.896 308.626 338.886 306.635 338.886 304.283C338.886 301.931 336.896 299.941 334.544 299.941C332.191 299.941 330.201 301.931 330.201 304.283C330.201 306.816 332.191 308.626 334.544 308.626Z" fill="#68696B"/>
<path fill-rule="evenodd" clip-rule="evenodd" d="M118.15 269.543C120.14 269.543 121.769 267.915 121.769 265.924C121.769 263.934 120.14 262.306 118.15 262.306C116.16 262.306 114.531 263.934 114.531 265.924C114.531 267.915 116.16 269.543 118.15 269.543Z" fill="#A6A9AD"/>
<path fill-rule="evenodd" clip-rule="evenodd" d="M5.24789 216.169C7.78094 217.074 106.389 261.945 106.751 262.126L105.846 263.935C105.484 263.754 6.87628 219.064 4.34323 217.978C3.43857 217.255 4.34323 215.626 5.24789 216.169Z" fill="#9F0000"/>
<path fill-rule="evenodd" clip-rule="evenodd" d="M427.724 151.756L438.038 148.319C438.761 148.138 439.666 148.5 439.847 149.223C440.028 149.947 439.666 150.852 438.942 151.033L428.629 154.47C427.905 154.651 427.001 154.289 426.82 153.566C426.639 152.842 427.001 152.118 427.724 151.756Z" fill="#292C2D"/>
<path fill-rule="evenodd" clip-rule="evenodd" d="M413.792 131.673C412.163 134.025 411.259 135.291 410.354 136.558C390.452 164.964 363.493 203.503 275.017 247.469L273.208 243.851C360.779 200.427 387.376 162.25 407.097 134.206C408.545 132.215 409.992 130.225 410.535 129.321L413.792 131.673Z" fill="#F24141"/>
<path fill-rule="evenodd" clip-rule="evenodd" d="M423.201 146.691C399.137 187.943 359.694 234.081 306.5 268.277L304.69 264.839C351.733 237.157 397.328 184.867 419.944 144.52L423.201 146.691Z" fill="#F24141"/>
<path d="M233.471 160.016L262.959 235.521L266.667 234.073L237.179 158.568L233.471 160.016Z" fill="#F24141"/>
<path fill-rule="evenodd" clip-rule="evenodd" d="M440.209 162.433C440.209 162.613 458.122 210.56 464.635 221.416C471.149 232.272 500.279 263.393 500.46 263.574L499.012 264.84C499.012 264.84 469.701 233.539 463.007 222.321C456.312 211.284 438.4 163.156 438.4 162.975L440.209 162.433Z" fill="#F24141"/>
<path fill-rule="evenodd" clip-rule="evenodd" d="M281.532 260.497C227.252 258.145 172.973 255.793 118.693 253.441C114.894 253.441 115.255 249.641 118.874 249.46C173.154 251.812 227.433 254.164 281.713 256.517C288.046 257.24 285.874 261.04 281.532 260.497Z" fill="#F24141"/>
<path d="M216.529 155.437L134.141 245.836L135.612 247.177L218 156.777L216.529 155.437Z" fill="#F24141"/>
<path d="M214.895 115.744L224.356 141.182L228.087 139.794L218.626 114.356L214.895 115.744Z" fill="#B8BABC"/>
<path fill-rule="evenodd" clip-rule="evenodd" d="M320.61 259.773C320.972 260.316 323.143 263.573 323.867 263.392C324.41 263.211 327.124 261.221 327.124 260.678C327.124 260.135 327.124 260.135 326.943 259.954C326.762 259.773 324.229 256.698 324.229 256.698L320.61 259.773Z" fill="#9F0000"/>
<path fill-rule="evenodd" clip-rule="evenodd" d="M374.169 211.284C374.531 211.827 376.702 215.083 377.426 214.902C377.969 214.722 380.683 212.731 380.683 212.188C380.683 211.646 380.683 211.646 380.502 211.465C380.321 211.284 377.788 208.208 377.788 208.208L374.169 211.284Z" fill="#9F0000"/>
<path fill-rule="evenodd" clip-rule="evenodd" d="M411.803 69.0709L399.319 73.4133C398.776 73.5942 398.595 74.137 398.776 74.4989L399.138 75.7654C399.319 76.3082 399.861 76.4891 400.223 76.3082L412.708 71.9658C413.25 71.7849 413.431 71.2421 413.25 70.8802L412.889 69.6137C412.889 69.2518 412.346 68.89 411.803 69.0709Z" fill="#292C2D"/>
<path fill-rule="evenodd" clip-rule="evenodd" d="M418.676 87.8885L406.192 92.2309C405.649 92.4119 405.468 92.9546 405.649 93.3165L406.011 94.583C406.192 95.1258 406.735 95.3068 407.097 95.1258L419.581 90.7835C420.124 90.6025 420.305 90.0597 420.124 89.6979L419.762 88.4314C419.581 88.0695 419.038 87.7076 418.676 87.8885Z" fill="#292C2D"/>
</svg>
